<svg id="logo-grd" xmlns="http://www.w3.org/2000/svg" width="68.011" height="12.5" viewBox="0 0 68.011 12.5">
  <g id="Group_27" data-name="Group 27" transform="translate(0 0.67)">
    <path id="Path_14" data-name="Path 14" d="M88.407,2.487V6.926H85.7V9.1h2.709v5.076h2.179V2.487Z" transform="translate(-55.679 -2.364)" fill="#2b2c34"/>
    <path id="Path_15" data-name="Path 15" d="M.607,4.666H2.674v9.528h2.18V4.666H6.921V2.487H.607Z" transform="translate(-0.607 -2.364)" fill="#2b2c34"/>
    <path id="Path_16" data-name="Path 16" d="M24.648,2.487V14.194h5.337V12.015H26.828V9.463H28.92V7.284H26.828V4.666h3.157V2.487H24.648Z" transform="translate(-16.167 -2.364)" fill="#2b2c34"/>
    <path id="Path_17" data-name="Path 17" d="M50.451,4.273a3.539,3.539,0,0,1,2.862,1.484l1.73-1.375A5.842,5.842,0,0,0,44.6,8.031,5.842,5.842,0,0,0,55.043,11.68l-1.73-1.375a3.539,3.539,0,0,1-2.862,1.484,3.68,3.68,0,0,1-3.6-3.759A3.68,3.68,0,0,1,50.451,4.273Z" transform="translate(-29.081 -2.14)" fill="#2b2c34"/>
  </g>
  <path id="Path_18" data-name="Path 18" d="M78.533,1.033H80.77V12.727H78.533ZM105.27,9.217a3.409,3.409,0,0,1-3.31,3.446H97.888V1.142h3.723c2.132,0,3.405,1.115,3.405,2.983a2.584,2.584,0,0,1-1.206,2.463A3.019,3.019,0,0,1,105.27,9.217ZM100.56,5.578h.409c.415,0,1.381-.1,1.381-1.026,0-.865-.865-.994-1.381-.994h-.409Zm2.012,3.516V9.087a1.131,1.131,0,0,0-.287-.854,1.342,1.342,0,0,0-1-.353h-.729v2.368h.729A1.38,1.38,0,0,0,102.31,9.9a1.06,1.06,0,0,0,.263-.8ZM119.053,3.56V1.033h-5.685V12.727h5.685V10.2H115.9V8h2.092V5.468H115.9V3.56Zm-9.925-2.528H106.6V12.727h5.763V10.2h-3.235ZM92.029.24l4.9,12.344h-2.76l-.571-1.5H90.462l-.571,1.5h-2.76Zm.706,8.594-.706-1.851-.707,1.851Z" transform="translate(-51.042 -0.24)" fill="#2b2c34"/>
</svg>
