<svg xmlns="http://www.w3.org/2000/svg" width="56.66" height="46.1" viewBox="0 0 56.66 46.1">
  <defs>
    <style>
      .cls-1 {
        fill: #f0f0f1;
        fill-rule: evenodd;
      }
    </style>
  </defs>
  <path id="パス_19" data-name="パス 19" class="cls-1" d="M1269.78,25814.1c21.4,0,33.1-17.8,33.1-33.1,0-.5,0-1-0.02-1.5a25.439,25.439,0,0,0,5.81-6,24.484,24.484,0,0,1-6.68,1.8,11.649,11.649,0,0,0,5.11-6.5,23.5,23.5,0,0,1-7.38,2.9,11.481,11.481,0,0,0-8.49-3.7,11.621,11.621,0,0,0-11.63,11.6,11.84,11.84,0,0,0,.31,2.7,32.931,32.931,0,0,1-23.98-12.2,11.643,11.643,0,0,0-1.57,5.9,11.408,11.408,0,0,0,5.19,9.6,10.523,10.523,0,0,1-5.26-1.4v0.1a11.525,11.525,0,0,0,9.34,11.4,10.375,10.375,0,0,1-3.06.5,8.164,8.164,0,0,1-2.2-.3,11.552,11.552,0,0,0,10.86,8.1,23.492,23.492,0,0,1-14.46,5,25.428,25.428,0,0,1-2.77-.2A32.689,32.689,0,0,0,1269.78,25814.1Z" transform="translate(-1252 -25768)"/>
</svg>
