<svg xmlns="http://www.w3.org/2000/svg" width="322.056" height="50.792" viewBox="0 0 322.056 50.792">
  <path id="Path_1132" data-name="Path 1132" d="M52.416-10.976c-3.584-3.36-8.68-8.176-21.728-22.456a8.587,8.587,0,0,0-6.832-3.3c-2.464,0-4.2.784-8.344,5.6-3.864,4.48-7.9,9.128-12.04,13.1L9.184-13.1c2.8-3.08,5.936-7.056,9.576-11.592,3.024-3.808,3.64-4.592,5.264-4.592s2.52.952,4.312,3.08A232.47,232.47,0,0,0,47.656-5.432Zm52.36-24.808-5.152-5.208a3.4,3.4,0,0,1-1.96,1.232H59.976v6.048H95.032a51.881,51.881,0,0,1-10.192,12.1l5.208,4.424C96.152-23.184,102.032-31.752,104.776-35.784ZM85.4-31.36c0-.448-.168-.448-1.344-.5L77.5-32.2c.448,11.648-2.184,20.552-14,28.728L69.5.056c2.968-2.184,12.432-9.184,14.336-25.2.112-.728.336-4.648.448-4.76.056-.224.728-.784.84-.952C85.288-31.08,85.4-31.192,85.4-31.36Zm73.024,3.584V-34.1H129.64c1.9-3.752,2.576-5.32,3.472-7.5.28-.728.336-.784.9-1.064.56-.168.728-.28.728-.672,0-.616-1.064-1.008-1.4-1.12l-6.384-2.3c-3.472,11.48-8.176,19.1-16.464,26.768l6.552,3.64a64.416,64.416,0,0,0,8.848-11.424h11.76A30.713,30.713,0,0,1,134.4-13.72,32.912,32.912,0,0,1,121.3-.168l6.832,4.2a42.153,42.153,0,0,0,12.992-15.68,37.289,37.289,0,0,0,3.472-16.128ZM212.3-35.784l-5.152-5.208a3.4,3.4,0,0,1-1.96,1.232H167.5v6.048h35.056a51.881,51.881,0,0,1-10.192,12.1l5.208,4.424C203.672-23.184,209.552-31.752,212.3-35.784ZM192.92-31.36c0-.448-.168-.448-1.344-.5l-6.552-.336c.448,11.648-2.184,20.552-14,28.728L177.016.056c2.968-2.184,12.432-9.184,14.336-25.2.112-.728.336-4.648.448-4.76.056-.224.728-.784.84-.952C192.808-31.08,192.92-31.192,192.92-31.36ZM240.968,2.352v-17.92h-17.64V2.8H228.7V.616h6.888V2.352ZM264.936-19.88c0-.56-1.176-1.568-1.232-1.624l-3.7-3.248c-3.528,4.2-8.4,8.568-17.192,12.6l4.2,4.424a62.418,62.418,0,0,0,15.512-11.256,2.036,2.036,0,0,1,1.064-.28C264.376-19.264,264.936-19.264,264.936-19.88Zm-29.4,15.344H228.7v-6.1h6.832ZM259.9-27.272c0-.56-.784-1.288-.9-1.4l-3.7-3.192A45.48,45.48,0,0,1,242.536-21.5l4.032,4.144c4.816-2.968,6.664-4.648,11.312-9.016.336-.224.392-.224,1.344-.336C259.5-26.768,259.9-26.88,259.9-27.272ZM240.072-18.2v-4.592h-16.3V-18.2ZM270.48-31.7c-6.5-3.528-10.92-7.616-12.656-11.088.448-.168,1.008-.392,1.008-1.008,0-.672-1.12-.952-1.344-1.008l-5.936-1.288A33.092,33.092,0,0,1,242.76-33.6v-3.64H221.424v4.872h20.048a17.937,17.937,0,0,1-3.136,2.52H223.944V-25.2H239.96v-3.864l3.752,2.8c4.872-3.864,8.456-8.9,10.528-11.816a46.132,46.132,0,0,0,11.984,11.2Zm-30.912-8.12v-4.592H224.28v4.592ZM269.92-11.872c0-.616-.9-1.512-1.176-1.792l-3.7-3.136c-6.44,6.888-13.384,11.368-23.968,14.616l4.312,5.32A66.979,66.979,0,0,0,266.84-10.3c.9-.84,1.064-.952,2.016-.952C269.416-11.256,269.92-11.256,269.92-11.872Zm55.608-27.776a2.227,2.227,0,0,0-.5-1.232L321.16-46.2a65.691,65.691,0,0,1-12.768,4.088l-3.976-.056c.224,7.336.28,9.576.28,12.88,0,16.8-2.184,20.776-4.592,24.976v-2.3H282.8V-13.5l4.088,3.136a18.516,18.516,0,0,0,3.752-4.816v7.56h5.152v-8.512a23.179,23.179,0,0,0,3.752,3.7l3.808-4.48c-4.76-3.976-6.272-6.832-7.056-8.288h6.272v-4.984h-6.776v-3.36l3.92,2.128a46.358,46.358,0,0,0,3.136-6.272c1.232-.336,1.456-.392,1.456-.784,0-.616-.784-.952-.84-.952l-4.928-1.68a31.884,31.884,0,0,1-2.744,5.88v-7.784c0-.168.168-.336.672-.672.5-.392.616-.56.616-.784,0-.56-.616-.672-1.4-.728l-5.04-.28v9.912a34,34,0,0,0-3.3-5.712L282.8-39.648v-1.12c0-.224.224-.336.672-.616.5-.392.616-.56.616-.784,0-.56-.5-.728-1.344-.728l-5.152-.112V2.352H282.8V-1.12h14.9c-.56.56-1.12,1.12-1.68,1.624l5.656,2.968c3.7-3.92,5.656-8.176,7.112-13.832a61.7,61.7,0,0,0,1.68-12.936h4.368V2.856h6.1V-23.3h4.48v-6.216h-14.84c0-1.848,0-5.32-.056-7.168A97.475,97.475,0,0,0,321.5-39.088c.5-.112,1.568-.392,1.624-.392.28,0,1.568.336,1.848.336C325.36-39.144,325.528-39.312,325.528-39.648ZM290.64-30.184h-6.328V-25.2h4.76a28.874,28.874,0,0,1-6.272,9.968V-37.856a29.964,29.964,0,0,1,3.024,6.16l4.816-1.848Z" transform="translate(-3.472 46.76)" fill="#6e31ff"/>
</svg>
