<svg xmlns="http://www.w3.org/2000/svg" width="410.002" height="260.397" viewBox="0 0 819.84 520.69">
  <defs>
    <style>
      .cls-1 {
        fill: none;
        stroke: #e9e9ea;
        stroke-width: 4px;
        fill-rule: evenodd;
      }
    </style>
  </defs>
  <path id="パス_1066" data-name="パス 1066" class="cls-1" d="M2115.9,9367.68q-1.5,0-3-.03c-33.77,0-61.92-8.26-83.57-24.55a104.687,104.687,0,0,1-30.53-36.06,112.648,112.648,0,0,1-12.94-53.75c0-26.57,7.74-50.1,23.02-69.89,23-29.45,58.02-44.37,104.1-44.37,0.95-.02,1.98-0.03,3-0.03a154.954,154.954,0,0,1,40.87,5.48c12.2,3.64,27.53,10.81,45.64,21.34a81.285,81.285,0,0,1,20.22,15.03l2.12,2.16-21.34,37.25-3.69-3.82a113.165,113.165,0,0,0-23.24-18.41,117.206,117.206,0,0,0-57.45-15.06c-24.13,0-43.46,5.89-57.66,17.53-16.9,13.52-25.09,30.79-25.09,52.84a64.978,64.978,0,0,0,25.01,52.78c14.26,11.49,33.6,17.29,57.55,17.29h0.2a117.342,117.342,0,0,0,57.52-15.11,142.674,142.674,0,0,0,23.3-17.58l3.7-3.42,21.27,37.13-2.35,2.16a98.359,98.359,0,0,1-20.19,14.34c-17.77,10.45-33.05,17.63-45.29,21.24A156.484,156.484,0,0,1,2115.9,9367.68Zm344.66-3.78-80.65-98.19-30.34,22.75v75.44h-49.56V9142.78h49.56v86.57l107.41-86.57h67.37l-107.89,90.79,105.3,130.33h-61.2Zm-733.55,0V9142.78h199.25v43H1776.57v42.62h102.82v42.06H1776.57v50.44h153.44v43h-203Zm115.05-284.22q-1.5,0-3-.03c-33.78,0-61.93-8.26-83.58-24.55a104.8,104.8,0,0,1-30.53-36.06,112.764,112.764,0,0,1-12.94-53.75c0-26.57,7.74-50.1,23.02-69.89,23-29.45,58.02-44.37,104.11-44.37,0.94-.02,1.97-0.03,3-0.03a154.936,154.936,0,0,1,40.86,5.48c12.21,3.64,27.53,10.81,45.64,21.34a81.285,81.285,0,0,1,20.22,15.03l2.13,2.16-21.34,37.25-3.7-3.82a112.9,112.9,0,0,0-23.24-18.41,117.131,117.131,0,0,0-57.43-15.06h-0.21c-23.93,0-43.27,5.9-57.46,17.53-16.9,13.52-25.1,30.79-25.1,52.84a65.007,65.007,0,0,0,25.01,52.78c14.26,11.48,33.61,17.28,57.55,17.28a117.489,117.489,0,0,0,57.73-15.11,143.183,143.183,0,0,0,23.3-17.57l3.69-3.43,21.28,37.14-2.35,2.16a97.934,97.934,0,0,1-20.2,14.34c-17.77,10.46-33.05,17.63-45.28,21.25A157,157,0,0,1,1842.06,9079.68Zm353.79-3.78v-93.12H2075.73v93.12h-49.56V8854.78h49.56v85h120.12v-85h49.56V9075.9h-49.56Z" transform="translate(-1710 -8849)"/>
</svg>
