<svg xmlns="http://www.w3.org/2000/svg" width="265.023" height="49.739" viewBox="0 0 529.094 99.3">
  <defs>
    <style>
      .cls-1 {
        fill: #6e31ff;
        fill-rule: evenodd;
      }
    </style>
  </defs>
  <path id="パス_1133" data-name="パス 1133" class="cls-1" d="M455.376,11146.7v-35.8H420.1v36.7h10.752v-4.4h13.776v3.5h10.752Zm47.936-44.5c0-1.1-2.352-3.1-2.464-3.2l-7.392-6.5c-7.056,8.4-16.8,17.1-34.384,25.2l8.4,8.8c14.9-7.7,23.072-15,31.024-22.5a4.444,4.444,0,0,1,2.128-.5C502.192,11103.5,503.312,11103.5,503.312,11102.2Zm-58.8,30.7H430.848v-12.2h13.664v12.2Zm48.72-45.4c0-1.2-1.568-2.6-1.792-2.8l-7.392-6.4a93.233,93.233,0,0,1-25.536,20.7l8.064,8.3c9.632-6,13.328-9.3,22.624-18.1,0.672-.4.784-0.4,2.688-0.6A1.381,1.381,0,0,0,493.232,11087.5Zm-39.648,18.1v-9.2H420.992v9.2h32.592Zm60.816-27c-12.992-7-21.84-15.2-25.312-22.2,0.9-.3,2.016-0.8,2.016-2,0-1.3-2.24-1.9-2.688-2l-11.872-2.6c-3.584,9.9-10.3,18.2-17.584,25v-7.3H416.288v9.8h40.1a34.82,34.82,0,0,1-6.272,5H421.328v9.3H453.36v-7.7l7.5,5.6c9.744-7.8,16.912-17.8,21.056-23.7a90.874,90.874,0,0,0,23.968,22.4Zm-61.824-16.2v-9.2H422v9.2h30.576Zm60.7,55.9c0-1.3-1.792-3.1-2.352-3.6l-7.392-6.3c-12.88,13.8-26.768,22.7-47.936,29.2l8.624,10.7a135.558,135.558,0,0,0,42.9-26.9c1.792-1.7,2.128-1.9,4.032-1.9C512.272,11119.5,513.28,11119.5,513.28,11118.3Zm111.216-55.6a4.685,4.685,0,0,0-1.008-2.5l-7.728-10.6a134.436,134.436,0,0,1-25.536,8.2l-7.952-.1c0.448,14.6.56,19.1,0.56,25.7,0,33.6-4.368,41.6-9.184,50v-4.6H539.04V11115l8.176,6.3a37.016,37.016,0,0,0,7.5-9.7v15.2h10.3v-17.1a43.337,43.337,0,0,0,7.5,7.4l7.616-8.9c-9.52-8-12.544-13.7-14.112-16.6h12.544v-10H565.024v-6.7l7.84,4.3a90.864,90.864,0,0,0,6.272-12.6c2.464-.6,2.912-0.8,2.912-1.5a2.31,2.31,0,0,0-1.68-1.9l-9.856-3.4a65.251,65.251,0,0,1-5.488,11.8V11056c0-.4.336-0.7,1.344-1.4s1.232-1.1,1.232-1.5c0-1.1-1.232-1.4-2.8-1.5l-10.08-.5v19.8c-1.344-3-2.576-5.4-6.608-11.4l-9.072,3.2v-2.2c0-.5.448-0.7,1.344-1.3,1.008-.8,1.232-1.1,1.232-1.5,0-1.2-1.008-1.5-2.688-1.5l-10.3-.2v90.7H539.04v-6.9h29.792c-1.12,1.1-2.24,2.2-3.36,3.2l11.312,5.9c7.392-7.8,11.312-16.3,14.224-27.6a124.458,124.458,0,0,0,3.36-25.9H603.1v52.3h12.208v-52.3h8.96V11083h-29.68c0-3.7,0-10.7-.112-14.4a177.554,177.554,0,0,0,21.952-4.8c1.008-.2,3.136-0.8,3.248-0.8,0.56,0,3.136.7,3.7,0.7A0.914,0.914,0,0,0,624.5,11062.7Zm-69.776,18.9H542.064v10h9.52a57.628,57.628,0,0,1-12.544,19.9v-45.2a58.788,58.788,0,0,1,6.048,12.3l9.632-3.7v6.7Zm175.392-6.4H694.944a147.494,147.494,0,0,0,.784-15.2c0-1.6,0-1.7,1.008-2.7,1.12-1,1.232-1.1,1.232-1.7s-0.112-1.2-3.136-1.4l-13.216-1.1a184.671,184.671,0,0,1-.56,22.1h-32.48v12.4h30.688a73.749,73.749,0,0,1-9.072,24.4c-8.736,14.4-19.712,20.7-25.872,24.2l11.312,8.9c6.16-3.9,17.36-10.9,26.768-27.5,6.944-12.3,9.52-24.3,10.752-30h22.96c-0.448,16.5-3.36,34.5-7.728,40.3-1.568,2.2-3.136,3.1-7.056,3.1-1.792,0-4.144-.2-11.424-1.2l6.384,14.4c12.656-.1,18.368-1.5,22.736-7.4S729.44,11111,730.112,11075.2Zm115.472,23.3-7.616-11.3c-7.168,10.9-19.936,23.4-29.568,28.7V11067a18.127,18.127,0,0,1,1.344-1.4c1.008-.9,1.232-1.2,1.232-1.7,0-1.1-2.128-1.3-3.136-1.4l-12.992-1.6v68l9.52,7.4C817.808,11128.8,834.608,11113.3,845.584,11098.5Zm-60.368-33.7c0-1.2-1.232-1.5-3.248-1.6l-13.552-.9a162.255,162.255,0,0,1,1.232,21.1c0,27.9-13.216,37.4-23.968,43.7l12.432,9.1c8.176-6.5,21.5-17.5,24.192-40.7,0.56-4.9.56-6.6,0.56-27.5a1.544,1.544,0,0,1,.784-1.5C784.992,11065.4,785.216,11065.3,785.216,11064.8Zm145.04,4.3V11057H876.048v12.1h54.208Zm15.12,27.8v-11.6h-84.56v11.6h37.632c-0.56,21.8-7.5,32.6-29.9,40.6l10.976,9.2c6.16-2.9,17.36-8.1,24.864-20.8,6.608-11.3,6.944-22.8,7.056-29h33.936Z" transform="translate(-416.281 -11049.6)"/>
</svg>
