<svg xmlns="http://www.w3.org/2000/svg" width="371.999" height="256.96" viewBox="0 0 742.81 513.1">
  <defs>
    <style>
      .cls-1 {
        fill: none;
        stroke: #e9e9ea;
        stroke-width: 4px;
        fill-rule: evenodd;
      }
    </style>
  </defs>
  <path id="パス_1068" data-name="パス 1068" class="cls-1" d="M1287.82,11138.1V10917h199.25v43H1337.38v42.6h102.81v42.1H1337.38v50.4h153.44v43h-203Zm-190.72,0V10960h-82.5v-43h214.56v43h-82.5v178.1H1097.1Zm-181.008,0-60-86.9H801.564v86.9H752V10917H881.11a200.936,200.936,0,0,1,34.622,2.9,70.794,70.794,0,0,1,25.882,10.2,54.583,54.583,0,0,1,19.034,24.1,81.173,81.173,0,0,1,5.6,30.3c0,35-19.116,56.4-56.848,63.8l61.7,89.8H916.092Zm-44.152-130.2c1.284,0.1,2.5.1,3.7,0.1h0a169.641,169.641,0,0,0,18.856-1,41.441,41.441,0,0,0,11.726-3.4c7.2-3.6,10.772-10,10.772-19.5,0-9.6-3.546-16-10.842-19.5a34.464,34.464,0,0,0-11.481-3.7c-6.159-.6-12.573-0.9-18.915-0.9h-74.2v47.9H871.94Zm342.63-157.8-27.2-54.4h-95.06l-27.18,54.4h-46.86l102.46-221.1h41.96l105.05,221.1h-53.17Zm-42.46-91.4-31.67-63.1-32.19,63.1h63.86Zm-259.562,91.4-80.646-98.2-30.338,22.8v75.4H752V10629h49.564v86.6l107.4-86.6h67.38l-107.89,90.8,105.3,130.3h-61.2Z" transform="translate(-750 -10627)"/>
</svg>
