<svg xmlns="http://www.w3.org/2000/svg" width="179.995" height="21.923" viewBox="0 0 361 43.97">
  <defs>
    <style>
      .cls-1 {
        fill: #6e31ff;
        fill-rule: evenodd;
      }
    </style>
  </defs>
  <path id="パス_1131" data-name="パス 1131" class="cls-1" d="M1137.25,8125.87v-5.47h-8.07v-7.25a1.54,1.54,0,0,1,.53-0.62,0.855,0.855,0,0,0,.43-0.58c0-.58-1.1-0.72-1.48-0.77l-4.95-.67c0.1,3.03.1,6.24,0.1,9.89h-9.07v-6.72a0.92,0.92,0,0,1,.62-0.72,0.569,0.569,0,0,0,.38-0.48c0-.48-0.33-0.53-1.44-0.67l-5.28-.58v9.17h-8.88v5.47h8.88v10.99h5.72v-10.99h9.07c-0.19,10.75-2.93,15.65-11.62,20.4l3.94,3.74c9.31-5.66,12.48-10.46,13.01-24.14h8.11Zm44.49,6.91v-6.09h-34.12v6.09h34.12Zm50.64-21.93a27.486,27.486,0,0,0-4.56-3.94l-2.44,2.16a24.365,24.365,0,0,1,4.56,3.99Zm-4.56,3.84a29.125,29.125,0,0,0-4.6-3.99l-2.4,2.16a28.178,28.178,0,0,1,4.56,3.99Zm-1.39,32.54v-6.24a100.934,100.934,0,0,1-15.84,1.35c-8.01,0-8.3-1.49-8.3-4.28v-7.58a104.409,104.409,0,0,0,15.21-4.18c1.16-.38,6.87-2.78,7.11-2.78s1.15,0.19,1.29.19a0.377,0.377,0,0,0,.44-0.38,2.653,2.653,0,0,0-.72-1.11l-3.99-3.98a40.658,40.658,0,0,1-8.01,3.89,50.855,50.855,0,0,1-11.33,3.07v-11.57a1,1,0,0,1,.57-0.62,1.232,1.232,0,0,0,.48-0.68c0-.28-0.48-0.62-1.44-0.76l-5.28-.77v29.47c0,5.14,1.78,7.54,15.89,7.54C1218.94,8147.81,1224.13,8147.37,1226.43,8147.23Zm48.77-4.99a96.5,96.5,0,0,0-12.72-11.86,57.991,57.991,0,0,0,5.57-10.75,6.61,6.61,0,0,1,2.59-2.88l-3.7-4.08a4.506,4.506,0,0,1-2.49,1.06h-20.69v5.57h18.29a38.584,38.584,0,0,1-8.16,13.1,42.694,42.694,0,0,1-15.31,10.37l4.22,4.37c9.02-4.42,12.58-8.07,16.42-12.34a75.963,75.963,0,0,1,11.71,12Zm47.38-12.58c0-10.7-7.88-17.47-17.86-17.47-12.38,0-21.17,9.7-21.17,20.35,0,8.6,7.87,12.91,9.6,12.91,2.5,0,4.71-4.03,6.15-7,1.58-3.22,4.41-9.94,5.95-21.36a12.265,12.265,0,0,1,8.16,3.21,11.31,11.31,0,0,1,3.45,8.4,15.021,15.021,0,0,1-3.45,9.56,16.156,16.156,0,0,1-8.64,5.13l3.55,4.94a23.1,23.1,0,0,0,11.18-8.44A17.912,17.912,0,0,0,1322.58,8129.66Zm-23.04-11.71c-0.96,7.49-5.09,20.02-7.59,20.02-0.86,0-3.07-2.02-3.07-5.91a15.687,15.687,0,0,1,4.8-10.65A14.081,14.081,0,0,1,1299.54,8117.95Zm71.76-5.66a22.659,22.659,0,0,0-4.08-3.94l-2.07,2.16a20.585,20.585,0,0,1,3.94,4.08Zm-2.69,5.47a20.171,20.171,0,0,0-3.99-4.27l-2.06,2.16a19.433,19.433,0,0,1,3.98,4.27Zm-7.39-.53-2.16-3.89a76.069,76.069,0,0,1-10.95.77,85.7,85.7,0,0,1-12.09-.86l1.44,5.28c2.25,0.14,3.64.19,6.52,0.19,3.65,0,5.33-.1,7.4-0.24-1.83,1.68-3.75,3.41-4.85,4.37l3.31,3.45C1353.78,8122.94,1357.47,8119.82,1361.22,8117.23Zm2.25,28.51-0.33-5.76a66.544,66.544,0,0,1-14.84,1.54c-8.16,0-8.49-1.34-8.49-2.69,0-1.73,1.92-3.41,2.69-4.03l-4.18-3.41c-1.44,1.3-4.66,4.18-4.66,8.5,0,4.85,4.61,6.86,15.46,6.86A115.336,115.336,0,0,0,1363.47,8145.74Zm53.71-2.83-3.69-2.35a12.908,12.908,0,0,1-.77,3.02,1.054,1.054,0,0,1-1.15.77h-1.63a1.029,1.029,0,0,1-1.06-1.2v-11.76h6.1v-14.54h-4.95a38.133,38.133,0,0,0,2.83-4.56,1.3,1.3,0,0,1,1.2-.72,0.42,0.42,0,0,0,.34-0.29,0.474,0.474,0,0,0-.34-0.39l-5.18-1.96a48.386,48.386,0,0,1-4.8,7.92h-4.51l2.11-1.54a33.239,33.239,0,0,0-4.85-6.81l-3.98,2.83a34.31,34.31,0,0,1,3.89,5.52h-3.99v14.54h3.65c-0.24,7.54-3.5,13.3-6.62,15.79V8134.7h-14.45v15.8h5.09v-2.26h7.82l5.14,2.64a24.1,24.1,0,0,0,5.66-8.06,31.56,31.56,0,0,0,2.5-8.88,0.847,0.847,0,0,0,.86-0.68,0.819,0.819,0,0,0-.67-0.72l-3.75-1.15h5.76v14.35a3.794,3.794,0,0,0,4.13,3.89h4.61C1414.06,8149.63,1415.98,8149.63,1417.18,8142.91Zm-7.44-16.27h-11.85v-5.28h11.85v5.28Zm-24.86,16.94h-4.46v-4.51h4.46v4.51Zm4.13-17.04v-4.08h-12.72v4.08h12.72Zm-0.15,6.15v-4.08h-12.57v4.08h12.57Zm-0.04-18.58v-4.08h-11.76v4.08h11.76Zm1.1,6.15v-4.28h-15.41v4.28h15.41Zm71.23,23.52v-33.17H1441.9v18.33c0,11.09-4.8,14.88-9.6,17.52l4.28,3.46c5.32-3.36,9.07-7.58,10.36-16.22h8.79v9.07c0,1.58-.67,1.92-1.73,1.92h-3.41l1.78,5.13h2.45C1459.9,8149.82,1461.15,8147.57,1461.15,8143.78Zm-5.42-23.96h-8.4v-4.56h8.4v4.56Zm0,9.17h-8.4v-4.51h8.4v4.51Zm-16.9,8.16v-25.63h-17.37v29.42h5.47v-3.79h11.9Zm-5.18-15.26h-6.72v-5.72h6.72v5.72Zm0,10.65h-6.72v-6h6.72v6Z" transform="translate(-1100.16 -8106.91)"/>
</svg>
