<svg xmlns="http://www.w3.org/2000/svg" width="1055.056" height="140.403" viewBox="0 0 2109.69 280.75">
  <defs>
    <style>
      .cls-1 {
        fill: #e9e9ea;
        fill-rule: evenodd;
      }
    </style>
  </defs>
  <path id="パス_1061" data-name="パス 1061" class="cls-1" d="M354.1,8270.75c-34.611,0-75.616-12.43-121.819-36.93L226,8230.48l23.5-60.59,8.568,7.25c8.986,7.6,23.944,15.27,44.456,22.78s38.262,11.33,52.748,11.33c16.012,0,29.654-2.53,40.544-7.53a39.725,39.725,0,0,0,14.13-10.48,17.323,17.323,0,0,0,4.456-11.25c0-2.14,0-6.85-10.28-10.28l-0.342-.12c-4.014-1.54-13.762-3.95-37.406-6.64l-28.795-2.99a409.887,409.887,0,0,1-41.179-5.73l-0.3-.06a105.467,105.467,0,0,1-25.162-9.34,69.748,69.748,0,0,1-29.2-28.78,79.49,79.49,0,0,1-9.212-38.85c0-23.42,7.98-43.37,23.72-59.11C276.5,8000.11,307.152,7990,347.4,7990a218.518,218.518,0,0,1,54.194,7.4c19.194,4.92,41.582,15.75,66.462,32.17l6.142,4.06-30.526,55.87-7.524-6.83c-22.693-20.59-52.128-31.87-87.49-33.55-0.53-.01-1.062-0.01-1.592-0.01a113.486,113.486,0,0,0-31.922,4.57,37.332,37.332,0,0,0-15.946,9.27,15.409,15.409,0,0,0-4.924,10.94c0,2.29,0,7.98,13.582,11.64,3.942,1.14,13.53,2.96,37.714,5.38l29.636,3a252.513,252.513,0,0,1,43.169,8.14,102.944,102.944,0,0,1,30.385,14.66l0.249,0.18a71.586,71.586,0,0,1,21.753,27.46,85.536,85.536,0,0,1-10.61,88.14c-11.266,14.02-28.636,24.5-51.645,31.19a202.769,202.769,0,0,1-53.061,7.07H354.1Zm1510.37,0c-41.34,0-75.76-10.13-102.3-30.11a128.721,128.721,0,0,1-37.56-44.37,138.453,138.453,0,0,1-15.88-65.99c0-32.57,9.52-61.47,28.29-85.8,28.25-36.16,71.12-54.48,127.46-54.48,20.68,0,38.73,2.26,53.66,6.71,14.76,4.4,33.33,13.08,55.21,25.79a101.426,101.426,0,0,1,25.09,18.64l4.25,4.33-28.78,50.23-7.4-7.23c-10.42-10.18-19.54-17.44-27.11-21.57a137.609,137.609,0,0,0-67.55-17.77h-0.23c-27.98,0-50.5,6.83-66.94,20.31-19.5,15.6-28.95,35.52-28.95,60.94,0,25.19,9.46,45.12,28.92,60.92,16.44,13.23,38.97,19.96,66.96,19.96h0.24a137.566,137.566,0,0,0,67.36-17.67,168.081,168.081,0,0,0,27.44-20.71l7.38-6.85,28.81,50.28-4.7,4.32a120.214,120.214,0,0,1-24.75,17.59c-21.65,12.73-40.19,21.42-55.09,25.82C1903.26,8268.49,1885.15,8270.75,1864.47,8270.75Zm221.23-4.5V7994.5h245.5v58H2151.58v44.75h123.37v56.87H2151.58v54.13H2335.7v58h-250Zm-521.47,0V7994.5h65.88v271.75h-65.88Zm-241.04,0L1201.65,7994.5h71.09l78.5,170.38,78.51-170.38h68.02l-119.94,271.75h-54.64Zm-240.26,0-72-104.25H950.376v104.25H884.5V7994.5H1037.63c19.69,0,35.61,1.19,47.32,3.53a87.8,87.8,0,0,1,32.03,12.76l0.29,0.19a68.321,68.321,0,0,1,23.78,30.15,100.668,100.668,0,0,1,6.96,37.55c0,50.9-33.54,71.08-66.09,78.66l74.78,108.91h-73.77Zm-51.3-162.63c1.59,0.03,3.03.04,4.47,0.04a221.125,221.125,0,0,0,22.13-1.11,48.664,48.664,0,0,0,13.08-3.78c7.63-3.87,11.19-10.39,11.19-20.52,0-13.62-6.39-18.24-11.19-20.53l-0.29-.14a37.734,37.734,0,0,0-12.4-4.01c-7.42-.74-14.95-1.11-22.4-1.11-1.48,0-2.96.01-4.44,0.04h-81.4v51.12h81.254ZM555.892,8266.25V7994.5h245.5v58H621.766v44.75H745.142v56.87H621.766v54.13H805.892v58h-250Z" transform="translate(-226 -7990)"/>
</svg>
