<svg xmlns="http://www.w3.org/2000/svg" width="268.015" height="260.664" viewBox="0 0 535.28 520.6">
  <defs>
    <style>
      .cls-1 {
        fill: none;
        stroke: #e9e9ea;
        stroke-width: 4px;
        fill-rule: evenodd;
      }
    </style>
  </defs>
  <path id="パス_1070" data-name="パス 1070" class="cls-1" d="M1836.01,12922.6c-37.14,0-67.08-10.4-88.99-31.1a112.814,112.814,0,0,1-26.92-40.2,118.236,118.236,0,0,1,8.75-103.8c20.85-34.9,56.79-52.9,106.79-53.5,37.6,0,67.75,10.5,89.67,31.1,23.23,21.7,35.01,50.1,35.01,84.5a111.978,111.978,0,0,1-16.85,59.3C1921.77,12904.5,1885.61,12922.6,1836.01,12922.6Zm-0.02-184.7c-19.95,0-36.73,5.8-49.87,17.2-15.89,13.7-23.61,31.1-23.61,53.2s7.71,39.4,23.59,52.9c13.17,11.4,30.06,17.2,50.22,17.2,19.95,0,36.74-5.8,49.88-17.2a65.171,65.171,0,0,0,17.98-24.7,69.327,69.327,0,0,0,5.64-27.3c0-23.1-7.71-40.8-23.57-54.1C1872.88,12743.9,1855.97,12738.1,1835.99,12737.9Zm195.48,181v-221.2H2156.1c15.66,0,28.21,1.1,37.32,3.3a65.21,65.21,0,0,1,24.74,11.3,60.4,60.4,0,0,1,17.53,22.5,76.448,76.448,0,0,1,5.97,30.1,67.99,67.99,0,0,1-11.94,40,54.755,54.755,0,0,1-27.11,21.4c-10.89,4-26.55,6-46.51,6h-75.06v86.6h-49.57Zm119.32-129.6c13.87,0,23.66-1.4,29.1-4.2a17.648,17.648,0,0,0,8.14-7.7,25.765,25.765,0,0,0,3.13-12.5,24.924,24.924,0,0,0-3.1-12.2,16.679,16.679,0,0,0-8.01-7.6c-5.61-2.9-15.4-4.4-29.27-4.4h-69.74v48.6h69.75Zm-311.56-154.7c-28.42,0-62.17-10.2-100.29-30.4l-3.14-1.7,17.38-44.8,4.28,3.6c7.73,6.6,20.47,13.1,37.86,19.5,17.39,6.3,32.49,9.6,44.87,9.6,13.73,0,25.47-2.2,34.9-6.5a35.582,35.582,0,0,0,12.69-9.5,17,17,0,0,0,4.35-11c0-3.3-1.08-8.1-10.39-11.2-5.25-2-15.96-3.9-32-5.7l-24.02-2.5a328.83,328.83,0,0,1-34.09-4.8,85.075,85.075,0,0,1-20.48-7.5,55.915,55.915,0,0,1-23.23-22.9,63.775,63.775,0,0,1-7.35-31.1c0-18.8,6.39-34.8,18.98-47.4,16.35-16.1,41.26-24.3,74.07-24.3a180.2,180.2,0,0,1,44.48,6.1c15.74,4,34.12,12.9,54.61,26.4l3.07,2.1-22.64,41.4-3.76-3.4c-19.41-17.6-44.53-27.3-74.69-28.7h-1.35a97.246,97.246,0,0,0-27.34,3.9,34.825,34.825,0,0,0-14.41,8.4,15.657,15.657,0,0,0-4.9,11c0,3.7,1.38,9.1,13.29,12.3,4.82,1.4,15.52,2.9,31.86,4.6l24.69,2.5a204.593,204.593,0,0,1,35.53,6.7,82.348,82.348,0,0,1,24.5,11.8A57.468,57.468,0,0,1,1934,12533a68.638,68.638,0,0,1-8.49,70.7c-9.04,11.3-23.06,19.7-41.7,25.1a164.116,164.116,0,0,1-43.47,5.8h-1.11Zm354.49-3.7v-93.1H2073.6v93.1h-49.56v-221.1h49.57v84.9h120.12v-84.9h49.56v221.1h-49.57Z" transform="translate(-1710 -12404)"/>
</svg>
