<svg xmlns="http://www.w3.org/2000/svg" width="303.86" height="52.1" viewBox="0 0 607.72 104.2">
  <defs>
    <style>
      .cls-1 {
        fill: #6e31ff;
        fill-rule: evenodd;
      }
    </style>
  </defs>
  <path id="パス_1134" data-name="パス 1134" class="cls-1" d="M1416.34,12840.4a69.772,69.772,0,0,0-21.73-10.9l-6.39,11.2a69.9,69.9,0,0,1,21.73,10.9Zm41.88,27.4-8.84-10.7c-18.82,27.3-38.64,42-66.87,53.6l5.94,10.8c0.45,0.9,1.68,3,2.8,3,0.45,0,.67-0.5,1.12-2a2.089,2.089,0,0,1,.89-1.3c10.2-4.9,23.08-11.3,38.42-24.2A136.983,136.983,0,0,0,1458.22,12867.8Zm-53.42-1.2a66.971,66.971,0,0,0-22.29-11.6l-6.38,11.2a80.189,80.189,0,0,1,21.73,10.9Zm137.09,54v-62.5h-56.9v9.6h46.15v14.8h-45.25v9.7h45.25v14.8h-46.82v9.6h46.82v4h10.75Zm76.05-47.6a67.7,67.7,0,0,0-7.62-18.2l-9.97,3.8a71.831,71.831,0,0,1,7.95,18.2Zm29.45-12c0-.8-0.78-1.6-2.24-2l-10.97-3.4c-4.26,31.7-19.49,47-41.22,57.8l8.96,8c10.75-6.3,33.38-19.4,41.78-53.8,1.12-4.4,1.23-4.8,2.24-5.4C1647.17,12861.8,1647.39,12861.7,1647.39,12861Zm-49.28,17.3a72,72,0,0,0-8.62-18l-10.31,3.9a69.922,69.922,0,0,1,8.52,18.1Zm166.99-46.7a10.475,10.475,0,1,0-10.52,10.8A10.518,10.518,0,0,0,1765.1,12831.6Zm-13.44,17.4-11.08-10.1a6.394,6.394,0,0,1-3.7,1.8h-63.39v13h59.69a94.14,94.14,0,0,1-14,27.4c-13.66,18.5-29.56,25.9-37.18,29.4l12.21,9.8c7.73-4.2,21.17-11.7,33.15-27.3,10.64-13.8,15.46-26.5,19.71-37.8A14.65,14.65,0,0,1,1751.66,12849Zm9.08-17.4a6.218,6.218,0,0,1-6.16,6.4,6.346,6.346,0,0,1-6.16-6.4,6.229,6.229,0,0,1,6.16-6.2A6.159,6.159,0,0,1,1760.74,12831.6Zm101.02,91.7v-26.7h-54.77v-3.9h46.48v-22.4h-60.03v54.9h13.55v-4.6h41.89v2.7h12.88Zm9.52-78.2v-10.2h-30.02a19.755,19.755,0,0,1,1.24-2c2.01-1.3,2.46-1.5,2.46-1.9,0-.8-1.68-1.3-2.13-1.4l-12.54-2.9a42.329,42.329,0,0,1-6.95,13.2v-5.3h-24.75c0.45-.7.56-0.8,2.13-1.6a1.164,1.164,0,0,0,.78-1.1c0-.8-1.56-1.3-2.01-1.4l-11.54-2.7c-3.02,6.1-7.28,13.9-14.89,21l10.52,6.2a81.442,81.442,0,0,0,8.63-10.4h4.37a30.96,30.96,0,0,1,2.35,10.3l12.99-1.3a48.023,48.023,0,0,0-2.46-9h9.74a20.885,20.885,0,0,1-3.14,2.9l6.61,3.7-6.61-.2v5.7h-39.87v22.2h12.99v-12.5h68.66v12.5h13.22v-22.2h-39.43c0-1.5,0-1.8,1.01-2.5,0.78-.7.9-0.9,0.9-1.4,0-1.1-1.68-1.2-2.8-1.3,1.68-2.2,2.57-3.4,4.59-6.4h4.14a26.944,26.944,0,0,1,2.13,9.4l12.77-.9a31.428,31.428,0,0,0-1.91-8.5h18.82Zm-30.24,39.2h-34.05v-5.4h34.05v5.4Zm7.84,27h-41.89v-5.7h41.89v5.7Zm134.96,9.9v-10.4h-23.41v-10.7h19.83V12890h-19.83v-10.4h20.95v-48h-53.43v48h20.83v10.4h-18.92v10.1h18.92v10.7h-31.47v10.4h66.53Zm-13.78-70.5h-9.63v-9h9.63v9Zm0,19.4h-9.63v-10h9.63v10Zm-21.28-19.4h-9.52v-9h9.52v9Zm0,19.4h-9.52v-10h9.52v10Zm-25.87,27.4v-9.7c-5.26,1.7-7.84,2.5-11.98,3.5v-18.4h9.52v-11h-9.52v-18.1h11.31v-10.1h-34.61v10.1h11.2v18.1h-9.52v11h9.52v22a120.041,120.041,0,0,1-13.55,3.7l2.13,10.8c0.33,1.5.67,2.1,1.12,2.1s1.68-1.8,1.9-2c0.9-.7,11.09-3.9,13.22-4.7C1910.14,12902.4,1916.53,12900.1,1922.91,12897.5Z" transform="translate(-1376.12 -12821)"/>
</svg>
