<svg xmlns="http://www.w3.org/2000/svg" width="1605" height="664.75" viewBox="0 0 1605 664.75">
  <defs>
     <mask id="mask">
      <rect fill="#000000" x="0" y="0" width="400" height="300"></rect>
    </mask>
  </defs>
  <path filter="url(#mask)" id="パス_1057" data-name="パス 1057" class="cls-1" d="M2486.67,3402.75c-34.61,0-75.62-12.43-121.82-36.94l-6.28-3.32,23.5-60.6,8.57,7.25c8.99,7.61,23.95,15.27,44.46,22.78s38.27,11.33,52.75,11.33c16.01,0,29.65-2.53,40.54-7.52a39.959,39.959,0,0,0,14.13-10.49,17.318,17.318,0,0,0,4.46-11.25c0-2.13,0-6.85-10.28-10.28l-0.35-.12c-4.01-1.54-13.75-3.94-37.4-6.64l-28.8-2.99a410.391,410.391,0,0,1-41.18-5.72l-0.3-.07a105.846,105.846,0,0,1-25.15-9.33,69.778,69.778,0,0,1-29.21-28.79,79.561,79.561,0,0,1-9.21-38.85c0-23.42,7.98-43.37,23.72-59.11,20.25-19.98,50.91-30.09,91.15-30.09a218.5,218.5,0,0,1,54.2,7.4c19.19,4.93,41.58,15.76,66.46,32.17l6.14,4.05-30.52,55.88-7.53-6.83c-22.69-20.59-52.13-31.88-87.49-33.55-0.54-.01-1.08-0.01-1.61-0.01a113.686,113.686,0,0,0-31.9,4.57,37.436,37.436,0,0,0-15.95,9.27,15.373,15.373,0,0,0-4.92,10.94c0,2.29,0,7.98,13.58,11.63,3.95,1.15,13.54,2.98,37.72,5.4l29.63,3a250.634,250.634,0,0,1,43.17,8.13,102.9,102.9,0,0,1,30.38,14.66l0.25,0.18a71.588,71.588,0,0,1,21.75,27.46,85.546,85.546,0,0,1-10.6,88.14c-11.27,14.02-28.64,24.5-51.65,31.19a202.685,202.685,0,0,1-53.04,7.07h-1.37Zm-334.56,0c-41.57,0-73.9-6.96-96.09-20.7a67.588,67.588,0,0,1-28.1-35.32c-5-13.68-7.56-30.25-7.56-49.1V3126.5h65.88v155.37c0,14.04.8,24.36,2.38,30.69a29.264,29.264,0,0,0,7.68,13.94c11.11,11.1,30.65,16.75,58.06,16.75s46.96-5.65,58.1-16.78a28.991,28.991,0,0,0,7.61-13.79c1.62-6.45,2.42-16.77,2.42-30.8V3126.5h61.38l-0.01,171.12c0,28.96-5.14,50.34-15.71,65.36C2248.82,3389.77,2210.88,3402.75,2152.11,3402.75Zm17.62-384c-41.57,0-73.9-6.97-96.08-20.7a67.591,67.591,0,0,1-28.11-35.33c-5-13.67-7.56-30.24-7.56-49.09V2742.5h65.88v155.38c0,14.03.8,24.35,2.39,30.68a29.247,29.247,0,0,0,7.67,13.94c11.11,11.11,30.66,16.75,58.07,16.75s46.95-5.64,58.09-16.78a29.009,29.009,0,0,0,7.62-13.79c1.61-6.45,2.41-16.77,2.41-30.8V2742.51h61.38v171.12c0,28.95-5.14,50.33-15.71,65.35C2266.45,3005.77,2228.5,3018.75,2169.73,3018.75Zm-358.24,0c-45.4,0-82.06-12.84-108.98-38.18a139.5,139.5,0,0,1-33.08-49.38,145.213,145.213,0,0,1,10.74-127.49c25.62-42.79,69.66-64.92,130.85-65.7,46,0,82.92,12.84,109.84,38.17,28.54,26.69,43.01,61.59,43.01,103.7a137,137,0,0,1-20.7,72.86C1916.52,2996.51,1872.21,3018.75,1811.49,3018.75Zm-0.03-221.63c-23.46.01-42.34,6.49-57.73,19.8-18.33,15.82-27.23,35.91-27.23,61.46,0,25.51,8.89,45.48,27.18,61.03,15.44,13.36,34.46,19.84,58.19,19.84,23.48,0,42.37-6.48,57.76-19.8a75.114,75.114,0,0,0,20.72-28.5,79.625,79.625,0,0,0,6.52-31.47c0-26.74-8.88-47.18-27.14-62.47C1854.28,2804.05,1834.67,2797.36,1811.46,2797.12Zm-308.62,217.16q-1.815,0-3.63-.03H1331.26V2742.5h166.25c17.33,0,30.86,1.31,41.36,4a72.926,72.926,0,0,1,28.58,14.31c16.37,13.26,24.68,32.64,24.68,57.57,0,22.88-9.75,40.72-29.01,53.24,24.75,12.95,37.26,33.45,37.26,61.13,0,25.64-9.05,46.13-26.9,60.91a82.491,82.491,0,0,1-31.59,16.02A168.252,168.252,0,0,1,1502.84,3014.28ZM1487,2956.25c20.78,0,30.83-3.45,35.6-6.34l0.22-.13c7.2-4.06,10.56-10.54,10.56-20.4,0-9.93-3.4-16.56-10.69-20.86-4.73-2.72-14.83-6.02-35.69-6.02h-89.88v53.75H1487Zm3.37-112.13c17.25,0,25.09-2.75,28.63-5.06,3.02-2.09,7.25-6.21,7.25-16.56,0-11.87-5.1-15.3-6.78-16.42-3.78-2.55-11.9-5.58-29.1-5.58h-93.25v43.62h93.25Zm969.23,170.13V2800.5h-99v-58h263.87v58h-98.99v213.75H2459.6Zm-1266.02,0L1160.95,2949H1050.84l-32.63,65.25H955L1080.91,2742.5h54.42l129.09,271.75h-70.84ZM1073.2,2898.13l66.22-.01-32.84-65.4Z" transform="translate(-955 -2738)"/>
</svg>
