<svg xmlns="http://www.w3.org/2000/svg" width="191.09" height="24.656" viewBox="0 0 191.09 24.656">
  <defs>
    <style>
      .cls-1 {
        fill: #fff;
        fill-rule: evenodd;
      }
    </style>
  </defs>
  <path id="パス_1154" data-name="パス 1154" class="cls-1" d="M2239.79,139.839v-2.184h-1.57v-3.247h-8.68v-1.065h6.86V128.19h-6.86v-0.978h10.14V124.8h-10.14V124.27a0.293,0.293,0,0,1,.17-0.252c0.25-.2.31-0.222,0.31-0.39a0.34,0.34,0,0,0-.34-0.252l-3.3-.421V124.8h-10.17v2.408h10.17v0.978h-6.89v5.153h6.89v1.065h-8.54v2.182h8.54v1.065h-10.17v2.184h10.17v1.2h-8.54v2.185h8.54v0.839a0.706,0.706,0,0,1-.87.644c-0.48,0-1.26-.084-1.99-0.14l1.4,3.052c3.92-.028,4.62-0.756,4.62-2.379v-2.016h5.74v0.754h2.94v-4.143h1.57Zm-6.27-8.4h-3.98v-1.345h3.98v1.345Zm-7.14,0h-4.04v-1.345h4.04v1.345Zm8.9,6.216h-5.74V136.59h5.74v1.065Zm0,3.388h-5.74v-1.2h5.74v1.2Zm20.33,3.276V131.131h-10.14v16.128h2.97V141.6h4.14v2.043a0.638,0.638,0,0,1-.78.7,13.22,13.22,0,0,1-1.85-.168l1.18,3.191C2253.56,147.371,2255.61,146.979,2255.61,144.319Zm-3.03-9.184h-4.14V133.6h4.14v1.54Zm0,4h-4.14V137.6h4.14v1.54Zm15.57-9.745v-2.576h-6.38c0.19-.251,1.03-1.678,1.12-1.735a5.134,5.134,0,0,1,.5-0.167,0.265,0.265,0,0,0,.23-0.252,0.31,0.31,0,0,0-.2-0.281l-3.56-1.036a17.526,17.526,0,0,1-1.9,3.471h-5.49l1.04-.5a34.948,34.948,0,0,0-2.3-3.108l-3.05,1.344a25.023,25.023,0,0,1,1.74,2.267h-5.97v2.576h24.22Zm-0.95,1.766a0.344,0.344,0,0,0-.34-0.252l-3.47-.253v12.517c0,0.755-.28.979-1.26,0.979-0.59,0-1.09-.055-1.68-0.111l1.49,3.136c3.47-.03,4.7-0.365,4.7-3.109v-12.1a1.3,1.3,0,0,1,.39-0.476A0.617,0.617,0,0,0,2267.2,131.16Zm-5.82.419a0.347,0.347,0,0,0-.37-0.308l-3.33-.168v11.284h3.02V132.336a0.71,0.71,0,0,1,.45-0.419A0.434,0.434,0,0,0,2261.38,131.579Zm35.98,1.877a21.5,21.5,0,0,1-5.07-2.689c0.78-.784,1.57-1.6,2.29-2.435a0.815,0.815,0,0,1,.79-0.31c0.14,0,.36,0,0.36-0.222a0.785,0.785,0,0,0-.59-0.5l-2.12-1.12a24.523,24.523,0,0,1-2.69,2.882,5.73,5.73,0,0,1-.59-0.671c0.39-.449,2.1-2.435,2.46-2.856,0.09-.028.56-0.084,0.65-0.112a0.182,0.182,0,0,0,.22-0.195,0.873,0.873,0,0,0-.56-0.533l-2.18-1.091a19.917,19.917,0,0,1-2.16,2.436,13.159,13.159,0,0,1-1.2-2.66l-2.83.894a17.768,17.768,0,0,0,3.61,5.992h-7.14a18.121,18.121,0,0,0,3.19-5.095l-0.92-1.12h-8.4v2.576h5.04a10.786,10.786,0,0,1-1.71,2.408,14.125,14.125,0,0,0-2.69-2.016l-2.12,2.127a12.972,12.972,0,0,1,2.66,1.989,23.372,23.372,0,0,1-5.18,3.221l2.85,2.07a19.687,19.687,0,0,0,3-1.959v6.775h3.55l-1.68.5a23.128,23.128,0,0,1,1.1,2.239h-6.81v2.745h23.05v-2.745h-6.95c0.25-.475.45-0.922,0.67-1.427,0.34-.084.65-0.14,0.65-0.42a0.42,0.42,0,0,0-.42-0.392l-2.16-.5h4.37v-7.2h-14.84a22.825,22.825,0,0,0,2.55-2.435v1.315h9.69v-1.2a21.26,21.26,0,0,0,5.65,4.146Zm-8.85,5.374h-8.99v-2.379h8.99v2.379Zm-1.96,2.408a11.318,11.318,0,0,1-1.26,2.744h-4.12l1.35-.334a9.285,9.285,0,0,0-1.12-2.41h5.15Zm24.16-13.522a12.527,12.527,0,0,1-3.69-3.138,0.3,0.3,0,0,0,.11-0.224,0.665,0.665,0,0,0-.51-0.5l-2.38-.534a12.939,12.939,0,0,1-5.15,5.881l2.1,2.072a3.815,3.815,0,0,0,.48-0.5v1.819h2.29v1.653h-3.44v2.884h3.44v6.189c-1.34.111-2.77,0.252-4.14,0.307l0.22,2.913c0.03,0.251.06,0.755,0.37,0.755a7.321,7.321,0,0,0,.89-0.755c0.12-.055,1.82-0.338,2.1-0.393,3.9-.671,5.32-0.981,6.25-1.2l0.22-2.605a22.974,22.974,0,0,1-3.02.616v-5.824h2.71v-2.884h-2.71v-1.653h2.18V129.7Zm14.25,15.819c-3.27-1.819-5.74-4.311-6.44-5.741v-2.63h5.46v-2.717h-1.54v-8.372h-11.42v2.688h8.37v1.513h-7.11v2.575h7.11v1.6h-8.9v2.717h5.04v4.451a16.355,16.355,0,0,1-5.21,2.464l0.48,2.408a0.788,0.788,0,0,0,.44.7,0.6,0.6,0,0,0,.34-0.418,1.463,1.463,0,0,1,.98-0.672,26.947,26.947,0,0,0,2.97-1.57v0.841a0.715,0.715,0,0,1-.9.784c-0.81,0-1.45-.084-1.82-0.111l1.21,3.163c3.52-.057,4.5-0.279,4.5-2.38v-2.939a14.446,14.446,0,0,0,4.4,4.031Zm-14.08-4.676c0-.029,0-0.308-0.62-0.448l-2.21-.533a12.1,12.1,0,0,1-1.09,3.978l2.44,0.559a14.608,14.608,0,0,0,.84-3.218A0.759,0.759,0,0,0,2310.88,138.859Zm-2.35-9.155h-5.49a20.679,20.679,0,0,0,2.46-2.858A17.979,17.979,0,0,0,2308.53,129.7Zm15.57,7.643a0.493,0.493,0,0,0-.4-0.447l-2.32-1.233a11.15,11.15,0,0,1-1.96,2.884l2.32,1.512a13.415,13.415,0,0,0,1.71-2.464C2323.76,137.571,2324.1,137.542,2324.1,137.347Zm-8.85,1.821a15.061,15.061,0,0,0-2.3-3.3l-2.29,1.372a14.6,14.6,0,0,1,2.1,3.219Zm-11.51,3.024a16.762,16.762,0,0,0-1.15-4.4l-2.41.868a28.1,28.1,0,0,1,1.21,4.2Zm47.82-5.264v-5.713h-5.74c0.87-1.008,1.68-2.073,2.08-2.631a0.577,0.577,0,0,1,.42-0.168,0.312,0.312,0,0,0,.33-0.226,0.858,0.858,0,0,0-.56-0.447l-2.83-.98a16.416,16.416,0,0,1-2.21,4.452h-2.66l1.01-.869a13.908,13.908,0,0,0-2.1-3.05,83.043,83.043,0,0,0,8.34-.952,8.336,8.336,0,0,1,1.15-.2c0.11,0,.59.113,0.7,0.113a0.175,0.175,0,0,0,.2-0.168,1.486,1.486,0,0,0-.45-0.729l-2.1-2.129a55.11,55.11,0,0,1-13.3,1.709c-1.74,0-2.8-.084-3.67-0.139l1.26,2.715c0.56,0.029,1.12.029,1.63,0.029L2330.87,129a8.514,8.514,0,0,1,1.79,2.211h-4.14v5.769h2.86v-3.192h17.33v3.136h2.85Zm-0.44,7.783a24.256,24.256,0,0,1-8.21-2.017,19.181,19.181,0,0,0,4.96-5.71l-1.4-1.486h-13.81v2.633h3.14l-1.51,1.372a16.591,16.591,0,0,0,3.22,3.22,22.444,22.444,0,0,1-9.02,2.072l1.51,2.716a22.426,22.426,0,0,0,5.27-1.007,25.455,25.455,0,0,0,4.93-2.045,23.89,23.89,0,0,0,9.66,2.912Zm-12.55-13.5h-3.83l0.81-.7a16.427,16.427,0,0,0-2.21-2.966c1.56,0,2.82-.029,5.2-0.2l-1.76,1.233A7.362,7.362,0,0,1,2338.57,131.215Zm4.71,6.916a13.142,13.142,0,0,1-3.14,3.052,13.856,13.856,0,0,1-3.28-3.052h6.42Zm36.84-5.656v-3.108h-3.24v-4.816a0.653,0.653,0,0,1,.3-0.42,0.549,0.549,0,0,0,.28-0.363c0-.224-0.25-0.308-0.7-0.336l-3.33-.225v6.16h-9.6v3.108h9.6v10.613c0,1.176-.39,1.288-1.23,1.288-0.28,0-1.51-.112-1.76-0.141l1.17,3.388h2.3c1.93,0,2.97-.951,2.97-3.023V132.475h3.24Zm-8.7,7.475a30.677,30.677,0,0,0-3.39-5.879L2364.95,136a20.48,20.48,0,0,1,3.36,5.685Zm-6.67-15.2a0.867,0.867,0,0,0-.7-0.533l-3.13-1.036a24.5,24.5,0,0,1-6.02,10.724l2.66,2.268a10.968,10.968,0,0,0,1.28-1.624v12.908h3.31V130.319a0.516,0.516,0,0,1,.31-0.336,0.408,0.408,0,0,0,.28-0.336,0.85,0.85,0,0,0-.65-0.5,29.574,29.574,0,0,0,1.82-3.918,0.466,0.466,0,0,1,.45-0.2C2364.64,124.972,2364.75,124.916,2364.75,124.748Zm42.56,15.764V128.051h-9.66V124.72a0.623,0.623,0,0,1,.39-0.421,0.541,0.541,0,0,0,.31-0.392,0.374,0.374,0,0,0-.42-0.307l-3.5-.31v4.761h-9.6v12.572h3.22v-1.231h6.38v7.951h3.22v-7.951h6.44v1.12h3.22Zm-3.22-4.144h-6.44V131.1h6.44v5.265Zm-9.66,0h-6.38V131.1h6.38v5.265Z" transform="translate(-2216.22 -122.969)"/>
</svg>
