<svg xmlns="http://www.w3.org/2000/svg" width="1398" height="280.75" viewBox="0 0 1398 280.75">
  <defs>
    <style>
      .cls-1 {
        fill: #e9e9ea;
        fill-rule: evenodd;
      }
    </style>
  </defs>
  <path id="パス_1059" data-name="パス 1059" class="cls-1" d="M1626.49,6486.75c-45.4,0-82.07-12.85-108.98-38.17a139.651,139.651,0,0,1-33.09-49.39,145.268,145.268,0,0,1,10.75-127.49c25.61-42.79,69.65-64.91,130.84-65.7,46,0,82.92,12.84,109.84,38.18,28.53,26.69,43.01,61.58,43.01,103.7a136.967,136.967,0,0,1-20.7,72.85C1731.51,6464.52,1687.2,6486.75,1626.49,6486.75Zm-0.04-221.62c-23.46,0-42.34,6.48-57.72,19.79-18.33,15.82-27.24,35.92-27.24,61.46,0,25.51,8.89,45.48,27.18,61.03,15.44,13.37,34.46,19.84,58.19,19.84,23.48,0,42.38-6.48,57.76-19.8a75.037,75.037,0,0,0,20.72-28.5,79.625,79.625,0,0,0,6.52-31.47c0-26.74-8.87-47.18-27.13-62.47C1669.27,6272.05,1649.66,6265.36,1626.45,6265.13Zm832.01,217.12V6268.5h-99v-58h263.87v58l-99,.01v213.74h-65.87Zm-215.21,0-161.53-163.63v163.63h-61.38V6210.5h56.35l157.03,159.82V6210.5h61.37v271.75h-51.84Zm-385.39,0-0.01-271.75h65.88v271.75h-65.87Zm-695.86,0V6210.5h152.75c19.3,0,34.19,1.3,45.52,3.96a81.807,81.807,0,0,1,30.86,14.1l0.23,0.18a75.809,75.809,0,0,1,21.81,28.11l0.09,0.19a94.969,94.969,0,0,1,7.36,37.15,85.214,85.214,0,0,1-14.89,49.94,68.624,68.624,0,0,1-34.1,26.84c-13.58,4.98-32.21,7.4-56.88,7.4h-86.88v103.88H1162Zm146.37-161.88c20.09,0,29.28-2.57,33.46-4.73l0.34-.16a17.162,17.162,0,0,0,8.04-7.66,27.448,27.448,0,0,0,3.41-13.5,26.736,26.736,0,0,0-3.31-13.08l-0.1-.18a17.114,17.114,0,0,0-8.04-7.66l-0.34-.17c-4.18-2.16-13.37-4.73-33.45-4.73h-80.5l-0.01,51.87h80.5Z" transform="translate(-1162 -6206)"/>
</svg>
