<svg xmlns="http://www.w3.org/2000/svg" width="69.996" height="40.149" viewBox="0 0 140.781 80.75">
  <defs>
    <style>
      .cls-1 {
        fill: #6e31ff;
        fill-rule: evenodd;
      }
    </style>
  </defs>
  <path id="パス_1130" data-name="パス 1130" class="cls-1" d="M641.008,6863.94a3.263,3.263,0,0,1,1.68-.34H653.44a1.335,1.335,0,0,1,1.344,1.34v75.71a1.335,1.335,0,0,1-1.344,1.35h-10.3a1.335,1.335,0,0,1-1.344-1.35v-63.5a0.651,0.651,0,0,0-.224-0.45,0.384,0.384,0,0,0-.448-0.11l-10.192,2.8-0.448.11a1.041,1.041,0,0,1-1.12-1.23l-0.336-7.5a1.6,1.6,0,0,1,.9-1.57Zm48.5,79.29q-10.529,0-16.856-6.33t-6.328-16.85v-34.5q0-10.53,6.328-16.8t16.856-6.27q10.639,0,16.968,6.27t6.328,16.8v34.5q0,10.53-6.328,16.85T689.5,6943.23Zm0-11.31a9.752,9.752,0,0,0,7.5-3.02,11.419,11.419,0,0,0,2.8-8.07v-35.84a11.542,11.542,0,0,0-2.8-8.17,9.724,9.724,0,0,0-7.5-3.03,9.588,9.588,0,0,0-7.392,3.03,11.542,11.542,0,0,0-2.8,8.17v35.84a11.419,11.419,0,0,0,2.8,8.07A9.615,9.615,0,0,0,689.5,6931.92Zm57.008,11.31q-10.528,0-16.856-6.33t-6.328-16.85v-34.5q0-10.53,6.328-16.8t16.856-6.27q10.64,0,16.968,6.27t6.328,16.8v34.5q0,10.53-6.328,16.85T746.512,6943.23Zm0-11.31a9.752,9.752,0,0,0,7.5-3.02,11.419,11.419,0,0,0,2.8-8.07v-35.84a11.542,11.542,0,0,0-2.8-8.17,9.724,9.724,0,0,0-7.5-3.03,9.589,9.589,0,0,0-7.392,3.03,11.542,11.542,0,0,0-2.8,8.17v35.84a11.419,11.419,0,0,0,2.8,8.07A9.617,9.617,0,0,0,746.512,6931.92Z" transform="translate(-629.031 -6862.47)"/>
</svg>
