<svg xmlns="http://www.w3.org/2000/svg" width="664.047" height="50.795" viewBox="0 0 1328.094 101.59">
  <defs>
    <style>
      .cls-1 {
        fill: #2b2c34;
        fill-rule: evenodd;
      }
    </style>
  </defs>
  <path id="パス_1125" data-name="パス 1125" class="cls-1" d="M759.264,5672.11v-10.53h-16.24v-10.75h12.32v-9.63h-12.32v-10.53h12.32v-9.63h-12.32v-9.07h16.24v-10.53H745.04a85.994,85.994,0,0,0,5.824-10.98c0.672-1,.9-1,2.912-1.56a1.114,1.114,0,0,0,.9-1.12c0-.68-1.12-1.35-1.456-1.46l-12.32-4.59a100.341,100.341,0,0,1-10.416,19.71h-8.624c1.456-2.58,4.592-8.4,6.048-11.65a2.424,2.424,0,0,1,1.9-1.45,1.556,1.556,0,0,0,1.456-1.35c0-.78-1.232-1.34-1.568-1.46l-11.648-4.36a113.232,113.232,0,0,1-19.152,33.82v-2.24h-29.12v9.18H698.9v-0.89l7.28,5.93a48.979,48.979,0,0,0,4.256-6.04v55.55h11.2v-4.37h37.632ZM731.6,5641.2h-9.968v-10.53H731.6v10.53Zm0-20.16h-9.968v-9.07H731.6v9.07Zm0,40.54h-9.968v-10.75H731.6v10.75Zm-31.7,11.88v-31.7H667.648v35.17h10.976v-7.39h10.3v3.92H699.9Zm-10.976-12.77h-10.3v-9.97h10.3v9.97Zm9.632-68.55v-9.29H670.784v9.29H698.56Zm5.264,15.35v-9.86H664.4v9.86h39.424Zm-4.928,28.78v-9.18h-29.12v9.18H698.9Zm174.384-18.26a52.269,52.269,0,0,0-9.3-8.51l-4.7,5.38a51.915,51.915,0,0,1,9.3,8.51Zm-5.376-19.04v-12.99c-21.168,6.5-55.888,9.19-80.08,8.96l1.9,12.55c11.2-1.57,27.664-2.91,42.672-4.15a83.629,83.629,0,0,0-14.784,17.03c-4.816,7.28-7.616,14.78-7.616,22.28a28.122,28.122,0,0,0,8.288,20.17c9.072,9.07,21.616,11.42,27.552,12.43l4.368-13.67c-4.592-.22-12.432-0.56-19.712-5.71-3.136-2.24-8.064-6.83-8.064-14.56,0-8.51,5.376-18.59,13.664-26.88C850.32,5600.09,862.64,5599.31,867.9,5598.97Zm-3.7,29.24a48.927,48.927,0,0,0-9.3-8.63l-4.592,5.38a49.855,49.855,0,0,1,9.184,8.62Zm107.52,20.83c0-11.54-4.592-19.38-7.392-24.3l-10.416,5.48c1.456,2.47,5.04,9.08,5.04,16.69,0,13.55-11.312,17.47-20.5,17.47-2.912,0-7.28-.33-10.528-3.36-2.912-2.8-3.584-6.72-3.584-9.85,0-3.48.9-7.51,1.344-10.31,3.024,0.23,5.712.56,9.968,0.56,5.488,0,8.96-.33,10.64-0.45l2.912-12.31a73.163,73.163,0,0,1-13.216.89,42.628,42.628,0,0,1-7.392-.34c2.016-7.16,3.36-11.2,4.7-15,9.184,1.01,12.656,1.01,16.464.89l2.576-12.09c-6.5.11-9.072,0.11-14.672-.11,1.568-3.81,3.92-9.75,5.936-13.11,1.792-.56,3.36-0.22,3.36-1.57,0-1.23-1.68-1.79-2.576-2.12l-12.88-4.82c-1.568,5.71-3.248,10.41-6.608,20.16a85.336,85.336,0,0,1-19.04-5.6l-1.008,12.99c6.384,1.68,9.3,2.24,16.24,3.58-2.464,7.28-3.472,10.98-4.592,14.9a79.583,79.583,0,0,1-15.12-4.26l-1.9,12.32a87.414,87.414,0,0,0,14.112,3.7,76.941,76.941,0,0,0-1.344,12.66c0,20.61,16.24,24.41,27.1,24.41C953.472,5676.14,971.728,5668.42,971.728,5649.04Zm116.592-31.03a52.035,52.035,0,0,0-9.3-8.51l-4.7,5.38a52.077,52.077,0,0,1,9.3,8.51Zm-5.38-19.04v-12.99c-21.16,6.5-55.88,9.19-80.08,8.96l1.91,12.55c11.2-1.57,27.66-2.91,42.67-4.15a83.51,83.51,0,0,0-14.78,17.03c-4.82,7.28-7.62,14.78-7.62,22.28a28.107,28.107,0,0,0,8.29,20.17c9.07,9.07,21.61,11.42,27.55,12.43l4.37-13.67c-4.59-.22-12.43-0.56-19.71-5.71-3.14-2.24-8.07-6.83-8.07-14.56,0-8.51,5.38-18.59,13.67-26.88C1065.36,5600.09,1077.68,5599.31,1082.94,5598.97Zm-3.69,29.24a48.831,48.831,0,0,0-9.3-8.63l-4.59,5.38a49.622,49.622,0,0,1,9.18,8.62Zm106.29-13.78-2.02-11.2a128.24,128.24,0,0,1-20.38,10.08c-1.8-3.92-2.24-5.04-3.7-8.51,5.15-1.68,11.31-3.59,17.7-7.62l-2.47-10.86a107.508,107.508,0,0,1-19.15,8.62c-1.46-4.03-3.36-9.52-3.36-10.3,0-.34.11-0.67,1.01-1.57a2.08,2.08,0,0,0,.89-1.45c0-1.35-2.8-1.01-3.69-.9l-12.77,1.46c1.79,5.26,3.02,8.84,5.6,15.79a138.753,138.753,0,0,1-26.1,2.24l3.48,10.75c9.07-.11,15.34-0.78,26.65-3.02,1.12,2.57,2.35,5.37,4.03,9.18-12.09,2.57-19.37,3.25-35.28,3.36l3.92,11.31c14.56-.22,24.2-2.01,35.96-4.93,2.12,4.15,3.13,6.16,5.82,10.98a85.444,85.444,0,0,0-16.02-1.79c-12.65,0-24.75,4.14-24.75,19.49,0,14.78,13.89,21.16,34.05,21.16a112.74,112.74,0,0,0,17.7-1.34l1.12-13.22a81.45,81.45,0,0,1-22.4,3.03c-3.81,0-18.37,0-18.37-9.52,0-6.05,6.16-9.19,13.55-9.19,12.88,0,23.97,5.6,29.34,8.52l6.84-8.52c-4.26-5.26-7.84-10.08-14.79-23.29A83.173,83.173,0,0,0,1185.54,5614.43Zm109.31,28a24.685,24.685,0,0,0-24.87-24.75,89.083,89.083,0,0,0-10.86.67c16.24-16.57,18.14-18.37,24.86-23.97l-5.82-9.07c-10.64,4.15-29.68,5.6-33.94,5.6-3.47,0-9.85-.45-12.54-0.67l2.58,12.54c13.32-.11,19.48-1.23,26.2-2.8-17.92,21.73-29.79,31.7-41.44,40.43l9.41,9.86c6.27-6.38,16.13-16.35,23.07-20.05a30.506,30.506,0,0,1,12.77-2.8c7.28,0,18.15,3.59,18.15,14.67,0,7.96-4.93,12.66-7.4,14.9-3.13-3.92-10.41-13.1-22.06-13.1-10.98,0-16.46,8.51-16.46,14.89,0,8.29,7.16,15.35,21.16,15.35C1277.38,5674.13,1294.85,5661.02,1294.85,5642.43Zm-30.24,20.05a31.619,31.619,0,0,1-7.62,1.01c-4.03,0-9.18-1.12-9.18-5.04,0-1.46,1.01-4.71,5.6-4.71C1259.79,5653.74,1263.15,5659.9,1264.61,5662.48Zm159.26-12.43c-7.17-6.72-17.36-16.36-43.45-44.92-2.24-2.46-6.05-6.6-13.67-6.6-4.93,0-8.4,1.56-16.69,11.2-7.72,8.96-15.79,18.25-24.08,26.21l11.43,9.85c5.6-6.16,11.87-14.11,19.15-23.18,6.05-7.62,7.28-9.19,10.53-9.19s5.04,1.91,8.62,6.16c12.99,15.35,22.29,25.99,38.64,41.56Zm109.2-49.62-10.3-10.41c-0.67.78-2.47,2.46-3.92,2.46h-75.38v12.1h70.11c-5.93,10.19-13.44,17.8-20.38,24.19l10.42,8.84C1515.82,5625.63,1527.58,5608.49,1533.07,5600.43Zm-38.75,8.85c0-.9-0.34-0.9-2.69-1.01l-13.1-.67c0.89,23.3-4.37,41.1-28,57.46l11.98,7.05c5.94-4.37,24.87-18.37,28.67-50.4,0.23-1.45.68-9.3,0.9-9.52a13.274,13.274,0,0,1,1.68-1.9A1.849,1.849,0,0,0,1494.32,5609.28Zm150.53,7.17v-12.66h-57.57c3.81-7.5,5.15-10.64,6.94-15.01,0.56-1.45.68-1.56,1.8-2.12,1.12-.34,1.45-0.56,1.45-1.35,0-1.23-2.13-2.02-2.8-2.24l-12.77-4.59c-6.94,22.96-16.35,38.19-32.92,53.54l13.1,7.28c5.15-5.38,9.63-10.31,17.7-22.85h23.52a61.522,61.522,0,0,1-6.5,28.11c-8.06,16.02-20.5,23.63-26.21,27.1l13.67,8.4c6.16-4.92,18.03-14.22,25.98-31.36,6.61-14.11,6.72-25.2,6.94-32.25h27.67Zm112.22-16.02-10.3-10.41c-0.67.78-2.47,2.46-3.92,2.46h-75.38v12.1h70.11c-5.93,10.19-13.44,17.8-20.38,24.19l10.42,8.84C1739.82,5625.63,1751.58,5608.49,1757.07,5600.43Zm-38.75,8.85c0-.9-0.34-0.9-2.69-1.01l-13.1-.67c0.89,23.3-4.37,41.1-28,57.46l11.98,7.05c5.94-4.37,24.87-18.37,28.67-50.4,0.23-1.45.68-9.3,0.9-9.52a13.274,13.274,0,0,1,1.68-1.9A1.849,1.849,0,0,0,1718.32,5609.28Zm100.58,67.42v-35.84h-35.28v36.74h10.75v-4.37h13.77v3.47h10.76Zm47.93-44.46c0-1.12-2.35-3.14-2.46-3.25l-7.39-6.49c-7.06,8.4-16.8,17.13-34.39,25.19l8.4,8.85c14.9-7.73,23.07-15.01,31.03-22.51a4.051,4.051,0,0,1,2.12-.56C1865.71,5633.47,1866.83,5633.47,1866.83,5632.24Zm-58.8,30.69h-13.66v-12.21h13.66v12.21Zm48.72-45.47c0-1.12-1.57-2.58-1.79-2.81l-7.39-6.38a91.042,91.042,0,0,1-25.54,20.72l8.07,8.29c9.63-5.94,13.32-9.3,22.62-18.03,0.67-.45.78-0.45,2.69-0.68A1.32,1.32,0,0,0,1856.75,5617.46Zm-39.65,18.14v-9.19h-32.59v9.19h32.59Zm60.82-26.99c-12.99-7.06-21.84-15.23-25.31-22.18,0.89-.33,2.01-0.78,2.01-2.02,0-1.34-2.24-1.9-2.68-2.01l-11.88-2.58c-3.58,9.86-10.3,18.15-17.58,24.98v-7.28h-42.67v9.74h40.09a34.927,34.927,0,0,1-6.27,5.04h-28.78v9.3h32.03v-7.73l7.5,5.6c9.75-7.73,16.92-17.81,21.06-23.63a92.313,92.313,0,0,0,23.97,22.4Zm-61.82-16.24v-9.19h-30.58v9.19h30.58Zm60.7,55.88c0-1.23-1.79-3.02-2.35-3.58l-7.39-6.27c-12.88,13.77-26.77,22.74-47.94,29.23l8.62,10.64a133.833,133.833,0,0,0,42.9-26.88c1.79-1.68,2.13-1.9,4.03-1.9C1875.79,5649.49,1876.8,5649.49,1876.8,5648.25Zm115.7-55.55a4.448,4.448,0,0,0-1.01-2.46l-7.73-10.64a131.738,131.738,0,0,1-25.54,8.18l-7.95-.12c0.45,14.67.56,19.16,0.56,25.76,0,33.6-4.37,41.56-9.18,49.96v-4.6h-34.61v-13.77l8.18,6.27a37.117,37.117,0,0,0,7.5-9.63v15.12h10.3v-17.03a46.359,46.359,0,0,0,7.51,7.39l7.61-8.95c-9.52-7.96-12.54-13.67-14.11-16.58h12.55v-9.97h-13.56v-6.72l7.84,4.26a93.617,93.617,0,0,0,6.28-12.55c2.46-.67,2.91-0.78,2.91-1.56,0-1.24-1.57-1.91-1.68-1.91l-9.86-3.36a63.262,63.262,0,0,1-5.49,11.76v-15.57c0-.33.34-0.67,1.35-1.34,1.01-.78,1.23-1.12,1.23-1.57,0-1.12-1.23-1.34-2.8-1.45l-10.08-.56v19.82c-1.34-3.03-2.58-5.38-6.61-11.42l-9.07,3.24v-2.24c0-.44.45-0.67,1.34-1.23,1.01-.78,1.24-1.12,1.24-1.57,0-1.12-1.01-1.45-2.69-1.45l-10.31-.23v90.72h10.42v-6.94h29.79c-1.12,1.12-2.24,2.24-3.36,3.25l11.31,5.93c7.4-7.84,11.32-16.35,14.23-27.66a124.1,124.1,0,0,0,3.36-25.87h8.73v52.3h12.21v-52.3h8.96v-12.43h-29.68c0-3.7,0-10.65-.11-14.34a192.63,192.63,0,0,0,21.95-4.82c1.01-.22,3.14-0.78,3.25-0.78,0.56,0,3.14.67,3.7,0.67A0.929,0.929,0,0,0,1992.5,5592.7Zm-69.78,18.93h-12.66v9.97h9.52a57.591,57.591,0,0,1-12.54,19.93v-45.24a59.487,59.487,0,0,1,6.05,12.32l9.63-3.7v6.72Z" transform="translate(-664.406 -5578.47)"/>
</svg>
