<svg xmlns="http://www.w3.org/2000/svg" width="454.221" height="51.015" viewBox="0 0 908.442 102.03">
  <defs>
    <style>
      .cls-1 {
        fill: #2b2c34;
        fill-rule: evenodd;
      }
    </style>
  </defs>
  <path id="パス_1127" data-name="パス 1127" class="cls-1" d="M761.84,6193.5c-18.592-4.59-33.936-13.44-42.336-24.41,0.784-.23,2.24-0.56,2.24-1.91,0-1.12-1.68-1.45-2.128-1.57l-13.552-3.13c-9.968,16.02-27.216,27.78-45.136,35.06l10.3,9.29a98.586,98.586,0,0,0,15.68-8.4v9.41H738.32v-9.3a120.388,120.388,0,0,0,16.688,6.72Zm-14.56,28.79-6.5-4.71H674.928v11.99h53.424c-3.36,6.83-9.968,18.7-20.832,29.01l13.552,5.93C731.488,6252.53,738.992,6240.32,747.28,6222.29Zm-13.552-26.21H690.384a122.983,122.983,0,0,0,21.28-18.59C718.384,6185.44,723.76,6190.14,733.728,6196.08Zm136.864-4.93v-12.09c-11.424.89-14.9,1.23-30.464,2.12v-11.53c0-.45.112-0.67,0.9-1.35a1.978,1.978,0,0,0,1.008-1.68c0-1.12-.672-1.45-3.248-1.56l-12.432-.79c0.672,8.18.672,14.11,0.784,17.59-23.52,1.12-33.152,1.12-40.768,1.12v12.99c14.224-1.79,31.136-2.8,41.1-3.36l0.224,8.4a14.769,14.769,0,0,0-5.264-.9c-11.424,0-17.584,8.51-17.584,20.83,0,5.49,1.232,11.54,5.824,15.57a14.121,14.121,0,0,0,9.184,3.47,22.212,22.212,0,0,0,6.048-1.12c-2.464,8.18-9.3,14-16.016,18.37l12.544,6.5a77.888,77.888,0,0,0,15.232-20.83c5.04-10.09,5.712-18.37,5.712-21.62a28.824,28.824,0,0,0-3.248-13.66v-15.68C854.688,6191.38,862.08,6191.15,870.592,6191.15Zm-40.768,28.34c0,7.95-5.376,10.41-7.728,10.41-2.576,0-6.16-2.57-6.16-9.29,0-5.94,3.136-9.86,7.616-9.86a5.83,5.83,0,0,1,4.144,1.57C829.488,6214.22,829.824,6217.13,829.824,6219.49Zm152.656-35.84a81.838,81.838,0,0,0-10.864-11.2l-4.816,5.6a74.131,74.131,0,0,1,10.752,11.2Zm-7.28,15.34a91.812,91.812,0,0,0-10.752-11.2l-4.928,5.6a78.234,78.234,0,0,1,10.752,11.2Zm-15.456-24.08c0-1.12-2.016-2.69-2.352-3.02l-9.856-7.96c-9.968,12.21-17.024,18.6-32.816,32.71-6.5,5.82-10.416,9.3-10.416,14.78,0,4.6,4.144,8.4,9.968,13.67,19.04,17.36,28.112,31.02,32.7,37.85l11.312-9.97a245.671,245.671,0,0,0-36.624-37.18,4.985,4.985,0,0,1-1.792-4.14c0-2.35,2.128-4.37,2.8-4.93,23.3-21.17,24.528-22.06,31.7-29.23,1.232-1.12,1.12-1.23,3.36-1.46C958.736,6175.92,959.744,6175.81,959.744,6174.91Zm140.9,34.05v-10.75h-16.02v-14h11.09v-10.42h-64.06c2.01-2.57,2.69-2.91,3.47-3.25,2.58-1,2.58-1,2.58-1.56,0-1.01-1.68-1.46-1.91-1.57l-12.65-3.59a72.163,72.163,0,0,1-20.05,23.64l11.09,5.48a51.7,51.7,0,0,0,6.94-7.05v12.32h-16.24v10.75h16.24v14.11h-12.1v10.42h87.81v-10.42h-12.21v-14.11h16.02Zm-44.35-10.75h-6.61v-14h6.61v14Zm0,24.86h-6.61v-14.11h6.61v14.11Zm17.25-24.86h-6.95v-14h6.95v14Zm0,24.86h-6.95v-14.11h6.95v14.11Zm-34.39-24.86h-6.61v-14h6.61v14Zm0,24.86h-6.61v-14.11h6.61v14.11Zm60.48,30.24a78.289,78.289,0,0,0-15.01-16.24l-8.28,7.06a102.639,102.639,0,0,1,14,17.02Zm-27.21,3.58c-1.01-7.95-5.04-14.89-6.84-17.69l-9.52,3.02a60.08,60.08,0,0,1,5.49,17.7Zm-22.85,2.24a47.668,47.668,0,0,0-4.48-19.93l-9.75,2.46c2.47,6.95,3.03,12.32,3.14,19.83Zm-18.71-14.33c0-.45-0.22-0.9-1.23-1.68l-9.07-6.83a61.286,61.286,0,0,1-16.24,17.58l8.85,7.84a93.374,93.374,0,0,0,14.45-15.23c0.44-.56.56-0.56,2.12-0.67A1.184,1.184,0,0,0,1030.86,6244.8Zm186.48-15.68-0.67-10.87-9.41,2.47v-50.06c0-.45.68-0.9,1.8-1.68a1.371,1.371,0,0,0,.78-1.01c0-.67-0.45-1.12-2.69-1.35l-11.98-1.12v58.24l-29.46,7.62,1.35,10.64,28.11-7.28v26.54h12.09v-29.57Zm-45.47-52.75c0-.67-0.67-1.01-3.02-1.57l-9.41-2.13c-0.56,3.81-1.9,11.43-4.7,17.81l9.07,3.92c3.13-5.94,5.26-14.67,5.6-15.79,0.11-.34.22-0.45,1.34-1.01A2.027,2.027,0,0,0,1171.87,6176.37Zm19.71,9.74a53.249,53.249,0,0,0-11.53-11.87l-7.51,7.73a48.493,48.493,0,0,1,11.54,11.87Zm-0.67,27.1a63.437,63.437,0,0,0-12.65-13.43l-7.4,7.61a62.063,62.063,0,0,1,12.55,13.44Zm-24.3-3.91v-10.31h-15.23v-28.33c0-.56.22-0.68,1.12-1.35a1.61,1.61,0,0,0,.89-1.34c0-.67-0.45-1.35-3.47-1.57l-10.08-.9v33.49h-18.03v10.31h15.9c-2.35,10.3-8.73,22.28-18.37,32.48l10.31,6.04a75.843,75.843,0,0,0,10.19-15.01v28.68h11.54v-36.07a59.188,59.188,0,0,0,8.06,8.85l6.38-8.62c-2.91-2.58-10.52-9.19-14.44-16.35h15.23Zm-29.79-18.93a87.757,87.757,0,0,0-5.72-17.36l-10.52,4.25a66.849,66.849,0,0,1,5.71,16.92Zm193.42,11.65a51.652,51.652,0,0,0-9.3-8.52l-4.7,5.38a52.077,52.077,0,0,1,9.3,8.51Zm-5.38-19.04v-13c-21.16,6.5-55.88,9.19-80.08,8.96l1.91,12.55c11.2-1.57,27.66-2.91,42.67-4.15a83.51,83.51,0,0,0-14.78,17.03c-4.82,7.28-7.62,14.78-7.62,22.28a28.107,28.107,0,0,0,8.29,20.17c9.07,9.07,21.61,11.42,27.55,12.43l4.37-13.67c-4.59-.22-12.43-0.56-19.71-5.71-3.14-2.24-8.07-6.83-8.07-14.56,0-8.51,5.38-18.59,13.67-26.88C1307.28,6184.1,1319.6,6183.31,1324.86,6182.98Zm-3.69,29.23a48.831,48.831,0,0,0-9.3-8.63l-4.59,5.38a49.622,49.622,0,0,1,9.18,8.62Zm128.57-30.91v-7.73h-18.25c1.34-1.79,2.46-3.7,3.02-4.59,1.57-.45,3.03-0.79,3.03-1.68,0-.45,0-1.12-3.81-1.69l-8.85-1.34a30.2,30.2,0,0,1-4.03,9.3H1407.3a46.89,46.89,0,0,0-6.39-9.3l-10.3,2.47c1.45,1.56,2.46,3.02,4.25,6.83h-16.01v7.73h26.21l-1.91,3.69h-17.92v29.68h59.25v-29.68h-28.9l2.36-3.69h31.8Zm2.13,36.62c-9.41.78-24.86,2.02-47.71,2.02-6.72,0-18.03-.45-23.41-3.81-3.13-2.02-3.36-5.27-3.36-7.17v-18.48h-22.62v10.08h10.97v12.1c-6.94,3.13-9.4,4.36-12.88,5.59l3.03,7.85c0.56,1.34,1.12,2.91,2.01,2.91,1.35,0,1.68-1.57,1.91-2.8,4.14-2.69,5.04-3.36,13.44-8.96,4.25,5.6,7.95,10.52,27.21,10.52h18.93v3.48h-65.74v10.08h28.67l-6.72,6.38a60.123,60.123,0,0,1,11.98,11.87l9.41-8.62a112.72,112.72,0,0,0-10.08-9.63h32.48v6.83c0,2.35-.56,3.14-3.36,3.14a62.518,62.518,0,0,1-9.85-.9l4.92,11.98c5.27-.11,20.5-0.22,20.5-8.17v-12.88h18.37v-10.08H1431.6v-3.48h15.57Zm-19.26-24.3H1397.1v-2.8h35.51v2.8Zm0,15.23H1397.1v-2.91h35.51v2.91Zm-56.34-33.49a150.218,150.218,0,0,0-12.77-11.09l-7.5,8.4a110.28,110.28,0,0,1,12.21,10.98Zm56.34,25.87H1397.1v-2.8h35.51v2.8Zm136.75,49.73c-6.05-3.36-19.04-10.87-29.23-29.79a89.241,89.241,0,0,1-10.31-42.56c0-3.59.12-7.84,0.45-11.31h-35.95v13.32h22.62c0.12,4.48.23,6.61,0.56,9.97l-9.85-2.46c-0.9,7.5-2.69,22.17-12.88,38.41a84.769,84.769,0,0,1-27.22,26.77l11.99,8.51c19.37-13.44,31.36-32.59,39.87-58.91a100.1,100.1,0,0,0,13.33,32.71,96.51,96.51,0,0,0,23.85,25.64Z" transform="translate(-660.938 -6162.47)"/>
</svg>
