<svg xmlns="http://www.w3.org/2000/svg" width="685.279" height="49.675" viewBox="0 0 1370.559 99.35">
  <defs>
    <style>
      .cls-1 {
        fill: #2b2c34;
        fill-rule: evenodd;
      }
    </style>
  </defs>
  <path id="パス_1126" data-name="パス 1126" class="cls-1" d="M703.376,5968.7v-35.84H668.1v36.74h10.752v-4.37h13.776v3.47h10.752Zm47.936-44.46c0-1.12-2.352-3.14-2.464-3.25l-7.392-6.5c-7.056,8.4-16.8,17.14-34.384,25.2l8.4,8.85c14.9-7.72,23.072-15,31.024-22.51a4.111,4.111,0,0,1,2.128-.56C750.192,5925.47,751.312,5925.47,751.312,5924.24Zm-58.8,30.69H678.848v-12.21h13.664v12.21Zm48.72-45.47c0-1.12-1.568-2.58-1.792-2.8l-7.392-6.39a90.925,90.925,0,0,1-25.536,20.72l8.064,8.29c9.632-5.94,13.328-9.3,22.624-18.03,0.672-.45.784-0.45,2.688-0.67A1.341,1.341,0,0,0,741.232,5909.46Zm-39.648,18.14v-9.19H668.992v9.19h32.592Zm60.816-26.99c-12.992-7.06-21.84-15.23-25.312-22.18,0.9-.33,2.016-0.78,2.016-2.01,0-1.35-2.24-1.91-2.688-2.02l-11.872-2.58c-3.584,9.86-10.3,18.15-17.584,24.98v-7.28H664.288v9.74h40.1a35.241,35.241,0,0,1-6.272,5.04H669.328v9.3H701.36v-7.73l7.5,5.6c9.744-7.73,16.912-17.81,21.056-23.63a92.366,92.366,0,0,0,23.968,22.4Zm-61.824-16.24v-9.19H670v9.19h30.576Zm60.7,55.88c0-1.23-1.792-3.02-2.352-3.58l-7.392-6.27c-12.88,13.78-26.768,22.73-47.936,29.23l8.624,10.64a133.924,133.924,0,0,0,42.9-26.88c1.792-1.68,2.128-1.9,4.032-1.9C760.272,5941.49,761.28,5941.49,761.28,5940.25Zm115.7-55.55a4.461,4.461,0,0,0-1.008-2.46l-7.728-10.64a131.652,131.652,0,0,1-25.536,8.18l-7.952-.12c0.448,14.68.56,19.15,0.56,25.76,0,33.6-4.368,41.55-9.184,49.95v-4.59H791.52v-13.77l8.176,6.27a37.06,37.06,0,0,0,7.5-9.63v15.12h10.3v-17.03a45.929,45.929,0,0,0,7.5,7.39l7.616-8.96c-9.52-7.95-12.544-13.66-14.112-16.57h12.544v-9.97H817.5v-6.72l7.84,4.26a92.937,92.937,0,0,0,6.272-12.55c2.464-.67,2.912-0.78,2.912-1.56,0-1.24-1.568-1.91-1.68-1.91l-9.856-3.36a63.763,63.763,0,0,1-5.488,11.76v-15.57c0-.33.336-0.67,1.344-1.34,1.008-.78,1.232-1.12,1.232-1.57,0-1.12-1.232-1.34-2.8-1.45l-10.08-.56v19.82c-1.344-3.02-2.576-5.38-6.608-11.42l-9.072,3.24v-2.24c0-.45.448-0.67,1.344-1.23,1.008-.78,1.232-1.12,1.232-1.57,0-1.12-1.008-1.45-2.688-1.45l-10.3-.23v90.72H791.52v-6.94h29.792c-1.12,1.12-2.24,2.24-3.36,3.25l11.312,5.93c7.392-7.84,11.312-16.35,14.224-27.66a123.426,123.426,0,0,0,3.36-25.87h8.736v52.3h12.208v-52.3h8.96v-12.44h-29.68c0-3.69,0-10.63-.112-14.33a193.073,193.073,0,0,0,21.952-4.82c1.008-.22,3.136-0.78,3.248-0.78,0.56,0,3.136.67,3.7,0.67A0.927,0.927,0,0,0,876.976,5884.7ZM807.2,5903.63H794.544v9.97h9.52a57.761,57.761,0,0,1-12.544,19.94v-45.25a59.681,59.681,0,0,1,6.048,12.32l9.632-3.7v6.72Zm182.784,64.85v-41.1H942.608v41.1H955.04v-4.82h22.288v4.82h12.656Zm-12.656-15.68H955.04v-14.45h22.288v14.45Zm16.128-54.66v-10.97H972.512v-8.07a3.921,3.921,0,0,1,1.232-2.01,2.476,2.476,0,0,0,.9-1.68,1.342,1.342,0,0,0-1.568-1.23l-13.216-.56v13.55h-20.5v10.97h20.5v11.09H942.944v10.64H991.1v-10.64H972.512v-11.09h20.944Zm-54.768,25.09a118.679,118.679,0,0,0-7.168-17.58l-8.848,4.59c0.9,1.68,1.792,4.14,2.128,4.93-3.808.44-4.816,0.44-9.184,0.78,5.824-6.49,11.424-13.33,16.688-20.38,1.344-1.68,1.344-1.79,2.912-2.02a1.133,1.133,0,0,0,1.008-1.23,1.509,1.509,0,0,0-.56-1.12l-8.736-5.94c-2.8,4.48-4.7,7.28-10.08,14.56-1.232-1.12-1.68-1.45-3.92-3.36,4.368-5.93,6.5-9.07,9.52-13.77,1.12-1.68,1.12-1.79,3.136-2.47a1.537,1.537,0,0,0,1.12-1.45,1.351,1.351,0,0,0-.56-1.12l-9.52-5.6A118.894,118.894,0,0,1,906.1,5891.2c-1.9-1.34-2.8-2.02-4.7-3.25l-5.936,8.96a76.89,76.89,0,0,1,14.56,11.65c-1.344,1.79-3.472,4.37-6.944,8.29-1.232,0-7.168.22-8.4,0.33l1.568,9.41c0.112,0.79.448,2.58,1.456,2.58,0.448,0,1.68-1.35,2.016-1.46a36.042,36.042,0,0,1,3.92-.67c0.224,0,3.36-.45,6.5-0.9v43.57h10.864v-45.25c4.48-.67,5.264-0.78,6.5-1,0.112,0.33,1.344,4.36,1.344,4.7Zm-1.232,31.7a131.1,131.1,0,0,1-4.368-23.75l-9.408,3.14a138.727,138.727,0,0,0,3.92,23.63ZM909.008,5936c0-.22-0.336-0.9-1.9-1.12l-9.408-1.23a95.963,95.963,0,0,1-5.04,27.32l10.192,2.13c1.9-6.27,3.36-12.54,4.368-24.86C908.224,5937.34,909.008,5936.78,909.008,5936Zm200.7-1.01v-10.86h-42.56v-7.28h30.35v-41.67h-72.35v41.67h29.68v7.28h-41.77v10.86h33.48c-8.96,13.44-25.08,20.83-32.36,23.86l8.62,9.4c12.32-6.16,23.63-14.44,32.03-25.42v27.22h12.32v-26.32a82.491,82.491,0,0,0,32.15,22.84l8.4-10.52c-13.67-3.92-25.09-10.53-33.94-21.06h35.95Zm-24.86-43.57h-17.7v-6.94h17.7v6.94Zm0,15.79h-17.7v-7.05h17.7v7.05Zm-30.02-15.79h-17.36v-6.94h17.36v6.94Zm0,15.79h-17.36v-7.05h17.36v7.05Zm162.18,13.22-3.81-12.77c-5.26,2.36-6.72,3.03-19.82,9.19-2.58-7.39-7.51-11.31-15.24-11.31a21.584,21.584,0,0,0-9.63,2.35c1.91-2.92,2.8-4.48,6.39-11.09a234.991,234.991,0,0,0,26.76-4.26l0.79-12.54c-6.61,2.58-11.65,4.03-21.95,5.71,0.56-1.23,3.36-7.5,3.47-7.61,0.11,0,2.35-1.01,2.57-1.12a1.3,1.3,0,0,0,1.12-1.24c0-.78-1.9-1.01-2.24-1.12l-14-2.46a86.547,86.547,0,0,1-5.6,14.9,158.461,158.461,0,0,1-21.39-.45l1.35,11.65c4.7,0,8.17-.12,14.56-0.45-7.62,13.32-13.22,21.28-22.07,30.8l10.98,6.83c6.16-10.08,12.88-20.27,23.85-20.27,6.5,0,7.84,4.03,8.52,7.39-16.8,8.62-27.11,13.89-27.11,27.78a15.3,15.3,0,0,0,4.26,10.97c7.05,7.51,20.05,7.51,26.32,7.51,3.58,0,16.01,0,26.65-1.68v-12.66a129.251,129.251,0,0,1-28.56,3.58c-8.17,0-16.8-1.45-16.8-8.73,0-7.84,11.65-13.67,15.91-15.79-0.11,4.92-.23,10.41-0.56,16.8h12.99c0-3.81-.22-17.7-0.22-22.07C1202.78,5925.14,1208.16,5923.23,1217.01,5920.43Zm114.57,48.27v-82.88h-39.2c0.56-1,2.92-6.49,3.14-6.83,0.56-.89.9-1.01,2.91-2.13a1.637,1.637,0,0,0,1.01-1.23c0-.67-0.67-1.12-1.68-1.23l-15.23-1.46a49.6,49.6,0,0,1-3.92,12.88h-20.95v82.88h13v-5.82h48.04v5.82h12.88Zm-12.88-39.42h-48.04v-11.09h48.04v11.09Zm0-21.95h-48.04v-10.08h48.04v10.08Zm0,44.68h-48.04v-11.98h48.04v11.98Zm138.88-55.66h-18.14c0.11-2.57.45-13.77,0.56-16.01,0.11-1.24.34-1.35,2.13-3.03a1.748,1.748,0,0,0,.67-1.34c0-1.46-1.79-1.57-2.69-1.57l-12.09-.56c0,10.19,0,10.3-.12,22.51h-8.4v11.09h7.84a124.183,124.183,0,0,1-5.15,27.44,61.948,61.948,0,0,1-7.5,16.69v-3.25c-6.16.56-7.84,0.67-18.26,1.57v-5.16h18.03v-8.4h-18.03v-4.59h17.47v-29.56h-17.47v-4.82h22.07v-8.51h-22.07v-5.72c2.47-.33,7.28-0.89,7.39-0.89,0.79-.11,4.15-0.78,4.82-0.78s3.25,0.89,3.7.89c1,0,1.34-.45,1.34-0.89a3.865,3.865,0,0,0-.78-1.68l-5.6-7.28c-13,3.58-26.55,3.8-39.99,3.36l3.92,8.84c7.73,0,11.43-.22,13.78-0.44v4.59h-21.95v8.51h21.95v4.82h-17.36v29.56h17.36v4.59h-18.15v8.4h18.15v5.94c-3.92.34-14.45,1.12-21.39,1.34l1.56,10.2c0.23,1.56.79,2.12,1.68,2.12,1.01,0,1.35-.44,2.24-1.68,0.68-1,1.01-.89,3.48-1.23,6.04-.67,32.59-3.69,37.96-4.37a64.772,64.772,0,0,1-5.71,6.05l11.43,5.72c16.12-20.28,20.72-39.2,22.51-61.38h7.05c-0.33,19.94-2.8,39.2-4.36,45.47-0.9,3.47-2.8,5.94-7.84,5.94a30.673,30.673,0,0,1-5.27-.56l5.38,11.65c12.32-.23,16.57-3.03,19.26-17.03C1456.8,5933.54,1457.36,5905.87,1457.58,5896.35Zm-53.98,17.14h-7.17v-4.71h7.17v4.71Zm0,11.65h-7.17v-4.93h7.17v4.93Zm-18.59-11.65h-7.06v-4.71h7.06v4.71Zm0,11.65h-7.06v-4.93h7.06v4.93Zm187.15-15.12a51.287,51.287,0,0,0-9.3-8.52l-4.7,5.38a52.077,52.077,0,0,1,9.3,8.51Zm-5.38-19.04v-13c-21.16,6.5-55.88,9.19-80.08,8.96l1.91,12.55c11.2-1.57,27.66-2.92,42.67-4.15a83.51,83.51,0,0,0-14.78,17.03c-4.82,7.28-7.62,14.78-7.62,22.29a28.061,28.061,0,0,0,8.29,20.15c9.07,9.08,21.61,11.43,27.55,12.44l4.37-13.67c-4.59-.22-12.43-0.56-19.71-5.71-3.14-2.24-8.07-6.83-8.07-14.56,0-8.51,5.38-18.59,13.67-26.88C1549.2,5892.1,1561.52,5891.31,1566.78,5890.98Zm-3.69,29.23a48.831,48.831,0,0,0-9.3-8.63l-4.59,5.38a49.622,49.622,0,0,1,9.18,8.62Zm122.86-22.96h-35.17a146.612,146.612,0,0,0,.79-15.24c0-1.56,0-1.67,1.01-2.68,1.12-1.01,1.23-1.12,1.23-1.68,0-.67-0.11-1.23-3.14-1.46l-13.21-1.12a188.908,188.908,0,0,1-.56,22.18h-32.48v12.32h30.68a73,73,0,0,1-9.07,24.41c-8.73,14.45-19.71,20.72-25.87,24.19l11.31,8.97c6.16-3.93,17.36-10.98,26.77-27.56,6.94-12.32,9.52-24.3,10.75-30.01h22.96c-0.45,16.57-3.36,34.49-7.73,40.32-1.56,2.24-3.13,3.13-7.05,3.13-1.79,0-4.15-.22-11.43-1.23l6.39,14.45c12.65-.11,18.37-1.57,22.73-7.39C1679.23,5952.91,1685.28,5932.97,1685.95,5897.25Zm119.95,23.29-7.61-11.31c-7.17,10.87-19.94,23.41-29.57,28.67v-48.94c0-.11,1.34-1.23,1.34-1.34,1.01-.9,1.24-1.24,1.24-1.68,0-1.12-2.13-1.35-3.14-1.46l-12.99-1.57v67.98l9.52,7.4C1778.13,5950.78,1794.93,5935.33,1805.9,5920.54Zm-60.36-33.71c0-1.23-1.24-1.57-3.25-1.68l-13.55-.89a165.829,165.829,0,0,1,1.23,21.16c0,27.89-13.22,37.41-23.97,43.68l12.43,9.07c8.18-6.49,21.51-17.47,24.19-40.65,0.56-4.93.56-6.61,0.56-27.55a1.5,1.5,0,0,1,.79-1.46C1745.31,5887.39,1745.54,5887.28,1745.54,5886.83Zm149.52,4.26v-12.1h-54.21v12.1h54.21Zm15.12,27.77v-11.53h-84.56v11.53h37.63c-0.56,21.84-7.51,32.6-29.91,40.66l10.98,9.18c6.16-2.91,17.36-8.06,24.86-20.83,6.61-11.31,6.95-22.73,7.06-29.01h33.94Zm124.65-22.96c0-1.12-1.9-2.24-2.35-2.57l-10.98-6.83c-6.83,9.52-14.11,17.02-26.32,26.76v-33.71c0-1.01,1.24-1.9,1.68-2.13a2.8,2.8,0,0,0,1.12-1.56c0-1.46-2.01-1.57-3.58-1.68l-11.87-1.01v84c0,7.5,3.36,10.64,10.86,10.64h24.08c9.07,0,12.99-1.57,16.02-16.47l-11.2-7.84c-1.12,9.3-2.58,11.99-6.72,11.99H2000c-3.92,0-4.82-1.46-4.82-6.05v-21.17a226.233,226.233,0,0,0,25.54-20.61c1.68-1.57,9.41-9.85,9.97-10.08,0.56-.11,2.8-0.11,3.25-0.22A1.706,1.706,0,0,0,2034.83,5895.9Zm-57.9-14.67c0-1.01-1.35-1.79-2.13-2.24l-11.98-6.38a140.223,140.223,0,0,1-29.01,46.59l10.86,7.73a89.723,89.723,0,0,0,6.95-8.74v50.96h13.1v-63.39c0-.9.22-1.23,1.46-2.69a3.076,3.076,0,0,0,.56-1.79c0-.9-0.68-1.35-1.68-2.02,5.15-8.96,5.93-10.75,8.17-15,0.34-.68.56-0.79,2.58-1.57A1.621,1.621,0,0,0,1976.93,5881.23Z" transform="translate(-664.281 -5871.59)"/>
</svg>
