<svg xmlns="http://www.w3.org/2000/svg" width="394.833" height="35.272" viewBox="0 0 788.72 70.46">
  <defs>
    <style>
      .cls-1 {
        fill: #fff;
        fill-rule: evenodd;
      }
    </style>
  </defs>
  <path id="パス_1128" data-name="パス 1128" class="cls-1" d="M1097.68,6946.4v-6.24h-4.48v-9.28h-24.8v-3.04H1088v-14.72h-19.6v-2.8h28.96v-6.88H1068.4v-1.52a0.845,0.845,0,0,1,.48-0.72c0.72-.56.88-0.64,0.88-1.12a0.96,0.96,0,0,0-.96-0.72l-9.44-1.2v5.28h-29.04v6.88h29.04v2.8h-19.68v14.72h19.68v3.04h-24.4v6.24h24.4v3.04h-29.04v6.24h29.04v3.44h-24.4v6.24h24.4v2.4c0,1.44-1.2,1.84-2.48,1.84-1.36,0-3.6-.24-5.68-0.4l4,8.72c11.2-.08,13.2-2.16,13.2-6.8v-5.76h16.4v2.16h8.4V6946.4h4.48Zm-17.92-24H1068.4v-3.84h11.36v3.84Zm-20.4,0h-11.52v-3.84h11.52v3.84Zm25.44,17.76h-16.4v-3.04h16.4v3.04Zm0,9.68h-16.4v-3.44h16.4v3.44Zm58.08,9.36v-37.68h-28.96v46.08h8.48v-16.16h11.84v5.84c0,1.36-.64,2-2.24,2a37.537,37.537,0,0,1-5.28-.48l3.36,9.12C1137.04,6967.92,1142.88,6966.8,1142.88,6959.2Zm-8.64-26.24H1122.4v-4.4h11.84v4.4Zm0,11.44H1122.4V6940h11.84v4.4Zm44.48-27.84v-7.36h-18.24c0.56-.72,2.96-4.8,3.2-4.96a15.151,15.151,0,0,1,1.44-.48,0.74,0.74,0,0,0,.64-0.72,0.87,0.87,0,0,0-.56-0.8l-10.16-2.96a50.2,50.2,0,0,1-5.44,9.92h-15.68l2.96-1.44a96.67,96.67,0,0,0-6.56-8.88l-8.72,3.84a64.561,64.561,0,0,1,4.96,6.48h-17.04v7.36h69.2Zm-2.72,5.04a0.982,0.982,0,0,0-.96-0.72l-9.92-.72v35.76c0,2.16-.8,2.8-3.6,2.8-1.68,0-3.12-.16-4.8-0.32l4.24,8.96c9.92-.08,13.44-1.04,13.44-8.88v-34.56a3.561,3.561,0,0,1,1.12-1.36A1.825,1.825,0,0,0,1176,6921.6Zm-16.64,1.2a0.985,0.985,0,0,0-1.04-.88l-9.52-.48v32.24h8.64v-28.72c0-.32.16-0.4,1.28-1.2A1.239,1.239,0,0,0,1159.36,6922.8Zm102.8,5.36a61.61,61.61,0,0,1-14.48-7.68c2.24-2.24,4.48-4.56,6.56-6.96,0.72-.8.88-0.8,2.24-0.88,0.4,0,1.04,0,1.04-.64,0-.4-0.32-0.72-1.68-1.44l-6.08-3.2a70.807,70.807,0,0,1-7.68,8.24,20.586,20.586,0,0,1-1.68-1.92c1.12-1.28,6-6.96,7.04-8.16,0.24-.08,1.6-0.24,1.84-0.32a0.528,0.528,0,0,0,.64-0.56c0-.64-0.96-1.2-1.6-1.52l-6.24-3.12a57.315,57.315,0,0,1-6.16,6.96,36.4,36.4,0,0,1-3.44-7.6l-8.08,2.56c2.32,6.8,5.84,11.84,10.32,17.12h-20.4c5.92-7.2,7.84-11.44,9.12-14.56l-2.64-3.2h-24v7.36h14.4a30.589,30.589,0,0,1-4.88,6.88,40.858,40.858,0,0,0-7.68-5.76l-6.08,6.08a36.091,36.091,0,0,1,7.6,5.68,65.859,65.859,0,0,1-14.8,9.2l8.16,5.92a57.608,57.608,0,0,0,8.56-5.6v19.36h10.16l-4.8,1.44a70.159,70.159,0,0,1,3.12,6.4h-19.44v7.84h65.84v-7.84h-19.84c0.72-1.36,1.28-2.64,1.92-4.08,0.96-.24,1.84-0.4,1.84-1.2a1.2,1.2,0,0,0-1.2-1.12l-6.16-1.44H1246v-20.56h-42.4a65.4,65.4,0,0,0,7.28-6.96v3.76h27.68v-3.44c7.84,7.52,13.04,10.32,16.16,11.84Zm-25.28,15.36H1211.2v-6.8h25.68v6.8Zm-5.6,6.88a32.489,32.489,0,0,1-3.6,7.84h-11.76l3.84-.96a25.379,25.379,0,0,0-3.2-6.88h14.72Zm69.04-38.64a36.142,36.142,0,0,1-10.56-8.96,0.826,0.826,0,0,0,.32-0.64,1.884,1.884,0,0,0-1.44-1.44l-6.8-1.52c-2.8,6.96-8.48,12.88-14.72,16.8l6,5.92a11.585,11.585,0,0,0,1.36-1.44v5.2h6.56v4.72h-9.84v8.24h9.84v17.68c-3.84.32-7.92,0.72-11.84,0.88l0.64,8.32c0.08,0.72.16,2.16,1.04,2.16,0.56,0,2.08-2,2.56-2.16,0.32-.16,5.2-0.96,6-1.12,11.12-1.92,15.2-2.8,17.84-3.44l0.64-7.44a66.276,66.276,0,0,1-8.64,1.76v-16.64h7.76v-8.24h-7.76v-4.72h6.24v-8.24Zm40.72,45.2c-9.36-5.2-16.4-12.32-18.4-16.4v-7.52h15.6v-7.76h-4.4v-23.92H1301.2v7.68h23.92v4.32H1304.8v7.36h20.32v4.56h-25.44v7.76h14.4v12.72c-4.16,3.2-9.36,5.36-14.88,7.04l1.36,6.88c0.08,0.4.4,2,1.28,2,0.4,0,.64-0.56.96-1.2,0.4-.72.48-0.88,2.8-1.92a76.88,76.88,0,0,0,8.48-4.48v2.4c0,1.92-1.04,2.24-2.56,2.24-2.32,0-4.16-.24-5.2-0.32l3.44,9.04c10.08-.16,12.88-0.8,12.88-6.8v-8.4a41.255,41.255,0,0,0,12.56,11.52Zm-40.24-13.36c0-.08,0-0.88-1.76-1.28l-6.32-1.52a34.774,34.774,0,0,1-3.12,11.36l6.96,1.6a40.338,40.338,0,0,0,2.4-9.2C1299.68,6944.4,1300.8,6944.16,1300.8,6943.6Zm-6.72-26.16H1278.4a59.192,59.192,0,0,0,7.04-8.16A51.377,51.377,0,0,0,1294.08,6917.44Zm44.48,21.84c0-.24,0-0.72-1.12-1.28l-6.64-3.52a32.094,32.094,0,0,1-5.6,8.24l6.64,4.32a40.611,40.611,0,0,0,4.88-7.04C1337.6,6939.92,1338.56,6939.84,1338.56,6939.28Zm-25.28,5.2a43.222,43.222,0,0,0-6.56-9.44l-6.56,3.92a40.625,40.625,0,0,1,6,9.2Zm-32.88,8.64a47.143,47.143,0,0,0-3.28-12.56l-6.88,2.48a82.377,82.377,0,0,1,3.44,12Zm136.16-19.68c0-17.84-13.12-29.12-29.76-29.12-20.64,0-35.28,16.16-35.28,33.92,0,14.32,13.12,21.52,16,21.52,4.16,0,7.84-6.72,10.24-11.68,2.64-5.36,7.36-16.56,9.92-35.6,2.96,0.24,8.56.56,13.6,5.36a18.861,18.861,0,0,1,5.76,14,25.029,25.029,0,0,1-5.76,15.92c-4.88,5.84-10.8,7.52-14.4,8.56l5.92,8.24c4.32-1.76,12.64-5.2,18.64-14.08A29.892,29.892,0,0,0,1416.56,6933.44Zm-38.4-19.52c-1.6,12.48-8.48,33.36-12.64,33.36-1.44,0-5.12-3.36-5.12-9.84a26.2,26.2,0,0,1,8-17.76A23.618,23.618,0,0,1,1378.16,6913.92ZM1494,6950.96v-41.68h-25.52v-6.72a2.082,2.082,0,0,1,1.04-1.04,0.7,0.7,0,0,0,.48-0.72c0-.88-0.96-1.2-2-1.28l-8.8-.72v10.48h-25.6v41.68h9.28v-3.92h16.32V6968h9.28v-20.96h16.08v3.92H1494Zm-9.44-27.12h-16.08v-6.16h16.08v6.16Zm0,14.88h-16.08v-6.8h16.08v6.8Zm-25.36-14.88h-16.32v-6.16h16.32v6.16Zm0,14.88h-16.32v-6.8h16.32v6.8Zm113.6,5.76-7.84-6.48c-7.84,15.36-18.56,18.16-23.04,18.16-5.12,0-6.88-3.12-7.04-3.36-1.52-2.72-1.52-10.48-1.52-14.16,0-8.8,1.6-29.92,2.24-32,1.28-1.04,2.24-1.68,2.24-2.32,0-.48-0.72-1.04-2.64-1.28l-10.64-1.52c0.24,5.36-.4,29.12-0.4,34,0,19.2,1.28,23.28,5.04,26.56a17.8,17.8,0,0,0,11.68,4.08,28.917,28.917,0,0,0,15.92-5.12C1564.72,6955.92,1569.52,6949.04,1572.8,6944.48Zm86,1.84c-14.72-10-17.44-20-17.6-45.92h-21.76v9.36h11.92c0.08,1.44.16,2.72,0.4,4.96l-4.96-1.36c-2.56,17.2-8.24,24.8-17.12,32.96l7.92,5.6a52.043,52.043,0,0,0,10-12.32,55.369,55.369,0,0,0,6-13.92c4.8,17.28,9.68,22.4,17.52,27.92Zm-48.64-36.96c-7.2-7.04-10.48-8.72-12.72-9.92l-6.48,6.88c5.12,3.2,8.56,5.6,12.32,9.52Zm52.16,45.36a131.636,131.636,0,0,1-17.36,2.24c-6,.48-11.92.8-17.92,0.8-15.12,0-18.48-2.72-18.48-9.52v-20.32h-18.88v8.8h9.68v14.88a83.824,83.824,0,0,1-10.96,5.28l3.44,9.2c0.24,0.56.64,1.44,1.36,1.44,0.56,0,.64-0.24,1.36-1.84a1.623,1.623,0,0,1,.96-1.12c4.16-2.88,8.16-6,8.96-6.64,1.52,2.32,2.32,3.36,3.36,4.08,2.24,1.68,4.96,3.52,12.08,3.52h36.56Zm74.4-11.36c-3.44-2.24-5.92-3.76-10.32-6.24a96.567,96.567,0,0,0,2.72-11.92c0.24-1.12.24-1.28,0.88-1.68,1.12-.56,1.2-0.64,1.2-1.04,0-.72-1.12-1.12-1.92-1.36l-8.96-2.48a68.017,68.017,0,0,1-2.08,14.64,51.479,51.479,0,0,0-15.44-3.68c1.12-2.48,6.8-15.36,6.88-15.68a32.61,32.61,0,0,1,4.16-6.8l-5.28-5.28c-4.32,2.8-13.76,4.4-26.08,4.32l3.6,8.08c4.48-.08,7.36-0.64,14.56-2.48a185.247,185.247,0,0,1-6.48,17.36,21.586,21.586,0,0,0-12.72,3.84c-5.6,3.76-9.44,9.68-9.44,15.84,0,5.92,3.6,10.32,9.04,10.32,7.04,0,10.48-5.12,18.4-22.08a49.53,49.53,0,0,1,16,4.48c-4.8,10.16-8.88,14.24-15.92,18.8l7.92,5.52c7.44-5.52,11.2-10,15.84-19.92,1.84,1.2,4.08,2.72,8.32,6Zm-46.16-6.08a90.846,90.846,0,0,1-5.28,9.92,3.648,3.648,0,0,1-3.36,1.92c-0.56,0-1.6-.08-1.6-2.16C1680.32,6944,1683.68,6939.44,1690.56,6937.28Zm128.48,10.96c-9.92-6.8-17.92-15.28-32.24-31.68-3.84-4.48-5.52-6.32-9.28-6.32-4.56,0-7.36,3.92-8.56,5.52-7.84,10.56-12.64,17.12-19.92,23.6l8.96,5.76c4.24-4.64,12.88-16.24,15.52-19.84,0.72-1.04,2.4-3.28,4.64-3.28,2,0,2.96,1.28,5.6,4.56,8.48,10.88,17.44,21.44,28.08,30.32Z" transform="translate(-1030.31 -6898.16)"/>
</svg>
