<svg xmlns="http://www.w3.org/2000/svg" width="344.56" height="40.09" viewBox="0 0 344.56 40.09">
  <defs>
    <style>
      .cls-1 {
        fill: #2b2c34;
        fill-rule: evenodd;
      }
    </style>
  </defs>
  <path id="パス_1160" data-name="パス 1160" class="cls-1" d="M3753.58,4885.45c-7.3-1.81-13.33-5.28-16.63-9.59a0.7,0.7,0,1,0,.04-1.37l-5.32-1.23c-3.92,6.29-10.69,10.91-17.73,13.77l4.04,3.65a37.4,37.4,0,0,0,6.16-3.3v3.7h20.2v-3.65a47.476,47.476,0,0,0,6.56,2.64Zm-5.72,11.31-2.55-1.85h-25.87v4.7h20.98a40.3,40.3,0,0,1-8.18,11.4l5.32,2.33C3741.66,4908.63,3744.6,4903.84,3747.86,4896.76Zm-5.32-10.3h-17.03a48.492,48.492,0,0,0,8.36-7.3A30.21,30.21,0,0,0,3742.54,4886.46Zm52-1.94v-4.75c-4.48.35-5.85,0.49-11.96,0.84v-4.53a0.624,0.624,0,0,1,.35-0.53,0.78,0.78,0,0,0,.39-0.66c0-.44-0.26-0.57-1.27-0.62l-4.89-.31c0.27,3.22.27,5.55,0.31,6.91-9.24.44-13.02,0.44-16.01,0.44v5.11c5.58-.71,12.23-1.1,16.14-1.32l0.09,3.3a5.767,5.767,0,0,0-2.07-.36c-4.48,0-6.9,3.35-6.9,8.19a7.871,7.871,0,0,0,2.28,6.11,5.55,5.55,0,0,0,3.61,1.37,9.034,9.034,0,0,0,2.38-.44c-0.97,3.21-3.65,5.5-6.29,7.21l4.92,2.56a30.637,30.637,0,0,0,5.99-8.19,19.716,19.716,0,0,0,2.24-8.49,11.443,11.443,0,0,0-1.27-5.37v-6.16C3788.3,4884.61,3791.2,4884.52,3794.54,4884.52Zm-16.01,11.13c0,3.13-2.11,4.1-3.04,4.1-1.01,0-2.42-1.01-2.42-3.65,0-2.34,1.23-3.88,2.99-3.88a2.285,2.285,0,0,1,1.63.62A4.07,4.07,0,0,1,3778.53,4895.65Zm58.21-14.07a31.585,31.585,0,0,0-4.27-4.4l-1.89,2.2a28.812,28.812,0,0,1,4.22,4.39Zm-2.86,6.02a37.543,37.543,0,0,0-4.22-4.4l-1.94,2.2a31.3,31.3,0,0,1,4.22,4.4Zm-6.07-9.46a2.619,2.619,0,0,0-.93-1.19l-3.87-3.12c-3.91,4.8-6.69,7.3-12.89,12.85-2.55,2.29-4.09,3.65-4.09,5.81,0,1.8,1.63,3.3,3.91,5.37a75.457,75.457,0,0,1,12.85,14.87l4.45-3.92a96.828,96.828,0,0,0-14.39-14.61,1.957,1.957,0,0,1-.71-1.62,2.912,2.912,0,0,1,1.1-1.94c9.16-8.32,9.64-8.67,12.46-11.48a1.512,1.512,0,0,1,1.32-.58C3827.41,4878.54,3827.81,4878.49,3827.81,4878.14Zm53.59,13.38v-4.23h-6.29v-5.5h4.35v-4.09H3854.3a3.2,3.2,0,0,1,1.36-1.27c1.01-.4,1.01-0.4,1.01-0.62a1.037,1.037,0,0,0-.75-0.62l-4.97-1.4a28.339,28.339,0,0,1-7.87,9.28l4.35,2.16a20.653,20.653,0,0,0,2.73-2.78v4.84h-6.38v4.23h6.38v5.54h-4.75v4.1h34.49v-4.1h-4.79v-5.54h6.29Zm-17.42-4.23h-2.6v-5.5h2.6v5.5Zm0,9.77h-2.6v-5.54h2.6v5.54Zm6.77-9.77h-2.73v-5.5h2.73v5.5Zm0,9.77h-2.73v-5.54h2.73v5.54Zm-13.51-9.77h-2.59v-5.5h2.59v5.5Zm0,9.77h-2.59v-5.54h2.59v5.54Zm23.76,11.88a31,31,0,0,0-5.89-6.38l-3.26,2.77a40.476,40.476,0,0,1,5.5,6.69Zm-10.69,1.41a17.826,17.826,0,0,0-2.68-6.95l-3.74,1.19a23.507,23.507,0,0,1,2.15,6.95Zm-8.97.88a18.752,18.752,0,0,0-1.76-7.83l-3.83.97a21.934,21.934,0,0,1,1.23,7.79Zm-7.35-5.63a0.889,0.889,0,0,0-.49-0.66l-3.56-2.68a24.149,24.149,0,0,1-6.38,6.9l3.48,3.08a36.823,36.823,0,0,0,5.67-5.98,0.838,0.838,0,0,1,.84-0.26A0.47,0.47,0,0,0,3853.99,4905.6Zm71.5-6.16-0.27-4.27-3.69.97v-19.67a1.384,1.384,0,0,1,.7-0.66,0.524,0.524,0,0,0,.31-0.39c0-.27-0.18-0.45-1.06-0.53l-4.7-.44v22.88l-11.58,2.99,0.53,4.18,11.05-2.86v10.43h4.75v-11.62Zm-17.87-20.72c0-.27-0.26-0.4-1.18-0.62l-3.7-.84a29.139,29.139,0,0,1-1.85,7l3.57,1.54a34.414,34.414,0,0,0,2.2-6.21,0.727,0.727,0,0,1,.52-0.39A0.81,0.81,0,0,0,3907.62,4878.72Zm7.75,3.82a21.037,21.037,0,0,0-4.53-4.66l-2.95,3.04a19.037,19.037,0,0,1,4.53,4.66Zm-0.27,10.65a24.6,24.6,0,0,0-4.97-5.28l-2.9,2.99a24.713,24.713,0,0,1,4.93,5.28Zm-9.54-1.54v-4.05h-5.99v-11.13c0-.22.09-0.26,0.44-0.53a0.61,0.61,0,0,0,.35-0.52c0-.27-0.17-0.53-1.36-0.62l-3.96-.35v13.15h-7.08v4.05h6.24a28.811,28.811,0,0,1-7.21,12.76l4.05,2.38a30.021,30.021,0,0,0,4-5.9v11.27h4.53v-14.17a24.289,24.289,0,0,0,3.17,3.47l2.51-3.38a26.917,26.917,0,0,1-5.68-6.43h5.99Zm-11.71-7.43a34.035,34.035,0,0,0-2.24-6.82l-4.14,1.67a25.914,25.914,0,0,1,2.25,6.64Zm74.23,4.57a20.144,20.144,0,0,0-3.65-3.34l-1.85,2.11a20.051,20.051,0,0,1,3.65,3.34Zm-2.11-7.48v-5.1c-8.32,2.55-21.96,3.6-31.46,3.52l0.75,4.92c4.4-.61,10.86-1.14,16.76-1.62a32.613,32.613,0,0,0-5.81,6.68,16.051,16.051,0,0,0-2.99,8.76,11.015,11.015,0,0,0,3.26,7.92c3.56,3.56,8.49,4.49,10.82,4.88l1.72-5.36a13.844,13.844,0,0,1-7.75-2.25,6.983,6.983,0,0,1-3.17-5.72c0-3.34,2.12-7.3,5.37-10.56C3959.06,4881.75,3963.9,4881.44,3965.97,4881.31Zm-1.45,11.48a19.087,19.087,0,0,0-3.66-3.38l-1.8,2.11a19.426,19.426,0,0,1,3.61,3.39Zm48.75-12.14v-3.04h-7.17c0.52-.7.96-1.45,1.18-1.8,0.62-.17,1.19-0.31,1.19-0.66,0-.18,0-0.44-1.49-0.66l-3.48-.53a11.975,11.975,0,0,1-1.58,3.65h-5.33a18.248,18.248,0,0,0-2.51-3.65l-4.04.97a9.445,9.445,0,0,1,1.67,2.68h-6.29v3.04h10.29l-0.75,1.45h-7.04v11.66h23.28V4882.1h-11.35l0.92-1.45h12.5Zm0.83,14.39c-3.69.31-9.76,0.79-18.74,0.79-2.64,0-7.08-.18-9.2-1.5a3.09,3.09,0,0,1-1.32-2.81v-7.26h-8.88v3.96h4.31v4.75c-2.73,1.23-3.7,1.72-5.06,2.2l1.19,3.08c0.22,0.53.44,1.15,0.79,1.15a1.05,1.05,0,0,0,.75-1.11c1.62-1.05,1.98-1.32,5.28-3.51,1.67,2.19,3.12,4.13,10.69,4.13h7.43v1.36h-25.82v3.97h11.26l-2.64,2.5a23.941,23.941,0,0,1,4.71,4.67l3.69-3.39a43.479,43.479,0,0,0-3.96-3.78h12.76v2.68c0,0.92-.22,1.23-1.32,1.23a24.066,24.066,0,0,1-3.87-.35l1.94,4.71c2.07-.05,8.05-0.09,8.05-3.22v-5.05h7.22v-3.97h-7.22v-1.36h6.12Zm-7.56-9.55h-13.95v-1.1h13.95v1.1Zm0,5.99h-13.95v-1.15h13.95v1.15Zm-22.14-13.16a59.265,59.265,0,0,0-5.01-4.36l-2.95,3.3a43.655,43.655,0,0,1,4.8,4.32Zm22.14,10.16h-13.95v-1.1h13.95v1.1Zm51.96,19.54a27.528,27.528,0,0,1-11.48-11.7,35.056,35.056,0,0,1-4.05-16.73c0-1.4.04-3.08,0.17-4.44h-14.12v5.24h8.89c0.04,1.76.09,2.59,0.22,3.91l-3.87-.97a34.737,34.737,0,0,1-5.06,15.1,33.343,33.343,0,0,1-10.7,10.51l4.71,3.35c7.61-5.28,12.32-12.81,15.67-23.15a39.027,39.027,0,0,0,5.23,12.85,38.031,38.031,0,0,0,9.37,10.08Z" transform="translate(-3713.94 -4873.25)"/>
</svg>
