<svg xmlns="http://www.w3.org/2000/svg" width="519.06" height="39.03" viewBox="0 0 519.06 39.03">
  <defs>
    <style>
      .cls-1 {
        fill: #2b2c34;
        fill-rule: evenodd;
      }
    </style>
  </defs>
  <path id="パス_1159" data-name="パス 1159" class="cls-1" d="M3730.61,4787.85v-14.08h-13.86v14.43h4.23v-1.72h5.41v1.37h4.22Zm18.83-17.47a3.2,3.2,0,0,0-.96-1.28l-2.91-2.55c-2.77,3.3-6.6,6.73-13.51,9.9l3.3,3.48a48.882,48.882,0,0,0,12.19-8.85,1.713,1.713,0,0,1,.84-0.22C3749,4770.86,3749.44,4770.86,3749.44,4770.38Zm-23.1,12.05h-5.36v-4.79h5.36v4.79Zm19.14-17.86a2.156,2.156,0,0,0-.7-1.1l-2.9-2.51a35.749,35.749,0,0,1-10.04,8.14l3.17,3.26a45.542,45.542,0,0,0,8.89-7.08,1.779,1.779,0,0,1,1.06-.27A0.509,0.509,0,0,0,3745.48,4764.57Zm-15.57,7.13v-3.61H3717.1v3.61h12.81Zm23.89-10.6c-5.1-2.78-8.58-5.99-9.94-8.72a0.933,0.933,0,0,0,.79-0.79c0-.53-0.88-0.75-1.06-0.79l-4.66-1.01a26.083,26.083,0,0,1-6.91,9.81v-2.86h-16.76v3.83h15.75a14.915,14.915,0,0,1-2.47,1.98h-11.3v3.65h12.58v-3.04l2.95,2.2a44.341,44.341,0,0,0,8.27-9.28,36.34,36.34,0,0,0,9.42,8.8Zm-24.29-6.39v-3.6H3717.5v3.6h12.01Zm23.85,21.96a2.951,2.951,0,0,0-.92-1.41l-2.91-2.46c-5.06,5.41-10.51,8.93-18.83,11.48l3.39,4.18a52.549,52.549,0,0,0,16.85-10.56,1.75,1.75,0,0,1,1.58-.74C3752.96,4777.16,3753.36,4777.16,3753.36,4776.67Zm43.69-21.82a1.8,1.8,0,0,0-.39-0.97l-3.04-4.18a52.234,52.234,0,0,1-10.03,3.21l-3.13-.04c0.18,5.76.22,7.52,0.22,10.12,0,13.2-1.71,16.32-3.6,19.62v-1.8h-13.6v-5.42l3.21,2.47a14.432,14.432,0,0,0,2.95-3.79v5.95h4.05v-6.69a18.182,18.182,0,0,0,2.95,2.9l2.99-3.52a20.488,20.488,0,0,1-5.55-6.51h4.93v-3.92h-5.32v-2.64l3.08,1.68a36.163,36.163,0,0,0,2.46-4.93c0.97-.27,1.15-0.31,1.15-0.62a0.971,0.971,0,0,0-.66-0.75l-3.88-1.32a24.956,24.956,0,0,1-2.15,4.62v-6.11a0.866,0.866,0,0,1,.53-0.53,0.853,0.853,0,0,0,.48-0.62c0-.44-0.48-0.53-1.1-0.57l-3.96-.22v7.79a26.6,26.6,0,0,0-2.6-4.49l-3.56,1.28v-0.88a0.807,0.807,0,0,1,.53-0.49,0.843,0.843,0,0,0,.48-0.61c0-.44-0.39-0.58-1.05-0.58l-4.05-.08v35.64h4.09v-2.73h11.7c-0.44.44-.88,0.88-1.32,1.27l4.45,2.34c2.9-3.08,4.44-6.43,5.59-10.87a49.132,49.132,0,0,0,1.32-10.16h3.43v20.54h4.79V4767.7h3.52v-4.89H3785.3c0-1.45,0-4.18-.04-5.63a74.947,74.947,0,0,0,8.62-1.89c0.4-.09,1.24-0.31,1.28-0.31,0.22,0,1.23.26,1.45,0.26A0.362,0.362,0,0,0,3797.05,4754.85Zm-27.41,7.43h-4.97v3.92h3.74a22.537,22.537,0,0,1-4.93,7.83v-17.77a23.41,23.41,0,0,1,2.38,4.84l3.78-1.46v2.64Zm70.05,25.48v-16.15h-18.61v16.15h4.88v-1.89h8.76v1.89h4.97Zm-4.97-6.16h-8.76v-5.68h8.76v5.68Zm6.33-21.47v-4.31h-8.23v-3.17a1.546,1.546,0,0,1,.49-0.79,1.01,1.01,0,0,0,.35-0.66,0.532,0.532,0,0,0-.62-0.49l-5.19-.22v5.33h-8.05v4.31h8.05v4.35h-6.64v4.18h18.92v-4.18h-7.31v-4.35h8.23Zm-21.51,9.85a46.817,46.817,0,0,0-2.82-6.91l-3.48,1.81a20.263,20.263,0,0,1,.84,1.94c-1.5.17-1.89,0.17-3.61,0.3,2.29-2.55,4.49-5.23,6.56-8a1.317,1.317,0,0,1,1.14-.8,0.448,0.448,0,0,0,.4-0.48,0.61,0.61,0,0,0-.22-0.44l-3.43-2.33c-1.1,1.76-1.85,2.86-3.96,5.72-0.49-.44-0.66-0.58-1.54-1.32,1.71-2.34,2.55-3.57,3.74-5.41a1.619,1.619,0,0,1,1.23-.97,0.616,0.616,0,0,0,.44-0.57,0.57,0.57,0,0,0-.22-0.45l-3.74-2.2a46.37,46.37,0,0,1-4.14,7.53c-0.75-.53-1.1-0.79-1.85-1.28l-2.33,3.52a30.14,30.14,0,0,1,5.72,4.58c-0.53.7-1.36,1.72-2.73,3.26-0.48,0-2.81.08-3.3,0.13l0.62,3.69c0.04,0.31.18,1.02,0.57,1.02a4.594,4.594,0,0,0,.79-0.58,15.4,15.4,0,0,1,1.54-.26c0.09,0,1.32-.18,2.56-0.35v17.11h4.26v-17.77c1.76-.27,2.07-0.31,2.56-0.4,0.04,0.13.52,1.72,0.52,1.85Zm-0.49,12.45a51.8,51.8,0,0,1-1.71-9.32l-3.7,1.23a53.63,53.63,0,0,0,1.54,9.28Zm-11.17-7.43a0.733,0.733,0,0,0-.75-0.44l-3.7-.49a37.407,37.407,0,0,1-1.98,10.74l4.01,0.84a42.391,42.391,0,0,0,1.71-9.77A1.494,1.494,0,0,0,3807.88,4775Zm77.08-.4v-4.26h-16.72v-2.86h11.93v-16.37h-28.43v16.37h11.66v2.86h-16.41v4.26h13.16c-3.52,5.28-9.86,8.19-12.72,9.37l3.39,3.7a35.631,35.631,0,0,0,12.58-9.99v10.7h4.84v-10.34a32.551,32.551,0,0,0,12.63,8.97l3.3-4.13a26.2,26.2,0,0,1-13.33-8.28h14.12Zm-9.76-17.11h-6.96v-2.73h6.96v2.73Zm0,6.2h-6.96v-2.77h6.96v2.77Zm-11.8-6.2h-6.82v-2.73h6.82v2.73Zm0,6.2h-6.82v-2.77h6.82v2.77Zm61.96,5.19-1.5-5.01c-2.07.92-2.64,1.18-7.79,3.61-1.01-2.91-2.95-4.45-5.98-4.45a8.481,8.481,0,0,0-3.79.93c0.75-1.15,1.1-1.76,2.51-4.36a93,93,0,0,0,10.52-1.67l0.31-4.93a37.363,37.363,0,0,1-8.63,2.24c0.22-.48,1.32-2.95,1.37-2.99,0.04,0,.92-0.39,1.01-0.44a0.517,0.517,0,0,0,.44-0.48,1.133,1.133,0,0,0-.88-0.44l-5.5-.97a34.274,34.274,0,0,1-2.2,5.85,60.6,60.6,0,0,1-8.41-.18l0.53,4.58c1.85,0,3.21-.04,5.72-0.17a58.446,58.446,0,0,1-8.67,12.1l4.32,2.68c2.42-3.96,5.06-7.96,9.37-7.96,2.55,0,3.08,1.58,3.34,2.9-6.6,3.39-10.65,5.46-10.65,10.91a5.989,5.989,0,0,0,1.68,4.31c2.77,2.95,7.87,2.95,10.34,2.95a72.853,72.853,0,0,0,10.47-.66v-4.97a50.7,50.7,0,0,1-11.22,1.41c-3.21,0-6.6-.57-6.6-3.44,0-3.07,4.57-5.36,6.25-6.2-0.05,1.94-.09,4.09-0.22,6.6h5.1c0-1.5-.09-6.95-0.09-8.67C3919.77,4770.73,3921.88,4769.98,3925.36,4768.88Zm43.25,18.97v-32.56h-15.4c0.22-.4,1.14-2.55,1.23-2.69a2.391,2.391,0,0,1,1.14-.83,0.64,0.64,0,0,0,.4-0.49,0.6,0.6,0,0,0-.66-0.48l-5.98-.57a19.946,19.946,0,0,1-1.54,5.06h-8.23v32.56h5.1v-2.29h18.88v2.29h5.06Zm-5.06-15.49h-18.88V4768h18.88v4.36Zm0-8.62h-18.88v-3.97h18.88v3.97Zm0,17.55h-18.88v-4.71h18.88v4.71Zm52.8-21.87h-7.13c0.04-1.01.18-5.41,0.22-6.29,0.04-.48.13-0.53,0.84-1.19a0.675,0.675,0,0,0,.26-0.52c0-.58-0.7-0.62-1.06-0.62l-4.75-.22c0,4,0,4.05-.04,8.84h-3.3v4.36h3.08a49.266,49.266,0,0,1-2.03,10.78,24.474,24.474,0,0,1-2.94,6.56v-1.28c-2.42.22-3.08,0.26-7.18,0.61v-2.02h7.09v-3.3h-7.09v-1.8h6.87v-11.62h-6.87v-1.89h8.67v-3.34h-8.67v-2.25c0.97-.13,2.86-0.35,2.91-0.35,0.31-.04,1.63-0.31,1.89-0.31s1.28,0.35,1.45.35c0.4,0,.53-0.17.53-0.35a1.524,1.524,0,0,0-.31-0.66l-2.2-2.86c-5.1,1.41-10.43,1.5-15.71,1.32l1.54,3.48c3.04,0,4.49-.09,5.42-0.18v1.81h-8.63v3.34h8.63v1.89h-6.82v11.62h6.82v1.8h-7.13v3.3h7.13v2.33c-1.54.13-5.68,0.44-8.41,0.53l0.62,4c0.09,0.62.31,0.84,0.66,0.84a1.021,1.021,0,0,0,.88-0.66c0.26-.4.39-0.35,1.36-0.48,2.38-.27,12.81-1.45,14.92-1.72a26.49,26.49,0,0,1-2.25,2.38l4.49,2.24c6.34-7.96,8.14-15.4,8.85-24.11h2.77a102,102,0,0,1-1.72,17.86,2.77,2.77,0,0,1-3.08,2.33,11.812,11.812,0,0,1-2.07-.22l2.12,4.58c4.84-.09,6.51-1.19,7.56-6.69C4016.04,4774.03,4016.26,4763.16,4016.35,4759.42Zm-21.21,6.74h-2.82v-1.85h2.82v1.85Zm0,4.57h-2.82v-1.93h2.82v1.93Zm-7.3-4.57h-2.78v-1.85h2.78v1.85Zm0,4.57h-2.78v-1.93h2.78v1.93Zm71.76-5.94a20.144,20.144,0,0,0-3.65-3.34l-1.85,2.11a20.051,20.051,0,0,1,3.65,3.34Zm-2.11-7.48v-5.1c-8.32,2.55-21.96,3.61-31.46,3.52l0.75,4.93c4.4-.62,10.86-1.15,16.76-1.63a32.891,32.891,0,0,0-5.81,6.68,16.051,16.051,0,0,0-2.99,8.76,11.015,11.015,0,0,0,3.26,7.92c3.56,3.57,8.49,4.49,10.82,4.88l1.72-5.36a13.844,13.844,0,0,1-7.75-2.25,6.983,6.983,0,0,1-3.17-5.72c0-3.34,2.12-7.3,5.37-10.56C4050.58,4757.75,4055.42,4757.44,4057.49,4757.31Zm-1.45,11.49a18.819,18.819,0,0,0-3.66-3.39l-1.8,2.11a19.426,19.426,0,0,1,3.61,3.39Zm46.5-9.03h-13.81a59.418,59.418,0,0,0,.31-5.98,1.027,1.027,0,0,1,.39-1.05,0.859,0.859,0,0,0,.49-0.67c0-.26-0.05-0.48-1.24-0.57l-5.19-.44a73.833,73.833,0,0,1-.22,8.71h-12.76v4.84h12.06a28.8,28.8,0,0,1-3.57,9.6,25.7,25.7,0,0,1-10.16,9.5l4.44,3.52a28.872,28.872,0,0,0,10.52-10.82,40.714,40.714,0,0,0,4.22-11.8h9.02c-0.17,6.52-1.32,13.56-3.03,15.84-0.62.89-1.23,1.24-2.77,1.24a35.981,35.981,0,0,1-4.49-.49l2.51,5.68c4.97-.04,7.21-0.62,8.93-2.91C4099.9,4781.64,4102.28,4773.81,4102.54,4759.77Zm45.37,9.16-2.99-4.45c-2.82,4.27-7.84,9.2-11.62,11.27v-19.23c0-.04.53-0.49,0.53-0.53a0.964,0.964,0,0,0,.48-0.66c0-.44-0.83-0.53-1.23-0.57l-5.1-.62v26.71l3.74,2.9C4137,4780.81,4143.6,4774.74,4147.91,4768.93Zm-23.72-13.25c0-.48-0.48-0.61-1.27-0.66l-5.33-.35a63.514,63.514,0,0,1,.49,8.32c0,10.95-5.2,14.69-9.42,17.16l4.88,3.56c3.22-2.55,8.45-6.86,9.51-15.97,0.22-1.94.22-2.6,0.22-10.83a0.6,0.6,0,0,1,.31-0.57A1.1,1.1,0,0,0,4124.19,4755.68Zm56.98,1.68v-4.76h-21.29v4.76h21.29Zm5.94,10.91v-4.53h-33.22v4.53h14.79c-0.22,8.58-2.95,12.8-11.75,15.97l4.31,3.61a20.56,20.56,0,0,0,9.77-8.19,22.589,22.589,0,0,0,2.77-11.39h13.33Zm47.21-9.02a1.937,1.937,0,0,0-.92-1.02l-4.31-2.68a50.521,50.521,0,0,1-10.34,10.52v-13.25a1.177,1.177,0,0,1,.66-0.83,1.109,1.109,0,0,0,.44-0.62c0-.57-0.79-0.62-1.41-0.66l-4.66-.39v33c0,2.94,1.32,4.18,4.26,4.18h9.46c3.57,0,5.11-.62,6.3-6.47l-4.4-3.08c-0.44,3.65-1.02,4.71-2.64,4.71h-6.12c-1.54,0-1.89-.58-1.89-2.38v-8.32a89.573,89.573,0,0,0,10.03-8.09c0.66-.62,3.7-3.87,3.92-3.96,0.22-.05,1.1-0.05,1.27-0.09A0.659,0.659,0,0,0,4234.32,4759.25Zm-22.74-5.77a1.4,1.4,0,0,0-.84-0.88l-4.71-2.51a55.086,55.086,0,0,1-11.39,18.31l4.26,3.03a32.6,32.6,0,0,0,2.73-3.43v20.02h5.15v-24.9a1.5,1.5,0,0,1,.57-1.06,1.144,1.144,0,0,0,.22-0.7,1.021,1.021,0,0,0-.66-0.79c2.03-3.52,2.33-4.23,3.21-5.9a1.409,1.409,0,0,1,1.02-.61A0.647,0.647,0,0,0,4211.58,4753.48Z" transform="translate(-3715.25 -4749.69)"/>
</svg>
