<svg xmlns="http://www.w3.org/2000/svg" width="500.63" height="39.91" viewBox="0 0 500.63 39.91">
  <defs>
    <style>
      .cls-1 {
        fill: #2b2c34;
        fill-rule: evenodd;
      }
    </style>
  </defs>
  <path id="パス_1158" data-name="パス 1158" class="cls-1" d="M3752.57,4662.04v-4.13h-6.38v-4.23h4.84v-3.78h-4.84v-4.14h4.84v-3.78h-4.84v-3.56h6.38v-4.14h-5.59a34.937,34.937,0,0,0,2.29-4.31,1.383,1.383,0,0,1,1.14-.62,0.433,0.433,0,0,0,.35-0.44,0.919,0.919,0,0,0-.57-0.57l-4.84-1.8a39.686,39.686,0,0,1-4.09,7.74h-3.39c0.57-1.01,1.81-3.3,2.38-4.58a0.931,0.931,0,0,1,.75-0.57,0.6,0.6,0,0,0,.57-0.53,0.917,0.917,0,0,0-.62-0.57l-4.57-1.71a44.655,44.655,0,0,1-7.53,13.28v-0.88h-11.44v3.61h11.44v-0.35l2.86,2.33a17.825,17.825,0,0,0,1.67-2.38v21.83h4.4v-1.72h14.79Zm-10.87-12.14h-3.92v-4.14h3.92v4.14Zm0-7.92h-3.92v-3.56h3.92v3.56Zm0,15.93h-3.92v-4.23h3.92v4.23Zm-12.45,4.66v-12.45h-12.67v13.82h4.31v-2.91h4.05v1.54h4.31Zm-4.31-5.02h-4.05v-3.91h4.05v3.91Zm3.78-26.92v-3.66h-10.91v3.66h10.91Zm2.07,6.02v-3.87H3715.3v3.87h15.49Zm-1.94,11.31v-3.61h-11.44v3.61h11.44Zm66.75-7.17a20.144,20.144,0,0,0-3.65-3.34l-1.85,2.11a20.417,20.417,0,0,1,3.65,3.34Zm-2.11-7.48v-5.1c-8.32,2.55-21.96,3.6-31.46,3.52l0.75,4.92c4.4-.61,10.86-1.14,16.76-1.62a32.891,32.891,0,0,0-5.81,6.68,16.051,16.051,0,0,0-2.99,8.76,11.015,11.015,0,0,0,3.26,7.92c3.56,3.57,8.49,4.49,10.82,4.89l1.72-5.37a13.844,13.844,0,0,1-7.75-2.25,6.983,6.983,0,0,1-3.17-5.72c0-3.34,2.12-7.3,5.37-10.56C3786.58,4633.75,3791.42,4633.44,3793.49,4633.31Zm-1.45,11.49a18.819,18.819,0,0,0-3.66-3.39l-1.8,2.11a19.426,19.426,0,0,1,3.61,3.39Zm40.48,8.18a18.258,18.258,0,0,0-2.91-9.55l-4.09,2.16a13.481,13.481,0,0,1,1.98,6.55c0,5.33-4.44,6.87-8.05,6.87a5.968,5.968,0,0,1-4.14-1.32,5.275,5.275,0,0,1-1.41-3.88,27.333,27.333,0,0,1,.53-4.04c1.19,0.08,2.25.22,3.92,0.22,2.15,0,3.52-.14,4.18-0.18l1.14-4.84a28.412,28.412,0,0,1-5.19.35,17.149,17.149,0,0,1-2.9-.13c0.79-2.81,1.32-4.4,1.84-5.89a41.786,41.786,0,0,0,6.47.35l1.01-4.75c-2.55.04-3.56,0.04-5.76-.05a46.528,46.528,0,0,1,2.33-5.15c0.71-.22,1.32-0.08,1.32-0.61a1.242,1.242,0,0,0-1.01-.84l-5.06-1.89c-0.62,2.24-1.28,4.09-2.6,7.92a34.083,34.083,0,0,1-7.48-2.2l-0.39,5.1c2.51,0.66,3.65.88,6.38,1.41-0.97,2.86-1.37,4.31-1.81,5.85a31.1,31.1,0,0,1-5.94-1.67l-0.74,4.84a33.385,33.385,0,0,0,5.54,1.45,30.288,30.288,0,0,0-.53,4.97c0,8.1,6.38,9.6,10.65,9.6C3825.34,4663.63,3832.52,4660.59,3832.52,4652.98Zm44.04-12.19a20.144,20.144,0,0,0-3.65-3.34l-1.85,2.11a20.417,20.417,0,0,1,3.65,3.34Zm-2.11-7.48v-5.1c-8.32,2.55-21.96,3.6-31.46,3.52l0.75,4.92c4.4-.61,10.86-1.14,16.76-1.62a32.891,32.891,0,0,0-5.81,6.68,16.051,16.051,0,0,0-2.99,8.76,11.015,11.015,0,0,0,3.26,7.92c3.56,3.57,8.49,4.49,10.82,4.89l1.72-5.37a13.844,13.844,0,0,1-7.75-2.25,6.983,6.983,0,0,1-3.17-5.72c0-3.34,2.12-7.3,5.37-10.56C3867.54,4633.75,3872.38,4633.44,3874.45,4633.31ZM3873,4644.8a18.819,18.819,0,0,0-3.66-3.39l-1.8,2.11a19.426,19.426,0,0,1,3.61,3.39Zm39.99-5.42-0.79-4.4a49.684,49.684,0,0,1-8.01,3.96c-0.7-1.54-.88-1.98-1.45-3.34a29.222,29.222,0,0,0,6.95-2.99l-0.97-4.27a43.094,43.094,0,0,1-7.52,3.39,39.153,39.153,0,0,1-1.32-4.05,0.907,0.907,0,0,1,.4-0.62,0.819,0.819,0,0,0,.35-0.57c0-.53-1.1-0.4-1.45-0.35l-5.02.57c0.7,2.07,1.19,3.48,2.2,6.21a54.74,54.74,0,0,1-10.25.88l1.36,4.22a50.168,50.168,0,0,0,10.47-1.19c0.44,1.01.93,2.11,1.59,3.61a58.725,58.725,0,0,1-13.86,1.32l1.54,4.44a56.54,56.54,0,0,0,14.12-1.93c0.84,1.63,1.23,2.42,2.29,4.31a33.3,33.3,0,0,0-6.29-.71c-4.97,0-9.73,1.63-9.73,7.66,0,5.81,5.46,8.32,13.38,8.32a44.88,44.88,0,0,0,6.95-.53l0.44-5.19a32.387,32.387,0,0,1-8.8,1.19c-1.49,0-7.21,0-7.21-3.74,0-2.38,2.42-3.61,5.32-3.61a24.829,24.829,0,0,1,11.53,3.34l2.68-3.34a47.882,47.882,0,0,1-5.81-9.16A32.034,32.034,0,0,0,3912.99,4639.38Zm41.19,11a9.7,9.7,0,0,0-9.77-9.72,34.884,34.884,0,0,0-4.27.26c6.38-6.51,7.13-7.21,9.77-9.41l-2.29-3.57c-4.18,1.63-11.66,2.2-13.33,2.2-1.37,0-3.87-.17-4.93-0.26l1.01,4.93a41.671,41.671,0,0,0,10.3-1.1c-7.04,8.53-11.71,12.45-16.28,15.88l3.69,3.87c2.47-2.5,6.34-6.42,9.07-7.87a11.767,11.767,0,0,1,5.01-1.1c2.86,0,7.13,1.41,7.13,5.76a7.727,7.727,0,0,1-2.9,5.85c-1.23-1.54-4.09-5.14-8.67-5.14a6.163,6.163,0,0,0-6.47,5.85c0,3.25,2.82,6.03,8.32,6.03C3947.31,4662.84,3954.18,4657.69,3954.18,4650.38Zm-11.88,7.88a12.789,12.789,0,0,1-3,.39c-1.58,0-3.6-.43-3.6-1.97a1.932,1.932,0,0,1,2.2-1.85C3940.4,4654.83,3941.72,4657.25,3942.3,4658.26Zm59.04-4.88c-2.81-2.64-6.82-6.43-17.07-17.65a6.73,6.73,0,0,0-5.37-2.59c-1.93,0-3.3.61-6.55,4.4-3.04,3.52-6.21,7.17-9.46,10.29l4.49,3.87c2.2-2.42,4.66-5.54,7.52-9.1,2.38-3,2.86-3.61,4.14-3.61s1.98,0.75,3.38,2.42a184.4,184.4,0,0,0,15.18,16.32Zm41.14-19.5-4.04-4.09a2.691,2.691,0,0,1-1.54.97h-29.62v4.75h27.55a40.565,40.565,0,0,1-8.01,9.5l4.09,3.48C4035.71,4643.78,4040.33,4637.05,4042.48,4633.88Zm-15.22,3.48c0-.35-0.13-0.35-1.06-0.4l-5.14-.26c0.35,9.15-1.72,16.15-11,22.57l4.7,2.77c2.34-1.71,9.77-7.21,11.27-19.8,0.09-.57.26-3.65,0.35-3.74a5.138,5.138,0,0,1,.66-0.74A0.768,0.768,0,0,0,4027.26,4637.36Zm57.38,2.81v-4.97h-22.62c1.5-2.94,2.02-4.18,2.73-5.89a1.081,1.081,0,0,1,.7-0.84c0.44-.13.57-0.22,0.57-0.53a1.486,1.486,0,0,0-1.1-.88l-5.01-1.8c-2.73,9.02-6.43,15-12.94,21.03l5.15,2.86a50.827,50.827,0,0,0,6.95-8.98h9.24a24.024,24.024,0,0,1-2.55,11.05,25.9,25.9,0,0,1-10.3,10.65l5.37,3.3a33.135,33.135,0,0,0,10.21-12.32,29.3,29.3,0,0,0,2.73-12.68h10.87Zm42.32-6.29-4.04-4.09a2.691,2.691,0,0,1-1.54.97h-29.62v4.75h27.55a40.565,40.565,0,0,1-8.01,9.5l4.09,3.48C4120.19,4643.78,4124.81,4637.05,4126.96,4633.88Zm-15.22,3.48c0-.35-0.13-0.35-1.06-0.4l-5.14-.26c0.35,9.15-1.72,16.15-11,22.57l4.7,2.77c2.34-1.71,9.77-7.21,11.27-19.8,0.09-.57.26-3.65,0.35-3.74a5.138,5.138,0,0,1,.66-0.74A0.768,0.768,0,0,0,4111.74,4637.36Zm37.75,26.49v-14.08h-13.86v14.43h4.23v-1.72h5.41v1.37h4.22Zm18.83-17.47a3.2,3.2,0,0,0-.96-1.28l-2.91-2.55c-2.77,3.3-6.6,6.73-13.51,9.9l3.3,3.48a48.882,48.882,0,0,0,12.19-8.85,1.713,1.713,0,0,1,.84-0.22C4167.88,4646.86,4168.32,4646.86,4168.32,4646.38Zm-23.1,12.06h-5.36v-4.8h5.36v4.8Zm19.14-17.87a2.156,2.156,0,0,0-.7-1.1l-2.9-2.51a35.577,35.577,0,0,1-10.04,8.14l3.17,3.26a45.542,45.542,0,0,0,8.89-7.08,1.779,1.779,0,0,1,1.06-.27A0.509,0.509,0,0,0,4164.36,4640.57Zm-15.57,7.13v-3.61h-12.81v3.61h12.81Zm23.89-10.6c-5.1-2.78-8.58-5.99-9.94-8.72a0.923,0.923,0,0,0,.79-0.79c0-.53-0.88-0.75-1.06-0.79l-4.66-1.01a26,26,0,0,1-6.91,9.81v-2.86h-16.76v3.83h15.75a14.416,14.416,0,0,1-2.47,1.98h-11.3v3.65h12.58v-3.04l2.95,2.2a44.341,44.341,0,0,0,8.27-9.28,36.34,36.34,0,0,0,9.42,8.8Zm-24.29-6.39v-3.6h-12.01v3.6h12.01Zm23.85,21.96a2.951,2.951,0,0,0-.92-1.41l-2.91-2.46c-5.06,5.41-10.51,8.93-18.83,11.48l3.39,4.18a52.376,52.376,0,0,0,16.85-10.56,1.761,1.761,0,0,1,1.58-.75C4171.84,4653.15,4172.24,4653.15,4172.24,4652.67Zm43.69-21.82a1.771,1.771,0,0,0-.39-0.97l-3.04-4.18a51.546,51.546,0,0,1-10.03,3.21l-3.13-.04c0.18,5.76.22,7.52,0.22,10.12,0,13.2-1.71,16.32-3.6,19.62v-1.8h-13.6v-5.42l3.21,2.47a14.578,14.578,0,0,0,2.95-3.78v5.93h4.05v-6.68a18.182,18.182,0,0,0,2.95,2.9l2.99-3.52a20.488,20.488,0,0,1-5.55-6.51h4.93v-3.92h-5.32v-2.64l3.08,1.67a35.171,35.171,0,0,0,2.46-4.92c0.97-.27,1.15-0.31,1.15-0.62a0.971,0.971,0,0,0-.66-0.75l-3.88-1.32a24.956,24.956,0,0,1-2.15,4.62v-6.11a0.89,0.89,0,0,1,.53-0.53,0.853,0.853,0,0,0,.48-0.62c0-.44-0.48-0.52-1.1-0.57l-3.96-.22v7.79a26.6,26.6,0,0,0-2.6-4.49l-3.56,1.28v-0.88a0.807,0.807,0,0,1,.53-0.49,0.859,0.859,0,0,0,.48-0.61c0-.44-0.39-0.57-1.05-0.57l-4.05-.09v35.64h4.09v-2.73h11.7c-0.44.44-.88,0.88-1.32,1.27l4.45,2.34c2.9-3.08,4.44-6.43,5.59-10.87a49.146,49.146,0,0,0,1.32-10.17h3.43v20.55h4.79v-20.55h3.52v-4.88h-11.66c0-1.45,0-4.18-.04-5.63a77.142,77.142,0,0,0,8.62-1.89c0.4-.09,1.24-0.31,1.28-0.31,0.22,0,1.23.26,1.45,0.26A0.362,0.362,0,0,0,4215.93,4630.85Zm-27.41,7.43h-4.97v3.92h3.74a22.628,22.628,0,0,1-4.93,7.83v-17.77a23.41,23.41,0,0,1,2.38,4.84l3.78-1.46v2.64Z" transform="translate(-3715.31 -4625.25)"/>
</svg>
