<svg xmlns="http://www.w3.org/2000/svg" width="578" height="118.31" viewBox="0 0 578 118.31">
  <defs>
    <style>
      .cls-1 {
        fill: #e9e9ea;
        fill-rule: evenodd;
      }
    </style>
  </defs>
  <path id="パス_1094" data-name="パス 1094" class="cls-1" d="M3850.53,4906.53a34.849,34.849,0,0,0-13.24-6.02,86.993,86.993,0,0,0-18.98-1.64H3754v114.57h28.78v-43.29h35.53c10.36,0,18.2-1.02,23.93-3.12a29.226,29.226,0,0,0,14.54-11.44,36.075,36.075,0,0,0,6.31-21.13,40.264,40.264,0,0,0-3.16-15.88A32.287,32.287,0,0,0,3850.53,4906.53Zm-16.68,27.94a10.921,10.921,0,0,1-1.35,5.31,6.68,6.68,0,0,1-3.21,2.98c-1.67.86-5.4,1.89-13.63,1.89h-32.88v-20.28h32.88c8.23,0,11.96,1.03,13.8,1.98a6.574,6.574,0,0,1,3.09,2.99A10.624,10.624,0,0,1,3833.85,4934.47Zm366.69,30.03-64.48-65.63h-24.43v114.57h26.91v-67.22l66.36,67.22h22.55V4898.87h-26.91v65.63Zm52.4-65.63v25.5h41.25v89.07h28.77v-89.06l41.26-.01v-25.5H4252.94Zm-209,0h28.78v114.57h-28.78V4898.87Zm-49.71,14.22c-11.35-10.68-26.88-16.09-46.18-16.09H3948c-25.75.33-44.28,9.66-55.08,27.69a60.157,60.157,0,0,0,9.42,74.54c11.34,10.67,26.77,16.08,45.87,16.08,25.54,0,44.19-9.37,55.42-27.82a57.767,57.767,0,0,0,8.73-30.71C4012.36,4939.04,4006.26,4924.34,3994.23,4913.09Zm-80.78,42.95a31.228,31.228,0,0,1,11.08-24.94,34.573,34.573,0,0,1,22.33-8.16c0.4,0,.8.01,1.2,0.02l0.12,0.01,0.12-.01a36.335,36.335,0,0,1,23.75,8.13c7.45,6.25,11.07,14.6,11.07,25.53a32.526,32.526,0,0,1-2.67,12.86,30.556,30.556,0,0,1-8.41,11.58,34.427,34.427,0,0,1-23.54,8.14l-0.15-.01-0.14.01a34.9,34.9,0,0,1-23.69-8.14,30.729,30.729,0,0,1-11.07-24.76l0.01-.13Z" transform="translate(-3754 -4897)"/>
</svg>
