<svg xmlns="http://www.w3.org/2000/svg" width="926" height="332.4" viewBox="0 0 1852 664.8">
  <defs>
    <style>
      .cls-1 {
        fill-rule: evenodd;
      }
    </style>
  </defs>
  <path id="パス_1062" data-name="パス 1062" class="cls-1" d="M2172.54,16333.8c-34.61,0-75.62-12.5-121.82-37l-6.28-3.3,23.5-60.6,8.57,7.2c8.99,7.7,23.94,15.3,44.46,22.8s38.26,11.4,52.75,11.4c16.01,0,29.65-2.6,40.54-7.6a39.109,39.109,0,0,0,14.13-10.5,17.01,17.01,0,0,0,4.46-11.2c0-2.1,0-6.9-10.28-10.3l-0.34-.1c-4.02-1.5-13.77-4-37.41-6.6l-28.8-3a412.99,412.99,0,0,1-41.17-5.8h-0.31a103.245,103.245,0,0,1-25.15-9.4,69.361,69.361,0,0,1-29.22-28.7,79.641,79.641,0,0,1-9.21-38.9c0-23.4,7.98-43.4,23.72-59.1,20.25-20,50.91-30.1,91.16-30.1a219.837,219.837,0,0,1,54.19,7.4c19.19,4.9,41.58,15.8,66.46,32.2l6.14,4-30.52,55.9-7.52-6.8c-22.7-20.6-52.14-31.9-87.5-33.6h-1.59a111.311,111.311,0,0,0-31.92,4.6,36.761,36.761,0,0,0-15.94,9.3,15.225,15.225,0,0,0-4.93,10.9c0,2.3,0,8,13.58,11.6,3.94,1.2,13.53,3,37.72,5.4l29.64,3a253.384,253.384,0,0,1,43.16,8.2,102.806,102.806,0,0,1,30.39,14.6l0.25,0.2a71.714,71.714,0,0,1,21.75,27.5,82.761,82.761,0,0,1,7.64,35.1,83.734,83.734,0,0,1-18.25,53c-11.27,14-28.64,24.5-51.64,31.2a203.234,203.234,0,0,1-53.06,7.1h-1.35Zm-334.57,0c-41.57,0-73.9-7-96.08-20.7a67.817,67.817,0,0,1-28.11-35.4c-5-13.7-7.56-30.2-7.56-49.1v-171.1h65.88v155.4c0,14,.8,24.3,2.39,30.7a29.128,29.128,0,0,0,7.67,13.9c11.11,11.1,30.66,16.8,58.06,16.8,27.42,0,46.96-5.7,58.1-16.8a29.257,29.257,0,0,0,7.61-13.8c1.62-6.5,2.42-16.8,2.42-30.8v-155.4h61.38l-0.01,171.1c0,29-5.14,50.4-15.71,65.4C1934.68,16320.8,1896.74,16333.8,1837.97,16333.8Zm536.35-4.6v-271.7h245.5v58H2440.2v44.7h123.37v56.9H2440.2v54.1h184.12v58h-250Zm97.26-379.4c-45.41,0-82.07-12.9-108.99-38.2a143.877,143.877,0,0,1-22.34-176.9c25.62-42.8,69.66-64.9,130.85-65.7,46,0,82.92,12.8,109.83,38.2,28.54,26.7,43.02,61.6,43.02,103.7a137.072,137.072,0,0,1-20.71,72.8C2576.6,15927.5,2532.29,15949.8,2471.58,15949.8Zm-0.03-221.7c-23.47,0-42.36,6.5-57.74,19.8-18.33,15.8-27.23,35.9-27.23,61.5,0,25.5,8.89,45.5,27.18,61,15.44,13.4,34.46,19.8,58.19,19.8,23.48,0,42.37-6.4,57.76-19.7a76.235,76.235,0,0,0,20.72-28.5,80.059,80.059,0,0,0,6.52-31.5c0-26.8-8.88-47.2-27.14-62.5C2514.36,15735.1,2494.75,15728.4,2471.55,15728.1Zm-1263.43,221.7c-45.4,0-82.07-12.9-108.98-38.2a140.092,140.092,0,0,1-33.09-49.4,145.289,145.289,0,0,1,10.75-127.5c25.62-42.8,69.65-64.9,130.84-65.7,46,0,82.92,12.8,109.84,38.2,28.53,26.7,43.01,61.6,43.01,103.7a136.973,136.973,0,0,1-20.7,72.8C1313.14,15927.5,1268.83,15949.8,1208.12,15949.8Zm-0.03-221.7c-23.47,0-42.35,6.5-57.74,19.8-18.33,15.8-27.23,35.9-27.23,61.5,0,25.5,8.89,45.5,27.18,61,15.44,13.4,34.46,19.8,58.19,19.8,23.48,0,42.38-6.4,57.77-19.7a76.1,76.1,0,0,0,20.71-28.5,80.247,80.247,0,0,0,6.53-31.5c0-26.8-8.88-47.2-27.14-62.5C1250.91,15735.1,1231.3,15728.4,1208.09,15728.1Zm900.62,217.1v-213.7h-99v-58h263.88v58h-99v213.7h-65.88Zm-414.61,0-67.74-166.7-67.74,166.7H1511.3l-101.22-271.7h68.77l57.74,150.9,61.51-150.9h60.72l59.1,151.5,60.12-151.5h66.12l-102.39,271.7H1694.1Zm-782.474,0,0-111.7H773.879v111.7H708v-271.7h65.874v102h137.75v-102H977.5v271.7H911.626Z" transform="translate(-708 -15669)"/>
</svg>
