<svg xmlns="http://www.w3.org/2000/svg" width="76.795" height="68.9" viewBox="0 0 153.59 137.8">
  <defs>
    <style>
      .cls-1 {
        fill: #6e31ff;
        fill-rule: evenodd;
      }
    </style>
  </defs>
  <path id="パス_1151" data-name="パス 1151" class="cls-1" d="M1791.81,16878.7c-10.11,0-18.21-3-24.29-9.2q-9.12-9.15-9.12-24.6v-70.2q0-15.45,9.12-24.6c6.08-6.2,14.18-9.2,24.29-9.2s18.27,3.1,24.48,9.3,9.31,14.4,9.31,24.5v70.2c0,10.1-3.1,18.3-9.31,24.5S1801.92,16878.7,1791.81,16878.7Zm0-5.3c8.45,0,15.23-2.6,20.35-7.7s7.68-11.9,7.68-20.2v-71.4c0-8.3-2.56-15.1-7.68-20.2s-11.9-7.7-20.35-7.7c-8.32,0-15.01,2.6-20.07,7.7s-7.58,11.9-7.58,20.2v71.4c0,8.3,2.53,15.1,7.58,20.2S1783.49,16873.4,1791.81,16873.4Zm116.16-60.9q4.035,9.75,4.03,24.9a70.2,70.2,0,0,1-2.5,19.4c-4.35,14.5-13.88,21.7-28.6,21.7q-11.34,0-18.92-6.3c-5.05-4.2-8.48-10.1-10.27-17.5a81.031,81.031,0,0,1-1.73-14.9,1.747,1.747,0,0,1,1.92-2h1.92a1.747,1.747,0,0,1,1.92,2,81.674,81.674,0,0,0,1.35,12.8c1.41,6.4,4.16,11.4,8.25,15.1a22.774,22.774,0,0,0,15.56,5.5q17.85,0,23.04-17.7a62.939,62.939,0,0,0,2.3-18.2c0-9-1.09-16.4-3.26-22.3q-6.15-15.6-22.08-15.6a34.409,34.409,0,0,0-4.23.4h-0.77a1.833,1.833,0,0,1-1.72-.8l-0.77-.7a1.984,1.984,0,0,1-.19-2.7l30.91-46.7a0.364,0.364,0,0,0,0-.5,0.574,0.574,0,0,0-.58-0.4h-51.26a1.716,1.716,0,0,1-1.92-1.9v-1.6a1.675,1.675,0,0,1,1.92-1.9h57.41a1.675,1.675,0,0,1,1.92,1.9v2.1a5.7,5.7,0,0,1-.77,2.5l-29.38,45a0.364,0.364,0,0,0,0,.5,0.574,0.574,0,0,0,.58.4,28.588,28.588,0,0,1,16.03,4.4A26.457,26.457,0,0,1,1907.97,16812.5Z" transform="translate(-1758.41 -16740.9)"/>
</svg>
