<svg xmlns="http://www.w3.org/2000/svg" width="107.545" height="24.15" viewBox="0 0 215.09 48.3">
  <defs>
    <style>
      .cls-1 {
        fill: #6e31ff;
        fill-rule: evenodd;
      }
    </style>
  </defs>
  <path id="パス_1137" data-name="パス 1137" class="cls-1" d="M1991.06,16989.6h-17.59a71.9,71.9,0,0,0,.39-7.6,1.22,1.22,0,0,1,.51-1.3,1.08,1.08,0,0,0,.61-0.9c0-.3-0.05-0.6-1.56-0.7l-6.61-.6a91.579,91.579,0,0,1-.28,11.1h-16.24v6.2h15.34a36.075,36.075,0,0,1-4.53,12.2,32.674,32.674,0,0,1-12.94,12.1l5.66,4.5a37.026,37.026,0,0,0,13.38-13.8,53.346,53.346,0,0,0,5.38-15h11.48c-0.23,8.3-1.68,17.2-3.87,20.1-0.78,1.2-1.57,1.6-3.53,1.6a45.466,45.466,0,0,1-5.71-.6l3.19,7.2c6.33,0,9.19-.8,11.37-3.7S1990.72,17007.5,1991.06,16989.6Zm59.97,11.7-3.81-5.7c-3.58,5.4-9.96,11.7-14.78,14.4v-24.5c0-.1.67-0.6,0.67-0.7a1.135,1.135,0,0,0,.62-0.8c0-.6-1.07-0.7-1.57-0.8l-6.5-.7v33.9l4.76,3.7C2037.14,17016.4,2045.54,17008.7,2051.03,17001.3Zm-30.18-16.9c0-.6-0.62-0.8-1.63-0.8l-6.77-.5a84,84,0,0,1,.61,10.6c0,14-6.6,18.7-11.98,21.9l6.22,4.5c4.08-3.3,10.75-8.7,12.09-20.3,0.28-2.5.28-3.3,0.28-13.8a0.676,0.676,0,0,1,.39-0.7C2020.74,16984.7,2020.85,16984.6,2020.85,16984.4Zm74.76,2.1v-6H2068.5v6h27.11Zm7.56,13.9v-5.7h-42.28v5.7h18.81c-0.28,11-3.75,16.3-14.95,20.4l5.49,4.6c3.08-1.5,8.68-4.1,12.43-10.5,3.31-5.6,3.47-11.3,3.53-14.5h16.97Zm60.09-11.4a2.136,2.136,0,0,0-1.18-1.3l-5.49-3.5a61.055,61.055,0,0,1-13.16,13.4v-16.8a1.594,1.594,0,0,1,.84-1.1,1.24,1.24,0,0,0,.56-0.8c0-.7-1.01-0.8-1.79-0.8l-5.94-.5v42c0,3.7,1.68,5.3,5.44,5.3h12.04c4.53,0,6.49-.8,8-8.2l-5.6-3.9c-0.56,4.6-1.28,5.9-3.36,5.9h-7.78c-1.96,0-2.41-.7-2.41-3v-10.6a109.756,109.756,0,0,0,12.77-10.3c0.84-.8,4.7-4.9,4.98-5a9.2,9.2,0,0,1,1.63-.1A0.841,0.841,0,0,0,2163.26,16989Zm-28.96-7.4a1.681,1.681,0,0,0-1.06-1.1l-5.99-3.2a69.727,69.727,0,0,1-14.51,23.3l5.44,3.9a55.842,55.842,0,0,0,3.47-4.4v25.5h6.55v-31.7c0-.5.11-0.6,0.73-1.4a1.445,1.445,0,0,0,.28-0.9,1.511,1.511,0,0,0-.84-1c2.57-4.4,2.97-5.3,4.09-7.5,0.16-.3.28-0.4,1.28-0.8A0.66,0.66,0,0,0,2134.3,16981.6Z" transform="translate(-1948.16 -16977.3)"/>
</svg>
