<svg xmlns="http://www.w3.org/2000/svg" width="52.894" height="24.533" viewBox="0 0 104.782 48.6">
  <defs>
    <style>
      .cls-1 {
        fill: #6e31ff;
        fill-rule: evenodd;
      }
    </style>
  </defs>
  <path id="パス_1135" data-name="パス 1135" class="cls-1" d="M484.08,16381.6v-5.6H472.1a57.889,57.889,0,0,0,3.7-7.5,1.031,1.031,0,0,1,.784-0.6,0.657,0.657,0,0,0,.392-0.4,1.414,1.414,0,0,0-.952-1l-4.088-1.8h9.688v-5.4h-18.48v-3.2a1.354,1.354,0,0,1,.56-0.7,0.918,0.918,0,0,0,.5-0.7c0-.4-0.392-0.6-1.008-0.6l-6.1-.7v5.9h-18.48v5.4h8.4l-4.312,2a89.136,89.136,0,0,1,4.424,9.3H435.864v5.6h16.912q-5.88,8.7-17.472,15l4.76,4.5a52.936,52.936,0,0,0,17.024-15.8v16.4h6.048v-15.5a42.557,42.557,0,0,0,15.848,14.5l4.592-4.8c-6.72-3.5-12.936-7.9-16.912-14.3H484.08Zm-13.328-16.9a45.085,45.085,0,0,1-4.144,9.6l2.856,1.7h-6.328v-11.3h7.616Zm-13.664,11.3h-7.952l3.584-1.9a48.513,48.513,0,0,0-4.368-9.4h8.736v11.3Zm82.992-10.8v-5.8h-20.5v-3.1a0.866,0.866,0,0,1,.672-0.6,1.45,1.45,0,0,0,.784-0.9,1.038,1.038,0,0,0-1.232-.8l-7.336-.5v5.9h-16.8v15.9c0,13.5-3.416,20-5.376,23.8l6.1,2.3a50.953,50.953,0,0,0,3.92-11.2,71.9,71.9,0,0,0,1.792-16.2v-8.8H514.04v16.7H503.792v20.1h6.16v-1.5h19.376v1.5h6.5v-20.1H520.48v-5.6h18.872v-5.8H520.48v-2.7c0.784-.4,1.232-0.6,1.232-1.1s-0.952-.7-1.568-0.8l-3.416-.7H540.08Zm-10.752,29.7H509.952v-7h19.376v7Z" transform="translate(-435.312 -16353.4)"/>
</svg>
