<svg xmlns="http://www.w3.org/2000/svg" width="79.789" height="69.327" viewBox="0 0 158.594 137.8">
  <defs>
    <style>
      .cls-1 {
        fill: #6e31ff;
        fill-rule: evenodd;
      }
    </style>
  </defs>
  <path id="パス_1152" data-name="パス 1152" class="cls-1" d="M1007.81,16558.7c-10.114,0-18.21-3-24.29-9.2q-9.12-9.15-9.12-24.6v-70.2q0-15.45,9.12-24.6c6.08-6.2,14.176-9.2,24.29-9.2s18.27,3.1,24.48,9.3,9.31,14.4,9.31,24.5v70.2c0,10.1-3.1,18.3-9.31,24.5S1017.92,16558.7,1007.81,16558.7Zm0-5.4c8.45,0,15.23-2.5,20.35-7.6s7.68-11.9,7.68-20.2v-71.4c0-8.3-2.56-15.1-7.68-20.2s-11.9-7.7-20.35-7.7c-8.322,0-15.01,2.6-20.066,7.7s-7.584,11.9-7.584,20.2v71.4c0,8.3,2.528,15.1,7.584,20.2S999.488,16553.3,1007.81,16553.3Zm66.81-2.6a0.545,0.545,0,0,0,0,.6,0.643,0.643,0,0,0,.58.3h55.87a1.716,1.716,0,0,1,1.92,1.9v1.6a1.675,1.675,0,0,1-1.92,1.9h-62.21a1.675,1.675,0,0,1-1.92-1.9v-1.9a5.7,5.7,0,0,1,.77-2.5l38.59-58.4c10.5-16.1,15.75-29.3,15.75-39.4q0-11.85-6.82-19.2c-4.54-4.8-10.59-7.3-18.14-7.3-7.43,0-13.35,2.5-17.76,7.3q-6.63,7.35-6.43,19.2v6.6a1.716,1.716,0,0,1-1.92,1.9h-2.12a1.716,1.716,0,0,1-1.92-1.9v-6.8c0.13-9.4,2.95-17.1,8.45-22.9s12.74-8.7,21.7-8.7c9.21,0,16.67,2.9,22.37,8.8s8.54,13.6,8.54,23c0,11.4-5.5,25.4-16.51,42.1q-11.91,18.45-22.66,34.2Z" transform="translate(-974.406 -16420.9)"/>
</svg>
