<svg xmlns="http://www.w3.org/2000/svg" width="1281.5" height="228.3" viewBox="0 0 1281.5 228.3">
  <defs>
    <style>
      .cls-1 {
        fill: none;
        stroke: #e9e9ea;
        stroke-width: 4px;
        fill-rule: evenodd;
      }
    </style>
  </defs>
  <path id="パス_1072" data-name="パス 1072" class="cls-1" d="M686.816,22732.3v135.8H641V22647h58.234l68.672,123.7,72.3-123.7h54.73v221.1H845.378v-136.6l-81.724,137.8Zm1177.354,135.8-27.2-54.4h-95.06l-27.18,54.4h-46.86l102.46-221.1h41.96l105.05,221.1h-53.17Zm-42.46-91.4-31.67-63.1-32.19,63.1h63.86Zm-268.24,91.4V22647h49.57v221.1h-49.57Zm-298.83,0V22647H1365.2c26.05,0,46.45,3.1,60.63,9.1a89.113,89.113,0,0,1,45.19,44.8c7.49,16.1,11.3,35.1,11.3,56.7,0,37.7-11.49,66.9-34.16,87a86.936,86.936,0,0,1-34.28,18.2c-12.65,3.5-29.04,5.3-48.69,5.3H1254.64Zm106.49-43c18.41,0,32.4-2.4,41.56-7.3,19.61-10.2,29.13-29.9,29.13-60.2,0-21.8-5.33-38.7-15.83-50.1a48.262,48.262,0,0,0-21.07-13.3c-8.54-2.8-19.89-4.2-33.76-4.2h-56.97v135.1h56.94Zm-380.34,43V22647h199.25v43H1030.35v42.6h102.81v42.1H1030.35v50.4h153.44v43h-203Z" transform="translate(-639 -22645)"/>
</svg>
