<svg xmlns="http://www.w3.org/2000/svg" width="40" height="40" viewBox="0 0 40 40">
  <g id="Group_1677" data-name="Group 1677" transform="translate(-690 -4330)">
    <g id="Group_1398" data-name="Group 1398" transform="translate(690 4330)">
      <g id="グループ_924" data-name="グループ 924" transform="translate(0 0)">
        <rect id="長方形_953" data-name="長方形 953" width="40" height="40" fill="none"/>
      </g>
      <g id="Group_1577" data-name="Group 1577" transform="translate(7.5 4.167)">
        <g id="Group_1570" data-name="Group 1570" transform="translate(0 10.774)">
          <path id="Path_1021" data-name="Path 1021" d="M1913.573,929.508a.469.469,0,0,1-.386-.734,6.079,6.079,0,0,0,1.167-3.427,15.846,15.846,0,0,0-.415-3.527.277.277,0,0,0-.116-.176.174.174,0,0,0-.138-.022c-.207.05-.378.1-.589.162-.359.1-.851.247-1.813.48a2.152,2.152,0,0,1-2.535-1.446c-.472-1.56-.982-3.054-1.145-3.528l-.83-.519a1.566,1.566,0,0,1-.841-1.127,1.546,1.546,0,0,1,.6-1.208,4.4,4.4,0,0,0,1.6-3.834.469.469,0,0,1,.926-.147,5.275,5.275,0,0,1-1.879,4.665c-.293.275-.316.4-.313.441s.034.175.412.42l.963.6a.471.471,0,0,1,.194.243c.007.018.636,1.822,1.211,3.721a1.217,1.217,0,0,0,1.417.806c.942-.228,1.4-.361,1.772-.469.225-.066.408-.119.629-.172a1.106,1.106,0,0,1,.856.138,1.216,1.216,0,0,1,.536.771,16.542,16.542,0,0,1,.435,3.8,6.982,6.982,0,0,1-1.33,3.886A.467.467,0,0,1,1913.573,929.508Z" transform="translate(-1905.928 -910.059)" fill="#2b2c34"/>
        </g>
        <g id="Group_1571" data-name="Group 1571" transform="translate(1.036 9.728)">
          <path id="Path_1022" data-name="Path 1022" d="M1908.415,907.55" transform="translate(-1908.415 -907.55)" fill="none" stroke="#6e31ff" stroke-linecap="round" stroke-linejoin="round" stroke-width="2.25"/>
        </g>
        <g id="Group_1572" data-name="Group 1572" transform="translate(4.968 7.2)">
          <path id="Path_1023" data-name="Path 1023" d="M1923.835,907.443a.471.471,0,0,1-.126-.017c-5.459-1.513-5.841-5.275-5.855-5.435a.469.469,0,0,1,.934-.082c.014.141.378,3.285,5.172,4.613a.469.469,0,0,1-.125.92Z" transform="translate(-1917.852 -901.482)" fill="#6e31ff"/>
        </g>
        <g id="Group_1573" data-name="Group 1573" transform="translate(8.92 6.647)">
          <path id="Path_1024" data-name="Path 1024" d="M1933.659,905.565l-.052,0a7.361,7.361,0,0,1-5.024-2.6,6.583,6.583,0,0,1-1.228-2.211.469.469,0,0,1,.9-.249,6.166,6.166,0,0,0,5.453,4.131.469.469,0,0,1-.051.934Z" transform="translate(-1927.337 -900.155)" fill="#6e31ff"/>
        </g>
        <g id="Group_1574" data-name="Group 1574" transform="translate(12.379 13.304)">
          <path id="Path_1025" data-name="Path 1025" d="M1941.189,934.594a.468.468,0,0,1-.243-.068,6.079,6.079,0,0,1-2.567-5.627,6.043,6.043,0,0,0-1.189-4.33,9.281,9.281,0,0,1-1.021-1.924,9.033,9.033,0,0,1,.042-6.232.469.469,0,0,1,.861.372,8.23,8.23,0,0,0-.022,5.54,8.451,8.451,0,0,0,.928,1.736,6.908,6.908,0,0,1,1.336,4.9,5.2,5.2,0,0,0,2.12,4.758.469.469,0,0,1-.245.869Z" transform="translate(-1935.637 -916.131)" fill="#6e31ff"/>
        </g>
        <g id="Group_1575" data-name="Group 1575" transform="translate(1.077)">
          <path id="Path_1026" data-name="Path 1026" d="M1932.449,915.969a.468.468,0,0,1-.33-.136c-2.153-2.134-2.11-3.431-2.065-4.8a6.928,6.928,0,0,0-.327-2.731,6.043,6.043,0,0,0-1.557-2.59,4.631,4.631,0,0,1-1.433-3.47,13.774,13.774,0,0,1,.525-4.068c.071-.3.134-.558.177-.777a9.121,9.121,0,0,0,.157-1.1,18.94,18.94,0,0,0-.158-4.3,8.417,8.417,0,0,0-7.3-6.793c-4.721-.373-7.906.823-9.737,3.66a5.423,5.423,0,0,0,.72,7,6.336,6.336,0,0,0,2.405,1.334.469.469,0,1,1-.278.895,7.255,7.255,0,0,1-2.757-1.535,6.357,6.357,0,0,1-.878-8.2c2.008-3.11,5.571-4.487,10.6-4.085a9.361,9.361,0,0,1,8.155,7.578,19.885,19.885,0,0,1,.168,4.515,9.815,9.815,0,0,1-.173,1.212c-.044.229-.111.5-.184.814a13,13,0,0,0-.5,3.782,3.733,3.733,0,0,0,1.178,2.892,7.006,7.006,0,0,1,1.764,2.934,7.823,7.823,0,0,1,.376,3.063c-.043,1.313-.074,2.261,1.787,4.107a.469.469,0,0,1-.33.8Z" transform="translate(-1908.512 -884.202)" fill="#6e31ff"/>
        </g>
        <g id="Group_1576" data-name="Group 1576" transform="translate(21.282 15.045)">
          <path id="Path_1027" data-name="Path 1027" d="M1957.006,920.31" transform="translate(-1957.006 -920.31)" fill="none" stroke="#6e31ff" stroke-linecap="round" stroke-linejoin="round" stroke-width="2.25"/>
        </g>
      </g>
    </g>
  </g>
</svg>
