<svg xmlns="http://www.w3.org/2000/svg" width="750" height="118.34" viewBox="0 0 750 118.34">
  <defs>
    <style>
      .cls-1 {
        fill: #e9e9ea;
        fill-rule: evenodd;
      }
    </style>
  </defs>
  <path id="パス_1101" data-name="パス 1101" class="cls-1" d="M3903.68,5654.63a42.642,42.642,0,0,0-2.96-15.91,29.178,29.178,0,0,0-10.28-12.95,37.531,37.531,0,0,0-13.7-5.43,104.769,104.769,0,0,0-19.73-1.46h-64.47v114.56h28.79v-43.43h24.21l30,43.43h32.35l-31.31-45.61C3898.79,5682.33,3903.68,5667.01,3903.68,5654.63Zm-32.84,7.73a19.384,19.384,0,0,1-5.24,1.54,90.594,90.594,0,0,1-11.09.45h-33.18v-19.97h33.26a92.993,92.993,0,0,1,11.02.43,15.2,15.2,0,0,1,5.15,1.69c1.99,0.94,4.28,2.71,4.28,7.95C3875.04,5659.6,3872.72,5661.42,3870.84,5662.36Zm-186.43,24.37h51.39v-25.04h-51.39v-17.31h74.84v-25.5H3655.62v114.56h105.5v-25.5h-76.71v-21.21Zm-72.38-16.8a43.618,43.618,0,0,0-12.86-6.21,105.993,105.993,0,0,0-18.1-3.41l-12.46-1.26a111.465,111.465,0,0,1-15.5-2.22c-5.16-1.39-5.16-3.4-5.16-4.19a5.69,5.69,0,0,1,1.85-4.09,14.75,14.75,0,0,1,6.36-3.7,45.882,45.882,0,0,1,13.69-1.88c14.61,0.68,26.75,5.33,36.1,13.81l3.76,3.42,13.42-24.57-3.07-2.02c-10.43-6.88-19.82-11.43-27.89-13.5a91.332,91.332,0,0,0-22.75-3.1c-16.95,0-29.89,4.27-38.45,12.73a34.485,34.485,0,0,0-10.09,25.19,33.872,33.872,0,0,0,3.93,16.42,29.626,29.626,0,0,0,12.44,12.25,44.425,44.425,0,0,0,10.8,3.99,171.539,171.539,0,0,0,17.21,2.4l12.15,1.25a77.067,77.067,0,0,1,15.43,2.78c3.83,1.27,3.83,2.91,3.83,3.64a6.577,6.577,0,0,1-1.69,4.27,15.945,15.945,0,0,1-5.55,4.15,39.159,39.159,0,0,1-16.58,3.12,65.433,65.433,0,0,1-21.9-4.68c-8.47-3.11-14.64-6.26-18.32-9.38l-4.29-3.62L3518,5718.19l3.14,1.66c19.35,10.27,36.54,15.47,51.06,15.47h0.59a85.487,85.487,0,0,0,22.27-2.96c9.73-2.83,17.08-7.28,21.86-13.23a36.262,36.262,0,0,0,4.5-37.41A30.491,30.491,0,0,0,3612.03,5669.93Zm375.65,19.02-32.27-70.07h-31.08l51.23,114.56h23.64l50.56-114.56h-29.79Zm334.14,18.99v-21.22l51.41,0.01v-25.04h-51.4v-17.31h74.85v-25.5H4293.04v114.56h105.5v-25.5h-76.72Zm-246.05-89.06h28.78v114.56h-28.78V5618.88Zm167.89,74.51a70.184,70.184,0,0,1-11.29,8.51,56.694,56.694,0,0,1-27.79,7.29h-0.09c-11.51,0-20.76-2.75-27.55-8.22a30.5,30.5,0,0,1-11.74-24.71l0.01-.1-0.01-.11a30.245,30.245,0,0,1,11.82-24.76c6.73-5.52,15.98-8.31,27.47-8.31h0.09a56.62,56.62,0,0,1,27.7,7.24,54.664,54.664,0,0,1,11.21,8.88l3.7,3.82,12.75-22.24-2.12-2.16a42.945,42.945,0,0,0-10.57-7.87,113.731,113.731,0,0,0-23.04-10.77l-0.22-.07a80.441,80.441,0,0,0-22.46-2.8c-23.69,0-41.73,7.72-53.64,22.97a60.915,60.915,0,0,0-5.23,63.95,54.4,54.4,0,0,0,15.84,18.71c11.18,8.42,25.66,12.68,42.96,12.68,0.51,0.01,1.02.02,1.53,0.02a80.307,80.307,0,0,0,21.07-2.82l0.22-.06a109.712,109.712,0,0,0,23-10.8,50.587,50.587,0,0,0,10.39-7.4l2.35-2.15-12.68-22.14Z" transform="translate(-3582 -5617)"/>
</svg>
