<svg xmlns="http://www.w3.org/2000/svg" width="177.462" height="15.858" viewBox="0 0 177.462 15.858">
  <path id="Path_1161" data-name="Path 1161" d="M-73.422-3.96v-1.4H-74.43V-7.452h-5.58v-.684h4.41v-3.312h-4.41v-.63h6.516v-1.548H-80.01v-.342a.19.19,0,0,1,.108-.162c.162-.126.2-.144.2-.252s-.126-.144-.216-.162l-2.124-.27v1.188h-6.534v1.548h6.534v.63h-4.428v3.312h4.428v.684h-5.49v1.4h5.49v.684h-6.534v1.4h6.534v.774h-5.49v1.4h5.49v.54c0,.324-.27.414-.558.414-.306,0-.81-.054-1.278-.09l.9,1.962c2.52-.018,2.97-.486,2.97-1.53v-1.3h3.69V-1.3h1.89V-3.96Zm-4.032-5.4H-80.01v-.864h2.556Zm-4.59,0h-2.592v-.864h2.592Zm5.724,4h-3.69v-.684h3.69Zm0,2.178h-3.69V-3.96h3.69ZM-63.252-1.08V-9.558h-6.516V.81h1.908V-2.826H-65.2v1.314c0,.306-.144.45-.5.45a8.446,8.446,0,0,1-1.188-.108l.756,2.052C-64.566.882-63.252.63-63.252-1.08Zm-1.944-5.9H-67.86v-.99H-65.2Zm0,2.574H-67.86V-5.4H-65.2Zm10.008-6.264V-12.33h-4.1c.126-.162.666-1.08.72-1.116a3.409,3.409,0,0,1,.324-.108c.108-.036.144-.09.144-.162a.2.2,0,0,0-.126-.18l-2.286-.666A11.294,11.294,0,0,1-61.74-12.33h-3.528l.666-.324a21.752,21.752,0,0,0-1.476-2l-1.962.864a14.527,14.527,0,0,1,1.116,1.458h-3.834v1.656ZM-55.8-9.54c0-.072-.09-.144-.216-.162l-2.232-.162v8.046c0,.486-.18.63-.81.63-.378,0-.7-.036-1.08-.072l.954,2.016c2.232-.018,3.024-.234,3.024-2V-9.018c0-.054.126-.2.252-.306A.411.411,0,0,0-55.8-9.54Zm-3.744.27a.222.222,0,0,0-.234-.2l-2.142-.108v7.254h1.944V-8.784c0-.072.036-.09.288-.27A.279.279,0,0,0-59.544-9.27Zm23.13,1.206a13.862,13.862,0,0,1-3.258-1.728c.5-.5,1.008-1.026,1.476-1.566.162-.18.2-.18.5-.2.09,0,.234,0,.234-.144,0-.09-.072-.162-.378-.324l-1.368-.72a15.932,15.932,0,0,1-1.728,1.854,4.632,4.632,0,0,1-.378-.432c.252-.288,1.35-1.566,1.584-1.836.054-.018.36-.054.414-.072.072,0,.144-.018.144-.126,0-.144-.216-.27-.36-.342l-1.4-.7a12.9,12.9,0,0,1-1.386,1.566,8.189,8.189,0,0,1-.774-1.71l-1.818.576a11.486,11.486,0,0,0,2.322,3.852h-4.59a11.78,11.78,0,0,0,2.052-3.276l-.594-.72h-5.4v1.656h3.24a6.882,6.882,0,0,1-1.1,1.548,9.193,9.193,0,0,0-1.728-1.3l-1.368,1.368a8.12,8.12,0,0,1,1.71,1.278,14.818,14.818,0,0,1-3.33,2.07l1.836,1.332a12.962,12.962,0,0,0,1.926-1.26V-3.06h2.286l-1.08.324a15.786,15.786,0,0,1,.7,1.44H-52.4V.468h14.814V-1.3h-4.464c.162-.306.288-.594.432-.918.216-.054.414-.09.414-.27,0-.2-.18-.234-.27-.252l-1.386-.324h2.808V-7.686h-9.54a14.715,14.715,0,0,0,1.638-1.566v.846h6.228V-9.18a13.668,13.668,0,0,0,3.636,2.664ZM-42.1-4.608H-47.88v-1.53H-42.1Zm-1.26,1.548a7.31,7.31,0,0,1-.81,1.764h-2.646l.864-.216a5.71,5.71,0,0,0-.72-1.548Zm15.534-8.694A8.132,8.132,0,0,1-30.2-13.77a.186.186,0,0,0,.072-.144c0-.18-.234-.306-.324-.324l-1.53-.342A8.345,8.345,0,0,1-35.3-10.8l1.35,1.332a2.607,2.607,0,0,0,.306-.324v1.17h1.476V-7.56H-34.38v1.854h2.214v3.978c-.864.072-1.782.162-2.664.2l.144,1.872c.018.162.036.486.234.486.126,0,.468-.45.576-.486.072-.036,1.17-.216,1.35-.252,2.5-.432,3.42-.63,4.014-.774l.144-1.674a14.912,14.912,0,0,1-1.944.4V-5.706h1.746V-7.56h-1.746V-8.622h1.4v-1.854Zm9.162,10.17a11,11,0,0,1-4.14-3.69V-6.966h3.51V-8.712h-.99v-5.382H-27.63v1.728h5.382v.972H-26.82v1.656h4.572v1.026h-5.724v1.746h3.24V-4.1A10.468,10.468,0,0,1-28.08-2.52l.306,1.548c.018.09.09.45.288.45.09,0,.144-.126.216-.27.09-.162.108-.2.63-.432a17.3,17.3,0,0,0,1.908-1.008v.54c0,.432-.234.5-.576.5-.522,0-.936-.054-1.17-.072L-25.7.774c2.268-.036,2.9-.18,2.9-1.53v-1.89A9.282,9.282,0,0,0-19.98-.054ZM-27.72-4.59c0-.018,0-.2-.4-.288l-1.422-.342a7.824,7.824,0,0,1-.7,2.556l1.566.36a9.076,9.076,0,0,0,.54-2.07C-27.972-4.41-27.72-4.464-27.72-4.59Zm-1.512-5.886H-32.76a13.319,13.319,0,0,0,1.584-1.836A11.56,11.56,0,0,0-29.232-10.476Zm10.008,4.914c0-.054,0-.162-.252-.288l-1.494-.792a7.221,7.221,0,0,1-1.26,1.854l1.494.972a9.138,9.138,0,0,0,1.1-1.584C-19.44-5.418-19.224-5.436-19.224-5.562Zm-5.688,1.17a9.725,9.725,0,0,0-1.476-2.124l-1.476.882a9.141,9.141,0,0,1,1.35,2.07Zm-7.4,1.944a10.607,10.607,0,0,0-.738-2.826l-1.548.558a18.535,18.535,0,0,1,.774,2.7ZM-1.674-6.876a6.36,6.36,0,0,0-6.7-6.552A7.763,7.763,0,0,0-16.308-5.8a5.122,5.122,0,0,0,3.6,4.842c.936,0,1.764-1.512,2.3-2.628a25.556,25.556,0,0,0,2.232-8.01,4.6,4.6,0,0,1,3.06,1.206,4.244,4.244,0,0,1,1.3,3.15,5.631,5.631,0,0,1-1.3,3.582,6.063,6.063,0,0,1-3.24,1.926L-7.02.126A8.69,8.69,0,0,0-2.826-3.042,6.726,6.726,0,0,0-1.674-6.876Zm-8.64-4.392c-.36,2.808-1.908,7.506-2.844,7.506-.324,0-1.152-.756-1.152-2.214a5.9,5.9,0,0,1,1.8-4A5.314,5.314,0,0,1-10.314-11.268ZM15.75-2.934v-9.378H10.008v-1.512c0-.072.108-.144.234-.234a.157.157,0,0,0,.108-.162c0-.2-.216-.27-.45-.288L7.92-14.67v2.358H2.16v9.378H4.248v-.882H7.92V.9h2.088V-3.816h3.618v.882Zm-2.124-6.1H10.008v-1.386h3.618Zm0,3.348H10.008v-1.53h3.618ZM7.92-9.036H4.248v-1.386H7.92Zm0,3.348H4.248v-1.53H7.92Zm25.56,1.3L31.716-5.85c-1.764,3.456-4.176,4.086-5.184,4.086a1.736,1.736,0,0,1-1.584-.756,9.478,9.478,0,0,1-.342-3.186,68.033,68.033,0,0,1,.5-7.2c.288-.234.5-.378.5-.522,0-.108-.162-.234-.594-.288l-2.394-.342c.054,1.206-.09,6.552-.09,7.65,0,4.32.288,5.238,1.134,5.976A4,4,0,0,0,26.3.486,6.506,6.506,0,0,0,29.88-.666,13.43,13.43,0,0,0,33.48-4.392Zm19.35.414c-3.312-2.25-3.924-4.5-3.96-10.332h-4.9V-12.2h2.682c.018.324.036.612.09,1.116l-1.116-.306a10.892,10.892,0,0,1-3.852,7.416l1.782,1.26A11.71,11.71,0,0,0,45.81-5.49a12.458,12.458,0,0,0,1.35-3.132c1.08,3.888,2.178,5.04,3.942,6.282ZM41.886-12.294a11.107,11.107,0,0,0-2.862-2.232l-1.458,1.548a13.022,13.022,0,0,1,2.772,2.142ZM53.622-2.088a29.618,29.618,0,0,1-3.906.5c-1.35.108-2.682.18-4.032.18-3.4,0-4.158-.612-4.158-2.142V-8.118H37.278v1.98h2.178V-2.79A18.861,18.861,0,0,1,36.99-1.6l.774,2.07c.054.126.144.324.306.324.126,0,.144-.054.306-.414.054-.144.054-.144.216-.252.936-.648,1.836-1.35,2.016-1.494a3.116,3.116,0,0,0,.756.918,3.877,3.877,0,0,0,2.718.792h8.226Zm16.74-2.556c-.774-.5-1.332-.846-2.322-1.4a21.727,21.727,0,0,0,.612-2.682c.054-.252.054-.288.2-.378.252-.126.27-.144.27-.234,0-.162-.252-.252-.432-.306l-2.016-.558A15.3,15.3,0,0,1,66.2-6.912,11.583,11.583,0,0,0,62.73-7.74c.252-.558,1.53-3.456,1.548-3.528a7.337,7.337,0,0,1,.936-1.53l-1.188-1.188c-.972.63-3.1.99-5.868.972l.81,1.818a12.563,12.563,0,0,0,3.276-.558,41.68,41.68,0,0,1-1.458,3.906,4.857,4.857,0,0,0-2.862.864A4.473,4.473,0,0,0,55.8-3.42,2.1,2.1,0,0,0,57.834-1.1c1.584,0,2.358-1.152,4.14-4.968a11.144,11.144,0,0,1,3.6,1.008,8.707,8.707,0,0,1-3.582,4.23L63.774.414a10.038,10.038,0,0,0,3.564-4.482c.414.27.918.612,1.872,1.35ZM59.976-6.012A20.441,20.441,0,0,1,58.788-3.78a.821.821,0,0,1-.756.432c-.126,0-.36-.018-.36-.486C57.672-4.5,58.428-5.526,59.976-6.012ZM88.884-3.546c-2.232-1.53-4.032-3.438-7.254-7.128-.864-1.008-1.242-1.422-2.088-1.422a2.546,2.546,0,0,0-1.926,1.242,32.322,32.322,0,0,1-4.482,5.31l2.016,1.3c.954-1.044,2.9-3.654,3.492-4.464.162-.234.54-.738,1.044-.738.45,0,.666.288,1.26,1.026A43.635,43.635,0,0,0,87.264-1.6Z" transform="translate(88.578 14.814)" fill="#2b2c34"/>
</svg>
