<svg xmlns="http://www.w3.org/2000/svg" width="37.955" height="24.45" viewBox="0 0 75.91 48.9">
  <defs>
    <style>
      .cls-1 {
        fill: #6e31ff;
        fill-rule: evenodd;
      }
    </style>
  </defs>
  <path id="パス_1141" data-name="パス 1141" class="cls-1" d="M1134.2,20766.7c-4.12,0-7.42-1.2-9.89-3.7q-3.7-3.6-3.71-9.9v-21.8c0-4.1,1.24-7.4,3.71-9.8,2.47-2.5,5.77-3.7,9.89-3.7s7.44,1.2,9.93,3.7c2.5,2.4,3.74,5.7,3.74,9.8v21.8q0,6.3-3.74,9.9C1141.64,20765.5,1138.33,20766.7,1134.2,20766.7Zm0-5.7a7.064,7.064,0,0,0,5.17-2,7.63,7.63,0,0,0,1.97-5.5V20731a7.63,7.63,0,0,0-1.97-5.5,6.76,6.76,0,0,0-5.17-2.1,6.643,6.643,0,0,0-5.13,2.1,7.743,7.743,0,0,0-1.94,5.5v22.5a7.743,7.743,0,0,0,1.94,5.5A6.938,6.938,0,0,0,1134.2,20761Zm28.5-1c-0.14.2-.09,0.4,0.13,0.4h18.02a0.566,0.566,0,0,1,.68.6v4.3a0.6,0.6,0,0,1-.68.7h-25.63a0.6,0.6,0,0,1-.68-0.7v-4.3a1.045,1.045,0,0,1,.27-0.8c5.85-7.6,10.4-13.6,13.67-18.2,3.49-4.9,5.23-8.7,5.23-11.6a6.878,6.878,0,0,0-1.77-5,5.973,5.973,0,0,0-4.69-1.9,5.817,5.817,0,0,0-4.59,1.9,6.648,6.648,0,0,0-1.66,4.9v2.4a0.64,0.64,0,0,1-.68.7h-5.24a0.64,0.64,0,0,1-.68-0.7v-2.9a11.619,11.619,0,0,1,3.77-8.7,13.145,13.145,0,0,1,9.22-3.2,13.6,13.6,0,0,1,6.8,1.6,10.773,10.773,0,0,1,4.52,4.4,13.1,13.1,0,0,1,1.6,6.5c0,4-1.82,8.6-5.44,13.7-2.09,2.9-5.49,7.4-10.2,13.4Zm29.44,6a4.292,4.292,0,0,1-3.13-1.2,4.351,4.351,0,0,1-1.22-3.2,4.351,4.351,0,1,1,8.7,0,4.351,4.351,0,0,1-1.22,3.2A4.292,4.292,0,0,1,1192.14,20766Z" transform="translate(-1120.59 -20717.8)"/>
</svg>
