<svg xmlns="http://www.w3.org/2000/svg" width="247.235" height="24.65" viewBox="0 0 494.47 49.3">
  <defs>
    <style>
      .cls-1 {
        fill: #6e31ff;
        fill-rule: evenodd;
      }
    </style>
  </defs>
  <path id="パス_1138" data-name="パス 1138" class="cls-1" d="M1267.58,20010.7v-4.4h-3.14v-6.5h-17.36v-2.1h13.72v-10.3h-13.72v-2h20.27v-4.8h-20.27v-1.1a0.813,0.813,0,0,1,.34-0.5c0.5-.4.61-0.4,0.61-0.7a0.569,0.569,0,0,0-.67-0.5l-6.61-.9v3.7h-20.33v4.8h20.33v2h-13.77v10.3h13.77v2.1h-17.08v4.4h17.08v2.1h-20.33v4.4h20.33v2.4h-17.08v4.4h17.08v1.6c0,1-.84,1.3-1.73,1.3a32.534,32.534,0,0,1-3.98-.3l2.8,6.1c7.84,0,9.24-1.5,9.24-4.7v-4h11.48v1.5h5.88v-8.3h3.14Zm-12.55-16.8h-7.95v-2.7h7.95v2.7Zm-14.28,0h-8.06v-2.7h8.06v2.7Zm17.81,12.4h-11.48v-2.1h11.48v2.1Zm0,6.8h-11.48v-2.4h11.48v2.4Zm40.66,6.5v-26.3h-20.28v32.2h5.94v-11.3h8.29v4.1a1.3,1.3,0,0,1-1.57,1.4,29.423,29.423,0,0,1-3.7-.3l2.36,6.3C1295.13,20025.7,1299.22,20025,1299.22,20019.6Zm-6.05-18.3h-8.29v-3.1h8.29v3.1Zm0,8h-8.29v-3.1h8.29v3.1Zm31.13-19.5v-5.2h-12.76c0.39-.5,2.07-3.3,2.24-3.4s0.89-.3,1-0.4a0.461,0.461,0,0,0,.45-0.5,0.507,0.507,0,0,0-.39-0.5l-7.11-2.1a35.528,35.528,0,0,1-3.81,6.9h-10.98l2.08-1c-2.36-3.5-3.81-5.2-4.6-6.2l-6.1,2.7a43.868,43.868,0,0,1,3.47,4.5h-11.93v5.2h48.44Zm-1.9,3.5a0.77,0.77,0,0,0-.67-0.5l-6.95-.5v25c0,1.6-.56,2-2.52,2-1.17,0-2.18-.1-3.36-0.2l2.97,6.3c6.95-.1,9.41-0.8,9.41-6.3v-24.2a2.733,2.733,0,0,1,.78-0.9A1.358,1.358,0,0,0,1322.4,19993.3Zm-11.65.9a0.741,0.741,0,0,0-.73-0.7l-6.66-.3v22.6h6.05v-20.1c0-.3.11-0.3,0.89-0.9A0.778,0.778,0,0,0,1310.75,19994.2Zm71.96,3.7a43,43,0,0,1-10.13-5.4c1.56-1.5,3.13-3.2,4.59-4.8a1.639,1.639,0,0,1,1.57-.7c0.28,0,.72,0,0.72-0.4,0-.3-0.22-0.5-1.17-1l-4.26-2.2a56.239,56.239,0,0,1-5.37,5.7,15.285,15.285,0,0,1-1.18-1.3c0.78-.9,4.2-4.9,4.93-5.7,0.17-.1,1.12-0.2,1.29-0.3a0.346,0.346,0,0,0,.44-0.4,1.743,1.743,0,0,0-1.12-1l-4.36-2.2a51.727,51.727,0,0,1-4.32,4.9,28.119,28.119,0,0,1-2.4-5.3l-5.66,1.7a35.477,35.477,0,0,0,7.22,12h-14.28a35.881,35.881,0,0,0,6.39-10.2l-1.85-2.2h-16.8v5.1h10.08a22.284,22.284,0,0,1-3.42,4.9,29.124,29.124,0,0,0-5.37-4.1l-4.26,4.3a22.937,22.937,0,0,1,5.32,4,48.807,48.807,0,0,1-10.36,6.4l5.71,4.1a31.248,31.248,0,0,0,6-3.9v13.6h7.11l-3.36,1a38.684,38.684,0,0,1,2.18,4.5h-13.61v5.5h46.09v-5.5h-13.89c0.51-1,.9-1.9,1.35-2.9,0.67-.2,1.29-0.3,1.29-0.8a0.823,0.823,0,0,0-.84-0.8l-4.32-1h8.74v-14.4h-29.68a51.746,51.746,0,0,0,5.1-4.9v2.6h19.37v-2.4c5.49,5.3,9.13,7.3,11.31,8.3Zm-17.69,10.8h-17.98v-4.8h17.98v4.8Zm-3.92,4.8a24.65,24.65,0,0,1-2.52,5.5h-8.24l2.69-.7a16.645,16.645,0,0,0-2.24-4.8h10.31Zm48.32-27.1a26.226,26.226,0,0,1-7.39-6.2,0.677,0.677,0,0,0,.23-0.5,1.487,1.487,0,0,0-1.01-1l-4.76-1.1a25.7,25.7,0,0,1-10.31,11.8l4.2,4.1a3.689,3.689,0,0,0,.96-1v3.7h4.59v3.3h-6.89v5.7h6.89v12.4c-2.69.2-5.55,0.5-8.29,0.6l0.45,5.9c0.05,0.5.11,1.5,0.73,1.5,0.39,0,1.45-1.4,1.79-1.5,0.22-.1,3.64-0.7,4.2-0.8,7.78-1.4,10.64-2,12.49-2.4l0.44-5.2c-1,.2-2.18.6-6.04,1.2v-11.7h5.43v-5.7h-5.43v-3.3h4.36v-5.8Zm28.51,31.7c-6.55-3.7-11.48-8.7-12.88-11.5v-5.3h10.92v-5.4h-3.08v-16.7h-22.85v5.3h16.74v3.1h-14.22v5.1h14.22v3.2h-17.8v5.4h10.08v8.9a32.084,32.084,0,0,1-10.42,5l0.95,4.8c0.06,0.3.28,1.4,0.9,1.4a1.211,1.211,0,0,0,.67-0.9c0.28-.5.34-0.6,1.96-1.3a48.81,48.81,0,0,0,5.94-3.1v1.6c0,1.4-.73,1.6-1.8,1.6-1.62,0-2.91-.2-3.64-0.2l2.41,6.3c7.06-.1,9.02-0.6,9.02-4.8v-5.8a29.633,29.633,0,0,0,8.79,8Zm-28.17-9.4s0-.6-1.23-0.9l-4.43-1a23.9,23.9,0,0,1-2.18,7.9l4.87,1.1a28.156,28.156,0,0,0,1.68-6.4C1408.98,20009.3,1409.76,20009.1,1409.76,20008.7Zm-4.7-18.3h-10.98a41.772,41.772,0,0,0,4.93-5.7A35.683,35.683,0,0,0,1405.06,19990.4Zm31.13,15.3c0-.2,0-0.5-0.78-0.9l-4.65-2.5a21.281,21.281,0,0,1-3.92,5.8l4.65,3a26.194,26.194,0,0,0,3.41-4.9C1435.52,20006.1,1436.19,20006.1,1436.19,20005.7Zm-17.69,3.6a33.161,33.161,0,0,0-4.6-6.6l-4.59,2.8a26.663,26.663,0,0,1,4.2,6.4Zm-23.02,6.1a32.429,32.429,0,0,0-2.3-8.8l-4.81,1.7a58.973,58.973,0,0,1,2.41,8.4Zm95.31-13.8c0-12.5-9.18-20.4-20.83-20.4-14.45,0-24.7,11.3-24.7,23.8,0,10,9.19,15,11.2,15,2.92,0,5.49-4.7,7.17-8.1,1.85-3.8,5.15-11.6,6.95-25a14.4,14.4,0,0,1,9.52,3.8,13.241,13.241,0,0,1,4.03,9.8,17.329,17.329,0,0,1-4.03,11.1,18.641,18.641,0,0,1-10.08,6l4.14,5.8a27.1,27.1,0,0,0,13.05-9.9A20.718,20.718,0,0,0,1490.79,20001.6Zm-26.88-13.7c-1.12,8.8-5.93,23.4-8.85,23.4-1,0-3.58-2.4-3.58-6.9a18.268,18.268,0,0,1,5.6-12.4A16.577,16.577,0,0,1,1463.91,19987.9Zm81.09,26v-29.2h-17.86v-4.7a1.238,1.238,0,0,1,.72-0.7,0.539,0.539,0,0,0,.34-0.5c0-.7-0.67-0.9-1.4-0.9l-6.16-.5v7.3h-17.92v29.2h6.5v-2.8h11.42v14.7h6.5v-14.7h11.25v2.8H1545Zm-6.61-19h-11.25v-4.3h11.25v4.3Zm0,10.4h-11.25v-4.8h11.25v4.8Zm-17.75-10.4h-11.42v-4.3h11.42v4.3Zm0,10.4h-11.42v-4.8h11.42v4.8Zm79.52,4-5.49-4.5c-5.49,10.8-12.99,12.7-16.13,12.7a5.562,5.562,0,0,1-4.92-2.3c-1.07-1.9-1.07-7.4-1.07-10,0-6.1,1.12-20.9,1.57-22.4,0.9-.7,1.57-1.1,1.57-1.6,0-.3-0.51-0.7-1.85-0.9l-7.45-1c0.17,3.7-.28,20.3-0.28,23.8,0,13.4.9,16.3,3.53,18.6a12.819,12.819,0,0,0,8.18,2.8,20.11,20.11,0,0,0,11.14-3.6C1594.5,20017.3,1597.86,20012.5,1600.16,20009.3Zm60.2,1.3c-10.3-7-12.21-14-12.32-32.1h-15.23v6.5h8.34c0.06,1,.11,1.9.28,3.5l-3.47-.9c-1.79,12-5.77,17.3-11.98,23l5.54,3.9a33.241,33.241,0,0,0,7-8.6,38.886,38.886,0,0,0,4.2-9.7c3.36,12.1,6.78,15.7,12.26,19.5Zm-34.05-25.8c-5.04-5-7.33-6.2-8.9-7l-4.54,4.8a40.85,40.85,0,0,1,8.63,6.7Zm36.51,31.7a87.92,87.92,0,0,1-12.15,1.6c-4.2.3-8.34,0.5-12.54,0.5-10.59,0-12.94-1.9-12.94-6.6v-14.3h-13.21v6.2h6.77v10.4a50.9,50.9,0,0,1-7.67,3.7l2.41,6.5a1.506,1.506,0,0,0,.95,1c0.39,0,.45-0.2.95-1.3a1.022,1.022,0,0,1,.67-0.8c2.92-2,5.72-4.2,6.28-4.7a8.92,8.92,0,0,0,2.35,2.9c1.57,1.2,3.47,2.5,8.45,2.5h25.6Zm52.08-7.9c-2.4-1.6-4.14-2.7-7.22-4.4a66.528,66.528,0,0,0,1.9-8.4c0.17-.7.17-0.9,0.62-1.1,0.78-.4.84-0.5,0.84-0.8,0-.5-0.78-0.7-1.34-0.9l-6.28-1.8a48.176,48.176,0,0,1-1.45,10.3,37.259,37.259,0,0,0-10.81-2.6c0.78-1.7,4.76-10.7,4.82-11a20.839,20.839,0,0,1,2.91-4.7l-3.7-3.7c-3.02,1.9-9.63,3.1-18.25,3l2.52,5.7c3.13-.1,5.15-0.5,10.19-1.8-1.63,5.1-2.91,8.3-4.54,12.2a14.563,14.563,0,0,0-8.9,2.7c-3.92,2.6-6.61,6.7-6.61,11.1,0,4.1,2.52,7.2,6.33,7.2,4.93,0,7.33-3.6,12.88-15.5a36.012,36.012,0,0,1,11.2,3.2c-3.36,7.1-6.22,9.9-11.15,13.1l5.55,3.9c5.21-3.9,7.84-7,11.09-14,1.28,0.9,2.85,1.9,5.82,4.2Zm-32.31-4.3a63.744,63.744,0,0,1-3.69,6.9,2.621,2.621,0,0,1-2.36,1.4c-0.39,0-1.12-.1-1.12-1.5C1675.42,20009,1677.78,20005.8,1682.59,20004.3Z" transform="translate(-1220.44 -19976.9)"/>
</svg>
