<svg xmlns="http://www.w3.org/2000/svg" width="1545.34" height="660.2" viewBox="0 0 1545.34 660.2">
  <defs>
    <style>
      .cls-1 {
        fill: #e9e9ea;
        fill-rule: evenodd;
      }
    </style>
  </defs>
  <path id="パス_1077" data-name="パス 1077" class="cls-1" d="M64.1,19833.3c-34.61,0-75.614-12.5-121.82-37L-64,19793l23.5-60.6,8.566,7.2c8.988,7.6,23.948,15.3,44.462,22.8s38.258,11.3,52.742,11.3c16.012,0,29.652-2.5,40.542-7.5a39.16,39.16,0,0,0,14.13-10.5,17.208,17.208,0,0,0,4.458-11.2c0-2.1,0-6.9-10.282-10.3l-0.342-.1c-4.01-1.6-13.754-4-37.408-6.6l-28.794-3a413.727,413.727,0,0,1-41.178-5.8H6.1a107.449,107.449,0,0,1-25.154-9.4,69.336,69.336,0,0,1-29.206-28.7,79.636,79.636,0,0,1-9.208-38.9c0-23.4,7.978-43.4,23.716-59.1,20.252-20,50.91-30.1,91.156-30.1a219.884,219.884,0,0,1,54.2,7.4c19.2,4.9,41.584,15.8,66.46,32.2l6.142,4-30.52,55.9-7.526-6.8c-22.7-20.6-52.138-31.9-87.5-33.6h-1.6a114.877,114.877,0,0,0-31.9,4.6,36.811,36.811,0,0,0-15.948,9.3,15.247,15.247,0,0,0-4.922,10.9c0,2.3,0,8,13.582,11.6,3.946,1.2,13.536,3,37.716,5.4l29.634,3a253.617,253.617,0,0,1,43.168,8.2,102.69,102.69,0,0,1,30.386,14.6l0.248,0.2a71.724,71.724,0,0,1,21.754,27.5,85.093,85.093,0,0,1-10.566,88c-11.31,14.1-28.678,24.6-51.686,31.3a203.158,203.158,0,0,1-53.062,7.1H64.1Zm826.016-4.6V19557H1042.87c19.29,0,34.18,1.3,45.52,4a81.116,81.116,0,0,1,30.86,14.1l0.23,0.1a76.259,76.259,0,0,1,21.81,28.1l0.09,0.2a95.679,95.679,0,0,1,7.36,37.2,85.113,85.113,0,0,1-14.89,49.9,68.585,68.585,0,0,1-34.1,26.9c-13.59,4.9-32.21,7.4-56.88,7.4H955.988v103.8H890.116Zm146.374-161.8c20.09,0,29.28-2.6,33.45-4.8l0.34-.1a17.171,17.171,0,0,0,8.05-7.7,28,28,0,0,0,.1-26.6l-0.1-.1a17.15,17.15,0,0,0-8.04-7.7l-0.35-.2c-4.17-2.1-13.36-4.7-33.44-4.7H955.994l-0.006,51.9h80.5ZM561.5,19828.7V19557H807v58H627.374v44.7H750.752v56.9H627.374v54.1H811.5v58h-250Zm-228.864,0V19615h-99v-58H497.516v58h-99v213.7H332.638Zm1036.842-384v-112.3l-110.4-159.4h78.35l65.61,94.9,67.04-94.9h75.26l-109.98,159.4v112.3h-65.88Zm-222.81,0-72-104.2h-60.55v104.2H948.244V19173H1101.37c19.69,0,35.61,1.2,47.33,3.5a87.555,87.555,0,0,1,32.02,12.8l0.29,0.2a68.336,68.336,0,0,1,23.78,30.1,100.888,100.888,0,0,1,6.96,37.6c0,50.9-33.53,71.1-66.08,78.6l74.77,108.9h-73.77Zm-51.3-162.6c1.58,0.1,3.01.1,4.44,0.1,7.38,0,14.83-.4,22.17-1.1a53.936,53.936,0,0,0,13.08-3.8c7.63-3.9,11.19-10.4,11.19-20.5,0-13.7-6.39-18.3-11.19-20.6l-0.29-.1a36.417,36.417,0,0,0-12.41-4,209.716,209.716,0,0,0-22.4-1.1h-85.84v51.1h81.25Zm-376,162.6V19231h-99v-58h263.88v58h-99v213.7h-65.88Zm-215.2,0-161.534-163.6v163.6H281.266V19173H337.62l157.02,159.8V19173h61.376v271.7H504.172Zm-551.522,0V19173h245.5v58H18.526v44.7H141.9v56.9H18.526v54.1H202.65v58h-250Z" transform="translate(0 -19173)"/>
</svg>
