<svg xmlns="http://www.w3.org/2000/svg" width="53.345" height="24.35" viewBox="0 0 106.69 48.7">
  <defs>
    <style>
      .cls-1 {
        fill: #6e31ff;
        fill-rule: evenodd;
      }
    </style>
  </defs>
  <path id="パス_1140" data-name="パス 1140" class="cls-1" d="M1270.7,20746.3c-7.51-1.8-10.48-3.4-13.89-5.9h13.27v-4.6H1259.1c1.01-1.8,1.12-2,1.85-2.2a0.818,0.818,0,0,0,.84-0.8c0-.4-0.45-0.7-1.62-1l-3.14-.9a1.937,1.937,0,0,1,.95-0.2c0.28,0,1.52.2,1.8,0.2,0.16,0,.72,0,0.72-0.4a4.7,4.7,0,0,0-1.34-2l-2.74-2.9h6.44v5.5h6.27v-9.7h-19.77v-1.5a4.085,4.085,0,0,0,1.12-1.4c0-.4-1.06-0.6-2.18-0.7l-5.66-.3v3.9h-19.66v9.7h6.16v-5.5h25.76c-2.35.9-6.94,2.6-16.91,2.6-3.02,0-5.26-.1-7.67-0.3l1.96,3.5-2.69,1.1a34.206,34.206,0,0,1,2.69,3.3h-10.36v4.6h12.99a41.84,41.84,0,0,1-14.33,6.7l5.2,4.3c1.07-.5,1.96-0.9,3.03-1.5v16.2h6.27v-1.8h21.95v1.3h6.27v-15.7c1.18,0.6,2.19,1.1,3.08,1.5Zm-13.67,7.1h-8.17v-2.7h8.17v2.7Zm-14.45,0h-7.5v-2.7h7.5v2.7Zm14.45,6.7h-8.17v-2.7h8.17v2.7Zm-14.45,0h-7.5v-2.7h7.5v2.7Zm14-24.3h-7.67v-3.8c1.63-.1,3.64-0.4,6.61-0.9a14.559,14.559,0,0,1-1.79,3.7Zm-14.11,0h-7.11l2.52-.9a16.4,16.4,0,0,0-1.51-2c1.68-.1,4.09-0.1,6.1-0.3v3.2Zm14.28,10.7h-7.84v-6.2A53.991,53.991,0,0,0,1256.75,20746.5Zm-14.28,0h-7.56a47.616,47.616,0,0,0,7.56-5.8v5.8Zm84.79-9.1a48.437,48.437,0,0,1-19.21-10.2h18.14v-4.8h-21.17v-2.5a1.081,1.081,0,0,1,.56-0.6c0.51-.4.56-0.4,0.56-0.7,0-.2-0.11-0.5-1.34-0.6l-6.89-.6v5h-20.05v4.8h15.35c-2.8,3.9-8.46,8.5-16.3,10.9l3.92,4.5a49.423,49.423,0,0,0,6.5-3.1v20.5h-9.41v5.1h48.22v-5.1h-9.24v-20.2a39.553,39.553,0,0,0,6.16,2.9Zm-16.86,8.9h-16.52v-2.7h16.52v2.7Zm0,6.8h-16.52v-2.8h16.52v2.8Zm5.32-14h-27.89a40.8,40.8,0,0,0,10.08-8v6.5h7.11v-6.5A54.273,54.273,0,0,0,1315.72,20739.1Zm-5.32,20.9h-16.52v-2.9h16.52v2.9Z" transform="translate(-1220.56 -20717.4)"/>
</svg>
