<svg xmlns="http://www.w3.org/2000/svg" width="81.205" height="24.25" viewBox="0 0 162.41 48.5">
  <defs>
    <style>
      .cls-1 {
        fill: #6e31ff;
        fill-rule: evenodd;
      }
    </style>
  </defs>
  <path id="パス_1142" data-name="パス 1142" class="cls-1" d="M1269.7,21458.7c-7.96-5.6-14.84-12.8-18.48-21.8h17.58v-6.1h-20.5v-6.9a0.816,0.816,0,0,1,.51-0.6,0.946,0.946,0,0,0,.5-0.7c0-.6-1.34-0.8-2.07-0.8l-5.49-.3v9.3h-20.72v6.1h16.91c-2.85,7.5-9.96,17.7-17.41,23.4l5.32,3.7a74.477,74.477,0,0,0,15.9-21.3v12.7h-7.73v5.6h7.73v9h6.55v-9h8.18v-5.4a46.458,46.458,0,0,0,8.62,7.6Zm-13.33-3.3h-8.07v-12.1A49.187,49.187,0,0,0,1256.37,21455.4Zm71.34-13.5a43,43,0,0,1-10.13-5.4c1.56-1.5,3.13-3.2,4.59-4.8a1.639,1.639,0,0,1,1.57-.7c0.28,0,.72,0,0.72-0.4,0-.3-0.22-0.5-1.17-1l-4.26-2.2a56.239,56.239,0,0,1-5.37,5.7,15.285,15.285,0,0,1-1.18-1.3c0.78-.9,4.2-4.9,4.93-5.7,0.17-.1,1.12-0.2,1.29-0.3a0.346,0.346,0,0,0,.44-0.4,1.743,1.743,0,0,0-1.12-1l-4.36-2.2a51.727,51.727,0,0,1-4.32,4.9,28.119,28.119,0,0,1-2.4-5.3l-5.66,1.7a35.477,35.477,0,0,0,7.22,12h-14.28a35.881,35.881,0,0,0,6.39-10.2l-1.85-2.2h-16.8v5.1h10.08a22.284,22.284,0,0,1-3.42,4.9,29.124,29.124,0,0,0-5.37-4.1l-4.26,4.3a22.937,22.937,0,0,1,5.32,4,48.807,48.807,0,0,1-10.36,6.4l5.71,4.1a31.248,31.248,0,0,0,6-3.9v13.6h7.11l-3.36,1a38.684,38.684,0,0,1,2.18,4.5h-13.61v5.5h46.09v-5.5h-13.89c0.51-1,.9-1.9,1.35-2.9,0.67-.2,1.29-0.3,1.29-0.8a0.823,0.823,0,0,0-.84-0.8l-4.32-1h8.74v-14.4h-29.68a51.746,51.746,0,0,0,5.1-4.9v2.6h19.37v-2.4c5.49,5.3,9.13,7.3,11.31,8.3Zm-17.69,10.8h-17.98v-4.8h17.98v4.8Zm-3.92,4.8a24.65,24.65,0,0,1-2.52,5.5h-8.24l2.69-.7a16.645,16.645,0,0,0-2.24-4.8h10.31Zm48.32-27.1a26.226,26.226,0,0,1-7.39-6.2,0.677,0.677,0,0,0,.23-0.5,1.487,1.487,0,0,0-1.01-1l-4.76-1.1a25.7,25.7,0,0,1-10.31,11.8l4.2,4.1a3.689,3.689,0,0,0,.96-1v3.7h4.59v3.3h-6.89v5.7h6.89v12.4c-2.69.2-5.55,0.5-8.29,0.6l0.45,5.9c0.05,0.5.11,1.5,0.73,1.5,0.39,0,1.45-1.4,1.79-1.5,0.22-.1,3.64-0.7,4.2-0.8,7.78-1.4,10.64-2,12.49-2.4l0.44-5.2c-1,.2-2.18.6-6.04,1.2v-11.7h5.43v-5.7h-5.43v-3.3h4.36v-5.8Zm28.51,31.7c-6.55-3.7-11.48-8.7-12.88-11.5v-5.3h10.92v-5.4h-3.08v-16.7h-22.85v5.3h16.74v3.1h-14.22v5.1h14.22v3.2h-17.8v5.4h10.08v8.9a32.084,32.084,0,0,1-10.42,5l0.95,4.8c0.06,0.3.28,1.4,0.9,1.4a1.211,1.211,0,0,0,.67-0.9c0.28-.5.34-0.6,1.96-1.3a48.81,48.81,0,0,0,5.94-3.1v1.6c0,1.4-.73,1.6-1.8,1.6-1.62,0-2.91-.2-3.64-0.2l2.41,6.3c7.06-.1,9.02-0.6,9.02-4.8v-5.8a29.633,29.633,0,0,0,8.79,8Zm-28.17-9.4s0-.6-1.23-0.9l-4.43-1a23.9,23.9,0,0,1-2.18,7.9l4.87,1.1a28.156,28.156,0,0,0,1.68-6.4C1353.98,21453.3,1354.76,21453.1,1354.76,21452.7Zm-4.7-18.3h-10.98a41.772,41.772,0,0,0,4.93-5.7A35.683,35.683,0,0,0,1350.06,21434.4Zm31.13,15.3c0-.2,0-0.5-0.78-0.9l-4.65-2.5a21.281,21.281,0,0,1-3.92,5.8l4.65,3a26.194,26.194,0,0,0,3.41-4.9C1380.52,21450.1,1381.19,21450.1,1381.19,21449.7Zm-17.69,3.6a33.161,33.161,0,0,0-4.6-6.6l-4.59,2.8a26.663,26.663,0,0,1,4.2,6.4Zm-23.02,6.1a32.429,32.429,0,0,0-2.3-8.8l-4.81,1.7a58.973,58.973,0,0,1,2.41,8.4Z" transform="translate(-1220.53 -21421.5)"/>
</svg>
