<svg xmlns="http://www.w3.org/2000/svg" width="36.003" height="24.558" viewBox="0 0 71.69 48.9">
  <defs>
    <style>
      .cls-1 {
        fill: #6e31ff;
        fill-rule: evenodd;
      }
    </style>
  </defs>
  <path id="パス_1139" data-name="パス 1139" class="cls-1" d="M1134.2,20026.7c-4.12,0-7.42-1.2-9.89-3.7q-3.7-3.6-3.71-9.9v-21.8c0-4.1,1.24-7.4,3.71-9.8,2.47-2.5,5.77-3.7,9.89-3.7s7.44,1.2,9.93,3.7c2.5,2.4,3.74,5.7,3.74,9.8v21.8q0,6.3-3.74,9.9C1141.64,20025.5,1138.33,20026.7,1134.2,20026.7Zm0-5.7a7.064,7.064,0,0,0,5.17-2,7.63,7.63,0,0,0,1.97-5.5V19991a7.63,7.63,0,0,0-1.97-5.5,6.76,6.76,0,0,0-5.17-2.1,6.643,6.643,0,0,0-5.13,2.1,7.743,7.743,0,0,0-1.94,5.5v22.5a7.743,7.743,0,0,0,1.94,5.5A6.938,6.938,0,0,0,1134.2,20021Zm30.26-42.4a2.628,2.628,0,0,1,.89-0.2h5.37a0.6,0.6,0,0,1,.68.7v46.2a0.6,0.6,0,0,1-.68.7h-5.17a0.6,0.6,0,0,1-.68-0.7v-39.8a0.513,0.513,0,0,0-.1-0.3h-0.24l-6.59,2.1-0.28.1a0.605,0.605,0,0,1-.54-0.6l-0.27-3.9a0.848,0.848,0,0,1,.47-0.8Zm23.46,47.4a4.252,4.252,0,0,1-3.12-1.2,4.318,4.318,0,0,1-1.23-3.2,4.356,4.356,0,1,1,8.71,0A4.168,4.168,0,0,1,1187.92,20026Z" transform="translate(-1120.59 -19977.8)"/>
</svg>
