<svg xmlns="http://www.w3.org/2000/svg" width="38.149" height="24.778" viewBox="0 0 75.29 48.9">
  <defs>
    <style>
      .cls-1 {
        fill: #6e31ff;
        fill-rule: evenodd;
      }
    </style>
  </defs>
  <path id="パス_1143" data-name="パス 1143" class="cls-1" d="M1134.2,21470.7c-4.12,0-7.42-1.2-9.89-3.7q-3.7-3.6-3.71-9.9v-21.8c0-4.1,1.24-7.4,3.71-9.8,2.47-2.5,5.77-3.7,9.89-3.7s7.44,1.2,9.93,3.7c2.5,2.4,3.74,5.7,3.74,9.8v21.8q0,6.3-3.74,9.9C1141.64,21469.5,1138.33,21470.7,1134.2,21470.7Zm0-5.7a7.064,7.064,0,0,0,5.17-2,7.63,7.63,0,0,0,1.97-5.5V21435a7.63,7.63,0,0,0-1.97-5.5,6.76,6.76,0,0,0-5.17-2.1,6.643,6.643,0,0,0-5.13,2.1,7.743,7.743,0,0,0-1.94,5.5v22.5a7.743,7.743,0,0,0,1.94,5.5A6.938,6.938,0,0,0,1134.2,21465Zm44.48-17.8a21.243,21.243,0,0,1,1.36,8,20.44,20.44,0,0,1-1.3,7.6,11.8,11.8,0,0,1-4.35,5.8,14.689,14.689,0,0,1-15.57-.7,11.424,11.424,0,0,1-4.22-7,34.428,34.428,0,0,1-.54-5,0.64,0.64,0,0,1,.68-0.7h5.17a0.64,0.64,0,0,1,.68.7,29.649,29.649,0,0,0,.41,3.7,6.844,6.844,0,0,0,2.1,3.9,5.97,5.97,0,0,0,4.02,1.4,5.8,5.8,0,0,0,3.74-1.2,6.963,6.963,0,0,0,2.17-3.5,20.705,20.705,0,0,0,.61-5.4,17.736,17.736,0,0,0-.88-6.1,6.576,6.576,0,0,0-2.18-3.2,5.82,5.82,0,0,0-3.53-1.1,4.76,4.76,0,0,0-2.18.6,1.328,1.328,0,0,1-.41.2,0.751,0.751,0,0,1-.54-0.3l-2.65-2.8a0.78,0.78,0,0,1-.21-0.5,0.614,0.614,0,0,1,.21-0.5l10.33-12.7a0.256,0.256,0,0,0,.07-0.3,0.733,0.733,0,0,0-.2-0.1h-16.19a0.57,0.57,0,0,1-.68-0.6v-4.3a0.6,0.6,0,0,1,.68-0.7h23.87a0.6,0.6,0,0,1,.68.7v4.5a1.21,1.21,0,0,1-.27.8l-9.59,12a0.273,0.273,0,0,0-.07.3,1.038,1.038,0,0,0,.21.1,9.25,9.25,0,0,1,5.23,1.9A10.417,10.417,0,0,1,1178.68,21447.2Zm12.85,22.8a4.153,4.153,0,0,1-4.35-4.4,4.237,4.237,0,0,1,1.22-3.1,4.351,4.351,0,0,1,7.48,3.1,4.351,4.351,0,0,1-1.22,3.2A4.292,4.292,0,0,1,1191.53,21470Z" transform="translate(-1120.59 -21421.8)"/>
</svg>
