<?xml version="1.0" encoding="utf-8"?>
<!-- Generator: Adobe Illustrator 24.1.0, SVG Export Plug-In . SVG Version: 6.00 Build 0)  -->
<svg version="1.1" id="レイヤー_1" xmlns="http://www.w3.org/2000/svg" xmlns:xlink="http://www.w3.org/1999/xlink" x="0px"
	 y="0px" viewBox="0 0 320 320" style="enable-background:new 0 0 320 320;" xml:space="preserve">
<style type="text/css">
	.st0{fill:#2B2C34;}
	.st1{fill:#6E31FF;}
	.st2{fill:none;stroke:#6E31FF;stroke-width:3;stroke-linecap:round;stroke-linejoin:round;}
</style>
<g>
	<path class="st1" d="M176.53,250.71h-33.06c-1.65,0-3-1.35-3-3v-15.22c0-1.1,0.9-2,2-2h35.06c1.1,0,2,0.9,2,2v15.22
		C179.53,249.36,178.19,250.71,176.53,250.71z M144.47,246.71h31.06v-12.22h-31.06V246.71z"/>
	<path class="st1" d="M289.78,215.36c-1.1,0-2-0.9-2-2V63.3c0-1.13-0.92-2.06-2.05-2.06H34.28c-1.13,0-2.05,0.92-2.05,2.06v150.06
		c0,1.1-0.9,2-2,2s-2-0.9-2-2V63.3c0-3.34,2.72-6.06,6.05-6.06h251.45c3.34,0,6.05,2.72,6.05,6.06v150.06
		C291.78,214.46,290.88,215.36,289.78,215.36z"/>
	<path class="st0" d="M300,262.76H20c-4.41,0-8-3.59-8-8v-21.39c0-1.65,1.35-3,3-3h290c1.65,0,3,1.35,3,3v21.39
		C308,259.17,304.41,262.76,300,262.76z M16,234.37v20.39c0,2.21,1.79,4,4,4h280c2.21,0,4-1.79,4-4v-20.39H16z"/>
</g>
</svg>
