<svg xmlns="http://www.w3.org/2000/svg" width="96" height="96" viewBox="0 0 96 96">
  <g id="Group_1609" data-name="Group 1609" transform="translate(-137 -6653)">
    <g id="Group_972" data-name="Group 972" transform="translate(137 6653)">
      <rect id="Rectangle_974" data-name="Rectangle 974" width="96" height="96" fill="none"/>
    </g>
    <g id="Group_1378" data-name="Group 1378" transform="translate(141.8 6671)">
      <path id="Rectangle_1114" data-name="Rectangle 1114" d="M0,0H10.375a0,0,0,0,1,0,0V3.2a1,1,0,0,1-1,1H1a1,1,0,0,1-1-1V0A0,0,0,0,1,0,0Z" transform="translate(38.012 51.226)" fill="none" stroke="#6e31ff" stroke-linecap="round" stroke-linejoin="round" stroke-width="1.5"/>
      <path id="Path_868" data-name="Path 868" d="M1070.443,824.082v-44.4a1.2,1.2,0,0,1,1.2-1.2h74.4a1.2,1.2,0,0,1,1.2,1.2v44.4" transform="translate(-1065.643 -778.482)" fill="none" stroke="#6e31ff" stroke-linecap="round" stroke-linejoin="round" stroke-width="1.5"/>
      <path id="Rectangle_1115" data-name="Rectangle 1115" d="M1,0H85.4a1,1,0,0,1,1,1V2.4a6,6,0,0,1-6,6H6a6,6,0,0,1-6-6V1A1,1,0,0,1,1,0Z" transform="translate(0 51.226)" fill="none" stroke="#2b2c34" stroke-linecap="round" stroke-linejoin="round" stroke-width="1.5"/>
    </g>
  </g>
</svg>
