<?xml version="1.0" encoding="utf-8"?>
<!-- Generator: Adobe Illustrator 24.1.0, SVG Export Plug-In . SVG Version: 6.00 Build 0)  -->
<svg version="1.1" id="レイヤー_1" xmlns="http://www.w3.org/2000/svg" xmlns:xlink="http://www.w3.org/1999/xlink" x="0px"
	 y="0px" viewBox="0 0 320 320" style="enable-background:new 0 0 320 320;" xml:space="preserve">
<style type="text/css">
	.st0{fill:#2B2C34;}
	.st1{fill:#6E31FF;}
	.st2{fill:none;stroke:#6E31FF;stroke-width:3;stroke-linecap:round;stroke-linejoin:round;}
</style>
<g>
	<g id="グループ_1376_3_">
		<path class="st1" d="M153.86,197.3c-2.61,0-5.22-0.99-7.21-2.98l-51.38-51.27c-0.78-0.78-0.78-2.05,0-2.83
			c0.78-0.78,2.05-0.79,2.83,0l51.38,51.27c2.41,2.41,6.33,2.41,8.75,0L288.61,64.83c0.79-0.77,2.06-0.75,2.83,0.04
			c0.77,0.79,0.75,2.06-0.04,2.83L161.04,194.34C159.06,196.31,156.47,197.3,153.86,197.3z"/>
	</g>
	<path class="st0" d="M157.36,289.22c-54.22,0-104.83-34.41-122.78-88.63C12.19,132.94,49.01,59.69,116.65,37.3
		c46.34-15.34,96.69-3.56,131.42,30.74c0.79,0.78,0.79,2.04,0.02,2.83c-0.78,0.79-2.04,0.79-2.83,0.02
		c-33.65-33.23-82.45-44.65-127.35-29.79C52.36,62.8,16.68,133.78,38.38,199.33c17.39,52.54,66.44,85.89,118.98,85.89
		c13.02,0,26.24-2.05,39.26-6.35c65.55-21.7,101.23-92.68,79.54-158.23c-0.35-1.05,0.22-2.18,1.27-2.53
		c1.05-0.35,2.18,0.22,2.53,1.27c22.39,67.65-14.43,140.9-82.07,163.29C184.44,287.11,170.79,289.22,157.36,289.22z"/>
</g>
</svg>
