<?xml version="1.0" encoding="utf-8"?>
<!-- Generator: Adobe Illustrator 24.1.0, SVG Export Plug-In . SVG Version: 6.00 Build 0)  -->
<svg version="1.1" id="レイヤー_1" xmlns="http://www.w3.org/2000/svg" xmlns:xlink="http://www.w3.org/1999/xlink" x="0px"
	 y="0px" viewBox="0 0 320 320" style="enable-background:new 0 0 320 320;" xml:space="preserve">
<style type="text/css">
	.st0{fill:#2B2C34;}
	.st1{fill:#6E31FF;}
	.st2{fill:none;stroke:#6E31FF;stroke-width:3;stroke-linecap:round;stroke-linejoin:round;}
</style>
<g id="グループ_1372_3_" transform="translate(-864.732 5041.357)">
	<g id="グループ_1370_3_">
		<g id="グループ_1368_3_">
			<path class="st1" d="M1087-4776.28c-22.22,0-40.3-18.08-40.3-40.3s18.08-40.3,40.3-40.3s40.3,18.08,40.3,40.3
				S1109.22-4776.28,1087-4776.28z M1087-4852.88c-20.02,0-36.3,16.28-36.3,36.3c0,20.01,16.28,36.3,36.3,36.3
				c20.01,0,36.3-16.28,36.3-36.3C1123.3-4836.6,1107.02-4852.88,1087-4852.88z"/>
			<path class="st1" d="M1148.34-4753.24c-0.51,0-1.02-0.2-1.41-0.59l-34.26-34.26c-0.78-0.78-0.78-2.05,0-2.83s2.05-0.78,2.83,0
				l34.26,34.26c0.78,0.78,0.78,2.05,0,2.83C1149.36-4753.44,1148.85-4753.24,1148.34-4753.24z"/>
		</g>
		<g id="グループ_1369_3_">
			<path class="st1" d="M1087-4776.28c-22.22,0-40.3-18.08-40.3-40.3s18.08-40.3,40.3-40.3s40.3,18.08,40.3,40.3
				S1109.22-4776.28,1087-4776.28z M1087-4852.88c-20.02,0-36.3,16.28-36.3,36.3c0,20.01,16.28,36.3,36.3,36.3
				c20.01,0,36.3-16.28,36.3-36.3C1123.3-4836.6,1107.02-4852.88,1087-4852.88z"/>
			<path class="st1" d="M1148.34-4753.24c-0.51,0-1.02-0.2-1.41-0.59l-34.26-34.26c-0.78-0.78-0.78-2.05,0-2.83s2.05-0.78,2.83,0
				l34.26,34.26c0.78,0.78,0.78,2.05,0,2.83C1149.36-4753.44,1148.85-4753.24,1148.34-4753.24z"/>
		</g>
	</g>
	<path class="st0" d="M1104.6-4742.36H909.03c-5.46,0-9.9-4.44-9.9-9.91v-258.19c0-5.46,4.44-9.9,9.9-9.9h195.57
		c5.46,0,9.9,4.44,9.9,9.89v133.58c0,1.1-0.9,2-2,2s-2-0.9-2-2v-133.58c0-3.25-2.64-5.89-5.9-5.89H909.03c-3.26,0-5.9,2.65-5.9,5.9
		v258.19c0,3.26,2.65,5.91,5.9,5.91h195.57c1.1,0,2,0.9,2,2S1105.7-4742.36,1104.6-4742.36z"/>
	<g id="グループ_1371_3_">
		<path class="st0" d="M1057.17-4879.36h-100.7c-1.1,0-2-0.9-2-2s0.9-2,2-2h100.7c1.1,0,2,0.9,2,2S1058.27-4879.36,1057.17-4879.36z
			"/>
		<path class="st0" d="M1022.17-4828.6h-65.7c-1.1,0-2-0.9-2-2s0.9-2,2-2h65.7c1.1,0,2,0.9,2,2S1023.27-4828.6,1022.17-4828.6z"/>
		<path class="st0" d="M1057.17-4930.11h-100.7c-1.1,0-2-0.9-2-2s0.9-2,2-2h100.7c1.1,0,2,0.9,2,2S1058.27-4930.11,1057.17-4930.11z
			"/>
	</g>
</g>
</svg>
